<svg xmlns="http://www.w3.org/2000/svg" version="1.1" xmlns:xlink="http://www.w3.org/1999/xlink" xmlns:svgjs="http://svgjs.dev/svgjs" width="1440" height="560" preserveAspectRatio="none" viewBox="0 0 1440 560"><g mask="url(&quot;#SvgjsMask9425&quot;)" fill="none"><rect width="1440" height="560" x="0" y="0" fill="url(&quot;#SvgjsLinearGradient9426&quot;)"></rect><g mask="url(&quot;#SvgjsMask9428&quot;)"><path d="M725 575L725 565L725 555L725 545L725 535L725 525L725 515L725 505L725 495" stroke="url(&quot;#SvgjsLinearGradient9427&quot;)" stroke-width="1.67"></path><path d="M722.5 495 a2.5 2.5 0 1 0 5 0 a2.5 2.5 0 1 0 -5 0z" fill="url(&quot;#SvgjsLinearGradient9427&quot;)"></path><path d="M715 515L705 505M715 415L705 405L705 395L695 385L695 375M715 405L725 395M705 465L705 455L705 445L705 435L705 425M715 495L705 485M715 575L715 565L715 555L715 545L715 535L715 525L715 515L715 505L715 495L715 485L705 475L705 465L715 455L715 445L715 435L715 425L715 415L715 405L715 395L705 385L705 375" stroke="url(&quot;#SvgjsLinearGradient9427&quot;)" stroke-width="1.67"></path><path d="M702.5 375 a2.5 2.5 0 1 0 5 0 a2.5 2.5 0 1 0 -5 0zM702.5 505 a2.5 2.5 0 1 0 5 0 a2.5 2.5 0 1 0 -5 0zM692.5 375 a2.5 2.5 0 1 0 5 0 a2.5 2.5 0 1 0 -5 0zM722.5 395 a2.5 2.5 0 1 0 5 0 a2.5 2.5 0 1 0 -5 0zM702.5 425 a2.5 2.5 0 1 0 5 0 a2.5 2.5 0 1 0 -5 0zM702.5 485 a2.5 2.5 0 1 0 5 0 a2.5 2.5 0 1 0 -5 0z" fill="url(&quot;#SvgjsLinearGradient9427&quot;)"></path><path d="M735 545L745 535L755 525M735 495L745 485M735 505L745 495M735 575L735 565L735 555L735 545L735 535L735 525L735 515L735 505L735 495L735 485L725 475L715 465" stroke="url(&quot;#SvgjsLinearGradient9427&quot;)" stroke-width="1.67"></path><path d="M712.5 465 a2.5 2.5 0 1 0 5 0 a2.5 2.5 0 1 0 -5 0zM752.5 525 a2.5 2.5 0 1 0 5 0 a2.5 2.5 0 1 0 -5 0zM742.5 485 a2.5 2.5 0 1 0 5 0 a2.5 2.5 0 1 0 -5 0zM742.5 495 a2.5 2.5 0 1 0 5 0 a2.5 2.5 0 1 0 -5 0z" fill="url(&quot;#SvgjsLinearGradient9427&quot;)"></path><path d="M705 575L705 565" stroke="url(&quot;#SvgjsLinearGradient9427&quot;)" stroke-width="1.67"></path><path d="M702.5 565 a2.5 2.5 0 1 0 5 0 a2.5 2.5 0 1 0 -5 0z" fill="url(&quot;#SvgjsLinearGradient9427&quot;)"></path><path d="M745 575L745 565L745 555" stroke="url(&quot;#SvgjsLinearGradient9427&quot;)" stroke-width="1.67"></path><path d="M742.5 555 a2.5 2.5 0 1 0 5 0 a2.5 2.5 0 1 0 -5 0z" fill="url(&quot;#SvgjsLinearGradient9427&quot;)"></path><path d="M715 295L705 285L695 275L685 265L685 255L685 245M685 375L675 365L675 355L675 345L675 335L675 325M695 445L685 435L685 425L685 415L685 405L675 395L675 385M695 245L695 235L695 225L695 215L705 205M685 215L675 205L665 195L665 185L665 175L665 165M695 155L705 145L705 135L705 125L705 115L705 105L705 95L705 85L705 75L705 65L705 55L705 45L705 35L695 25M695 175L705 165L705 155L715 145L715 135L715 125L715 115L715 105L715 95M685 365L685 355L685 345L685 335L685 325L685 315L685 305L685 295L685 285L685 275M695 485L685 475L685 465L685 455M685 205L695 195L705 185M695 555L705 545M695 575L695 565L695 555L695 545L695 535L695 525L695 515L695 505L695 495L695 485L695 475L695 465L695 455L695 445L695 435L695 425L695 415L695 405L685 395L685 385L685 375L685 365L695 355L705 345L705 335L705 325L705 315L705 305L715 295L715 285L705 275L695 265L695 255L695 245L685 235L685 225L685 215L685 205L685 195L695 185L695 175L695 165L695 155L695 145L695 135L695 125" stroke="url(&quot;#SvgjsLinearGradient9427&quot;)" stroke-width="1.67"></path><path d="M692.5 125 a2.5 2.5 0 1 0 5 0 a2.5 2.5 0 1 0 -5 0zM682.5 245 a2.5 2.5 0 1 0 5 0 a2.5 2.5 0 1 0 -5 0zM672.5 325 a2.5 2.5 0 1 0 5 0 a2.5 2.5 0 1 0 -5 0zM672.5 385 a2.5 2.5 0 1 0 5 0 a2.5 2.5 0 1 0 -5 0zM702.5 205 a2.5 2.5 0 1 0 5 0 a2.5 2.5 0 1 0 -5 0zM662.5 165 a2.5 2.5 0 1 0 5 0 a2.5 2.5 0 1 0 -5 0zM692.5 25 a2.5 2.5 0 1 0 5 0 a2.5 2.5 0 1 0 -5 0zM712.5 95 a2.5 2.5 0 1 0 5 0 a2.5 2.5 0 1 0 -5 0zM682.5 275 a2.5 2.5 0 1 0 5 0 a2.5 2.5 0 1 0 -5 0zM682.5 455 a2.5 2.5 0 1 0 5 0 a2.5 2.5 0 1 0 -5 0zM702.5 185 a2.5 2.5 0 1 0 5 0 a2.5 2.5 0 1 0 -5 0zM702.5 545 a2.5 2.5 0 1 0 5 0 a2.5 2.5 0 1 0 -5 0z" fill="url(&quot;#SvgjsLinearGradient9427&quot;)"></path><path d="M765 525L765 515L765 505M755 575L755 565L755 555L765 545L765 535L765 525L755 515L755 505L755 495" stroke="url(&quot;#SvgjsLinearGradient9427&quot;)" stroke-width="1.67"></path><path d="M752.5 495 a2.5 2.5 0 1 0 5 0 a2.5 2.5 0 1 0 -5 0zM762.5 505 a2.5 2.5 0 1 0 5 0 a2.5 2.5 0 1 0 -5 0z" fill="url(&quot;#SvgjsLinearGradient9427&quot;)"></path><path d="M685 505L685 495L685 485M655 235L645 225L645 215M675 95L665 85L665 75L665 65L665 55L665 45L665 35L665 25M655 185L645 175M665 125L675 115L675 105L685 95L685 85L685 75L685 65L685 55L685 45L685 35M675 485L665 475L665 465L665 455L665 445M655 135L655 125L645 115L645 105L645 95M665 385L655 375L655 365L655 355L655 345L655 335L655 325L655 315L655 305L645 295L645 285L645 275L645 265M665 115L655 105L655 95L655 85M655 165L645 155M665 425L675 415L675 405M655 225L665 215L665 205M655 275L665 265L665 255L665 245L665 235L665 225L675 215M685 575L685 565L685 555L685 545L685 535L685 525L685 515L685 505L675 495L675 485L675 475L675 465L675 455L675 445L665 435L665 425L665 415L665 405L665 395L665 385L665 375L665 365L665 355L665 345L665 335L665 325L665 315L665 305L655 295L655 285L655 275L655 265L655 255L655 245L655 235L655 225L655 215L655 205L655 195L655 185L655 175L655 165L655 155L655 145L655 135L665 125L665 115L665 105L675 95L675 85L675 75L675 65L675 55" stroke="url(&quot;#SvgjsLinearGradient9427&quot;)" stroke-width="1.67"></path><path d="M672.5 55 a2.5 2.5 0 1 0 5 0 a2.5 2.5 0 1 0 -5 0zM682.5 485 a2.5 2.5 0 1 0 5 0 a2.5 2.5 0 1 0 -5 0zM642.5 215 a2.5 2.5 0 1 0 5 0 a2.5 2.5 0 1 0 -5 0zM662.5 25 a2.5 2.5 0 1 0 5 0 a2.5 2.5 0 1 0 -5 0zM642.5 175 a2.5 2.5 0 1 0 5 0 a2.5 2.5 0 1 0 -5 0zM682.5 35 a2.5 2.5 0 1 0 5 0 a2.5 2.5 0 1 0 -5 0zM662.5 445 a2.5 2.5 0 1 0 5 0 a2.5 2.5 0 1 0 -5 0zM642.5 95 a2.5 2.5 0 1 0 5 0 a2.5 2.5 0 1 0 -5 0zM642.5 265 a2.5 2.5 0 1 0 5 0 a2.5 2.5 0 1 0 -5 0zM652.5 85 a2.5 2.5 0 1 0 5 0 a2.5 2.5 0 1 0 -5 0zM642.5 155 a2.5 2.5 0 1 0 5 0 a2.5 2.5 0 1 0 -5 0zM672.5 405 a2.5 2.5 0 1 0 5 0 a2.5 2.5 0 1 0 -5 0zM662.5 205 a2.5 2.5 0 1 0 5 0 a2.5 2.5 0 1 0 -5 0zM672.5 215 a2.5 2.5 0 1 0 5 0 a2.5 2.5 0 1 0 -5 0z" fill="url(&quot;#SvgjsLinearGradient9427&quot;)"></path><path d="M775 335L765 325L765 315L765 305L755 295L755 285L755 275L755 265L755 255L755 245L745 235L745 225L735 215L735 205L735 195L735 185L735 175M755 225L755 215L755 205M775 275L765 265L765 255M775 365L765 355L765 345L765 335L755 325M775 285L785 275L785 265L785 255L785 245L785 235L785 225M775 395L765 385L765 375L765 365M775 305L785 295L785 285M775 475L765 465L765 455L765 445L765 435L765 425L765 415L755 405L755 395L755 385L755 375L755 365L755 355L755 345M775 485L765 475L755 465L755 455L755 445L755 435L755 425L755 415M745 185L755 175M745 95L755 85L755 75L745 65M775 255L775 245L775 235L775 225L775 215L775 205L765 195L765 185L765 175L765 165L765 155L765 145M765 575L765 565L765 555L775 545L775 535L775 525L775 515L775 505L775 495L775 485L775 475L775 465L775 455L775 445L775 435L775 425L775 415L775 405L775 395L775 385L775 375L775 365L775 355L775 345L775 335L775 325L775 315L775 305L775 295L775 285L775 275L775 265L775 255L765 245L755 235L755 225L745 215L745 205L745 195L745 185L745 175L745 165L745 155L745 145L745 135L745 125L745 115L745 105L745 95L745 85L745 75" stroke="url(&quot;#SvgjsLinearGradient9427&quot;)" stroke-width="1.67"></path><path d="M742.5 75 a2.5 2.5 0 1 0 5 0 a2.5 2.5 0 1 0 -5 0zM732.5 175 a2.5 2.5 0 1 0 5 0 a2.5 2.5 0 1 0 -5 0zM752.5 205 a2.5 2.5 0 1 0 5 0 a2.5 2.5 0 1 0 -5 0zM762.5 255 a2.5 2.5 0 1 0 5 0 a2.5 2.5 0 1 0 -5 0zM752.5 325 a2.5 2.5 0 1 0 5 0 a2.5 2.5 0 1 0 -5 0zM782.5 225 a2.5 2.5 0 1 0 5 0 a2.5 2.5 0 1 0 -5 0zM762.5 365 a2.5 2.5 0 1 0 5 0 a2.5 2.5 0 1 0 -5 0zM782.5 285 a2.5 2.5 0 1 0 5 0 a2.5 2.5 0 1 0 -5 0zM752.5 345 a2.5 2.5 0 1 0 5 0 a2.5 2.5 0 1 0 -5 0zM752.5 415 a2.5 2.5 0 1 0 5 0 a2.5 2.5 0 1 0 -5 0zM752.5 175 a2.5 2.5 0 1 0 5 0 a2.5 2.5 0 1 0 -5 0zM742.5 65 a2.5 2.5 0 1 0 5 0 a2.5 2.5 0 1 0 -5 0zM762.5 145 a2.5 2.5 0 1 0 5 0 a2.5 2.5 0 1 0 -5 0z" fill="url(&quot;#SvgjsLinearGradient9427&quot;)"></path><path d="M675 515L665 505L665 495L665 485M675 525L665 515M675 575L675 565L675 555L675 545L675 535L675 525L675 515L675 505" stroke="url(&quot;#SvgjsLinearGradient9427&quot;)" stroke-width="1.67"></path><path d="M672.5 505 a2.5 2.5 0 1 0 5 0 a2.5 2.5 0 1 0 -5 0zM662.5 485 a2.5 2.5 0 1 0 5 0 a2.5 2.5 0 1 0 -5 0zM662.5 515 a2.5 2.5 0 1 0 5 0 a2.5 2.5 0 1 0 -5 0z" fill="url(&quot;#SvgjsLinearGradient9427&quot;)"></path><path d="M795 345L785 335M795 365L785 355M795 375L785 365M795 315L785 305M785 385L785 375M805 255L795 245M795 325L785 315M795 265L795 255M775 575L775 565L775 555L785 545L785 535L785 525L785 515L785 505L785 495L785 485L785 475L785 465L785 455L785 445L785 435L785 425L785 415L785 405L785 395L785 385L795 375L795 365L795 355L795 345L795 335L795 325L795 315L795 305L795 295L795 285L795 275L795 265L805 255L805 245" stroke="url(&quot;#SvgjsLinearGradient9427&quot;)" stroke-width="1.67"></path><path d="M802.5 245 a2.5 2.5 0 1 0 5 0 a2.5 2.5 0 1 0 -5 0zM782.5 335 a2.5 2.5 0 1 0 5 0 a2.5 2.5 0 1 0 -5 0zM782.5 355 a2.5 2.5 0 1 0 5 0 a2.5 2.5 0 1 0 -5 0zM782.5 365 a2.5 2.5 0 1 0 5 0 a2.5 2.5 0 1 0 -5 0zM782.5 305 a2.5 2.5 0 1 0 5 0 a2.5 2.5 0 1 0 -5 0zM782.5 375 a2.5 2.5 0 1 0 5 0 a2.5 2.5 0 1 0 -5 0zM792.5 245 a2.5 2.5 0 1 0 5 0 a2.5 2.5 0 1 0 -5 0zM782.5 315 a2.5 2.5 0 1 0 5 0 a2.5 2.5 0 1 0 -5 0zM792.5 255 a2.5 2.5 0 1 0 5 0 a2.5 2.5 0 1 0 -5 0z" fill="url(&quot;#SvgjsLinearGradient9427&quot;)"></path><path d="M635 325L625 315L625 305L625 295L625 285M635 255L645 245L645 235L635 225L635 215L635 205L635 195L625 185L625 175M655 415L645 405M665 545L665 535L665 525M655 425L645 415M655 445L645 435L645 425M645 375L635 365L635 355L635 345M635 315L645 305M665 575L665 565L665 555L665 545L655 535L655 525L655 515L655 505L655 495L655 485L655 475L655 465L655 455L655 445L655 435L655 425L655 415L655 405L655 395L645 385L645 375L645 365L645 355L645 345L645 335L635 325L635 315L635 305L635 295L635 285L635 275L635 265L635 255L635 245" stroke="url(&quot;#SvgjsLinearGradient9427&quot;)" stroke-width="1.67"></path><path d="M632.5 245 a2.5 2.5 0 1 0 5 0 a2.5 2.5 0 1 0 -5 0zM622.5 285 a2.5 2.5 0 1 0 5 0 a2.5 2.5 0 1 0 -5 0zM622.5 175 a2.5 2.5 0 1 0 5 0 a2.5 2.5 0 1 0 -5 0zM642.5 405 a2.5 2.5 0 1 0 5 0 a2.5 2.5 0 1 0 -5 0zM662.5 525 a2.5 2.5 0 1 0 5 0 a2.5 2.5 0 1 0 -5 0zM642.5 415 a2.5 2.5 0 1 0 5 0 a2.5 2.5 0 1 0 -5 0zM642.5 425 a2.5 2.5 0 1 0 5 0 a2.5 2.5 0 1 0 -5 0zM632.5 345 a2.5 2.5 0 1 0 5 0 a2.5 2.5 0 1 0 -5 0zM642.5 305 a2.5 2.5 0 1 0 5 0 a2.5 2.5 0 1 0 -5 0z" fill="url(&quot;#SvgjsLinearGradient9427&quot;)"></path><path d="M805 215L815 205L815 195L815 185L815 175L815 165L825 155L825 145L825 135M805 225L795 215L795 205L795 195L795 185L795 175L795 165L795 155L795 145L795 135L795 125L795 115L785 105M805 235L795 225M815 245L815 235L815 225M785 575L785 565L785 555L795 545L795 535L795 525L795 515L795 505L795 495L795 485L795 475L795 465L795 455L795 445L795 435L795 425L795 415L795 405L795 395L795 385L805 375L805 365L805 355L805 345L805 335L805 325L805 315L805 305L805 295L805 285L805 275L805 265L815 255L815 245L805 235L805 225L805 215L805 205L805 195" stroke="url(&quot;#SvgjsLinearGradient9427&quot;)" stroke-width="1.67"></path><path d="M802.5 195 a2.5 2.5 0 1 0 5 0 a2.5 2.5 0 1 0 -5 0zM822.5 135 a2.5 2.5 0 1 0 5 0 a2.5 2.5 0 1 0 -5 0zM782.5 105 a2.5 2.5 0 1 0 5 0 a2.5 2.5 0 1 0 -5 0zM792.5 225 a2.5 2.5 0 1 0 5 0 a2.5 2.5 0 1 0 -5 0zM812.5 225 a2.5 2.5 0 1 0 5 0 a2.5 2.5 0 1 0 -5 0z" fill="url(&quot;#SvgjsLinearGradient9427&quot;)"></path><path d="M645 455L645 445M635 415L635 405L635 395L635 385L635 375M625 345L625 335L625 325M625 375L615 365L615 355L615 345L615 335L615 325L615 315L615 305M645 555L655 545M655 575L655 565L645 555L645 545L645 535L645 525L645 515L645 505L645 495L645 485L645 475L645 465L645 455L635 445L635 435L635 425L635 415L625 405L625 395L625 385L625 375L625 365L625 355L625 345L635 335" stroke="url(&quot;#SvgjsLinearGradient9427&quot;)" stroke-width="1.67"></path><path d="M632.5 335 a2.5 2.5 0 1 0 5 0 a2.5 2.5 0 1 0 -5 0zM642.5 445 a2.5 2.5 0 1 0 5 0 a2.5 2.5 0 1 0 -5 0zM632.5 375 a2.5 2.5 0 1 0 5 0 a2.5 2.5 0 1 0 -5 0zM622.5 325 a2.5 2.5 0 1 0 5 0 a2.5 2.5 0 1 0 -5 0zM612.5 305 a2.5 2.5 0 1 0 5 0 a2.5 2.5 0 1 0 -5 0zM652.5 545 a2.5 2.5 0 1 0 5 0 a2.5 2.5 0 1 0 -5 0z" fill="url(&quot;#SvgjsLinearGradient9427&quot;)"></path><path d="M825 205L835 195L835 185L835 175L835 165L835 155M825 215L835 205L845 195L845 185L845 175M805 515L815 505L815 495M825 225L835 215M805 525L815 515M805 395L815 385M805 405L815 395M805 425L815 415L815 405M805 535L815 525M795 575L795 565L795 555L805 545L805 535L805 525L805 515L805 505L805 495L805 485L805 475L805 465L805 455L805 445L805 435L805 425L805 415L805 405L805 395L805 385L815 375L815 365L815 355L815 345L815 335L815 325L815 315L815 305L815 295L815 285L815 275L815 265L825 255L825 245L825 235L825 225L825 215L825 205L825 195" stroke="url(&quot;#SvgjsLinearGradient9427&quot;)" stroke-width="1.67"></path><path d="M822.5 195 a2.5 2.5 0 1 0 5 0 a2.5 2.5 0 1 0 -5 0zM832.5 155 a2.5 2.5 0 1 0 5 0 a2.5 2.5 0 1 0 -5 0zM842.5 175 a2.5 2.5 0 1 0 5 0 a2.5 2.5 0 1 0 -5 0zM812.5 495 a2.5 2.5 0 1 0 5 0 a2.5 2.5 0 1 0 -5 0zM832.5 215 a2.5 2.5 0 1 0 5 0 a2.5 2.5 0 1 0 -5 0zM812.5 515 a2.5 2.5 0 1 0 5 0 a2.5 2.5 0 1 0 -5 0zM812.5 385 a2.5 2.5 0 1 0 5 0 a2.5 2.5 0 1 0 -5 0zM812.5 395 a2.5 2.5 0 1 0 5 0 a2.5 2.5 0 1 0 -5 0zM812.5 405 a2.5 2.5 0 1 0 5 0 a2.5 2.5 0 1 0 -5 0zM812.5 525 a2.5 2.5 0 1 0 5 0 a2.5 2.5 0 1 0 -5 0z" fill="url(&quot;#SvgjsLinearGradient9427&quot;)"></path><path d="M645 575L645 565L635 555L635 545L635 535L635 525L635 515L635 505L635 495L635 485L635 475L635 465L635 455L625 445L625 435L625 425L625 415L615 405L615 395L615 385" stroke="url(&quot;#SvgjsLinearGradient9427&quot;)" stroke-width="1.67"></path><path d="M612.5 385 a2.5 2.5 0 1 0 5 0 a2.5 2.5 0 1 0 -5 0z" fill="url(&quot;#SvgjsLinearGradient9427&quot;)"></path><path d="M805 565L805 555M845 55L845 45L845 35M825 275L835 265M825 325L835 315L835 305L835 295L835 285L835 275M825 485L825 475L825 465L825 455L825 445M845 125L835 115L835 105L835 95L835 85L835 75L835 65L835 55L825 45L825 35L825 25M815 555L815 545L815 535M845 135L835 125L825 115L825 105L825 95L825 85M825 435L815 425M865 195L855 185M845 95L855 85L855 75L855 65L865 55M845 115L855 105L855 95L865 85L865 75L865 65M845 215L845 205M805 575L805 565L815 555L825 545L825 535L825 525L825 515L825 505L825 495L825 485L815 475L815 465L815 455L815 445L825 435L825 425L825 415L825 405L825 395L825 385L825 375L825 365L825 355L825 345L825 335L825 325L825 315L825 305L825 295L825 285L825 275L825 265L835 255L835 245L835 235L845 225L845 215L855 205L865 195L865 185L855 175L855 165L845 155L845 145L845 135L845 125L845 115L845 105L845 95L845 85L845 75L845 65L845 55L835 45" stroke="url(&quot;#SvgjsLinearGradient9427&quot;)" stroke-width="1.67"></path><path d="M832.5 45 a2.5 2.5 0 1 0 5 0 a2.5 2.5 0 1 0 -5 0zM802.5 555 a2.5 2.5 0 1 0 5 0 a2.5 2.5 0 1 0 -5 0zM842.5 35 a2.5 2.5 0 1 0 5 0 a2.5 2.5 0 1 0 -5 0zM832.5 265 a2.5 2.5 0 1 0 5 0 a2.5 2.5 0 1 0 -5 0zM832.5 275 a2.5 2.5 0 1 0 5 0 a2.5 2.5 0 1 0 -5 0zM822.5 445 a2.5 2.5 0 1 0 5 0 a2.5 2.5 0 1 0 -5 0zM822.5 25 a2.5 2.5 0 1 0 5 0 a2.5 2.5 0 1 0 -5 0zM812.5 535 a2.5 2.5 0 1 0 5 0 a2.5 2.5 0 1 0 -5 0zM822.5 85 a2.5 2.5 0 1 0 5 0 a2.5 2.5 0 1 0 -5 0zM812.5 425 a2.5 2.5 0 1 0 5 0 a2.5 2.5 0 1 0 -5 0zM852.5 185 a2.5 2.5 0 1 0 5 0 a2.5 2.5 0 1 0 -5 0zM862.5 55 a2.5 2.5 0 1 0 5 0 a2.5 2.5 0 1 0 -5 0zM862.5 65 a2.5 2.5 0 1 0 5 0 a2.5 2.5 0 1 0 -5 0zM842.5 205 a2.5 2.5 0 1 0 5 0 a2.5 2.5 0 1 0 -5 0z" fill="url(&quot;#SvgjsLinearGradient9427&quot;)"></path><path d="M595 295L605 285L605 275L605 265L605 255M595 305L605 295L615 285L615 275M595 135L585 125L585 115L585 105L585 95L585 85M595 215L605 205L605 195L605 185L605 175L605 165L605 155L605 145L605 135L605 125L605 115L605 105M595 45L605 35L605 25M595 55L585 45L585 35L585 25M595 195L585 185M595 225L605 215L615 205L615 195L615 185L615 175M595 235L605 225L615 215L625 205M605 345L605 335L605 325L605 315L605 305M595 85L605 75L605 65M595 75L585 65L585 55L575 45L575 35M595 245L605 235L615 225L625 215M595 205L585 195M635 575L635 565L625 555L625 545L625 535L625 525L625 515L625 505L625 495L625 485L625 475L625 465L625 455L615 445L615 435L615 425L615 415L605 405L605 395L605 385L605 375L605 365L605 355L605 345L595 335L595 325L595 315L595 305L595 295L595 285L595 275L595 265L595 255L595 245L595 235L595 225L595 215L595 205L595 195L595 185L595 175L595 165L595 155L595 145L595 135L595 125L595 115L595 105L595 95L595 85L595 75L595 65L595 55L595 45L595 35L595 25" stroke="url(&quot;#SvgjsLinearGradient9427&quot;)" stroke-width="1.67"></path><path d="M592.5 25 a2.5 2.5 0 1 0 5 0 a2.5 2.5 0 1 0 -5 0zM602.5 255 a2.5 2.5 0 1 0 5 0 a2.5 2.5 0 1 0 -5 0zM612.5 275 a2.5 2.5 0 1 0 5 0 a2.5 2.5 0 1 0 -5 0zM582.5 85 a2.5 2.5 0 1 0 5 0 a2.5 2.5 0 1 0 -5 0zM602.5 105 a2.5 2.5 0 1 0 5 0 a2.5 2.5 0 1 0 -5 0zM602.5 25 a2.5 2.5 0 1 0 5 0 a2.5 2.5 0 1 0 -5 0zM582.5 25 a2.5 2.5 0 1 0 5 0 a2.5 2.5 0 1 0 -5 0zM582.5 185 a2.5 2.5 0 1 0 5 0 a2.5 2.5 0 1 0 -5 0zM612.5 175 a2.5 2.5 0 1 0 5 0 a2.5 2.5 0 1 0 -5 0zM622.5 205 a2.5 2.5 0 1 0 5 0 a2.5 2.5 0 1 0 -5 0zM602.5 305 a2.5 2.5 0 1 0 5 0 a2.5 2.5 0 1 0 -5 0zM602.5 65 a2.5 2.5 0 1 0 5 0 a2.5 2.5 0 1 0 -5 0zM572.5 35 a2.5 2.5 0 1 0 5 0 a2.5 2.5 0 1 0 -5 0zM622.5 215 a2.5 2.5 0 1 0 5 0 a2.5 2.5 0 1 0 -5 0zM582.5 195 a2.5 2.5 0 1 0 5 0 a2.5 2.5 0 1 0 -5 0z" fill="url(&quot;#SvgjsLinearGradient9427&quot;)"></path><path d="M875 115L865 105L865 95M875 135L865 125L865 115M875 125L885 115L885 105L885 95L885 85L885 75L885 65L885 55L885 45L885 35L885 25M845 335L835 325M835 435L845 425L845 415L845 405L845 395L845 385M845 255L855 245L855 235L865 225M835 355L835 345L835 335M845 445L845 435M845 295L855 285L855 275L855 265L855 255L865 245L865 235M875 165L865 155L865 145L865 135L855 125L855 115M845 305L855 295L865 285L865 275L865 265M835 495L835 485M875 145L885 135L885 125L895 115L895 105L895 95L895 85L895 75L895 65L905 55L905 45L905 35L905 25M815 575L815 565L825 555L835 545L835 535L835 525L835 515L835 505L835 495L845 485L845 475L845 465L845 455L845 445L835 435L835 425L835 415L835 405L835 395L835 385L835 375L835 365L835 355L845 345L845 335L845 325L845 315L845 305L845 295L845 285L845 275L845 265L845 255L845 245L845 235L855 225L855 215L865 205L875 195L875 185L875 175L875 165L875 155L875 145L875 135L875 125L875 115L875 105L875 95L875 85L875 75L875 65L875 55L875 45L875 35" stroke="url(&quot;#SvgjsLinearGradient9427&quot;)" stroke-width="1.67"></path><path d="M872.5 35 a2.5 2.5 0 1 0 5 0 a2.5 2.5 0 1 0 -5 0zM862.5 95 a2.5 2.5 0 1 0 5 0 a2.5 2.5 0 1 0 -5 0zM862.5 115 a2.5 2.5 0 1 0 5 0 a2.5 2.5 0 1 0 -5 0zM882.5 25 a2.5 2.5 0 1 0 5 0 a2.5 2.5 0 1 0 -5 0zM832.5 325 a2.5 2.5 0 1 0 5 0 a2.5 2.5 0 1 0 -5 0zM842.5 385 a2.5 2.5 0 1 0 5 0 a2.5 2.5 0 1 0 -5 0zM862.5 225 a2.5 2.5 0 1 0 5 0 a2.5 2.5 0 1 0 -5 0zM832.5 335 a2.5 2.5 0 1 0 5 0 a2.5 2.5 0 1 0 -5 0zM842.5 435 a2.5 2.5 0 1 0 5 0 a2.5 2.5 0 1 0 -5 0zM862.5 235 a2.5 2.5 0 1 0 5 0 a2.5 2.5 0 1 0 -5 0zM852.5 115 a2.5 2.5 0 1 0 5 0 a2.5 2.5 0 1 0 -5 0zM862.5 265 a2.5 2.5 0 1 0 5 0 a2.5 2.5 0 1 0 -5 0zM832.5 485 a2.5 2.5 0 1 0 5 0 a2.5 2.5 0 1 0 -5 0zM902.5 25 a2.5 2.5 0 1 0 5 0 a2.5 2.5 0 1 0 -5 0z" fill="url(&quot;#SvgjsLinearGradient9427&quot;)"></path><path d="M595 355L585 345M625 575L615 565L615 555L615 545L615 535L615 525L615 515L615 505L615 495L615 485L615 475L615 465L615 455L605 445L605 435L605 425L605 415L595 405L595 395L595 385L595 375L595 365L595 355L595 345L585 335L585 325L585 315L585 305L585 295L585 285L585 275L585 265L585 255L585 245L585 235L585 225L585 215" stroke="url(&quot;#SvgjsLinearGradient9427&quot;)" stroke-width="1.67"></path><path d="M582.5 215 a2.5 2.5 0 1 0 5 0 a2.5 2.5 0 1 0 -5 0zM582.5 345 a2.5 2.5 0 1 0 5 0 a2.5 2.5 0 1 0 -5 0z" fill="url(&quot;#SvgjsLinearGradient9427&quot;)"></path><path d="M855 385L855 375L855 365L855 355L865 345M845 535L855 525M865 445L865 435L865 425M855 425L855 415L855 405L855 395M845 505L855 495L865 485M845 515L855 505L865 495M825 575L825 565L835 555L845 545L845 535L845 525L845 515L845 505L845 495L855 485L865 475L865 465L865 455L865 445L855 435L855 425L865 415L865 405L865 395L855 385L845 375L845 365L845 355L855 345L855 335L855 325" stroke="url(&quot;#SvgjsLinearGradient9427&quot;)" stroke-width="1.67"></path><path d="M852.5 325 a2.5 2.5 0 1 0 5 0 a2.5 2.5 0 1 0 -5 0zM862.5 345 a2.5 2.5 0 1 0 5 0 a2.5 2.5 0 1 0 -5 0zM852.5 525 a2.5 2.5 0 1 0 5 0 a2.5 2.5 0 1 0 -5 0zM862.5 425 a2.5 2.5 0 1 0 5 0 a2.5 2.5 0 1 0 -5 0zM852.5 395 a2.5 2.5 0 1 0 5 0 a2.5 2.5 0 1 0 -5 0zM862.5 485 a2.5 2.5 0 1 0 5 0 a2.5 2.5 0 1 0 -5 0zM862.5 495 a2.5 2.5 0 1 0 5 0 a2.5 2.5 0 1 0 -5 0z" fill="url(&quot;#SvgjsLinearGradient9427&quot;)"></path><path d="M885 325L895 315L895 305L895 295L895 285L895 275L895 265L895 255L895 245L895 235L895 225L895 215M885 265L875 255L875 245L875 235M885 345L895 335L895 325M885 225L875 215L875 205M885 205L895 195L895 185M885 435L875 425M865 515L865 505M875 445L875 435M885 315L875 305M885 355L895 345M835 575L835 565L845 555L855 545L865 535L865 525L865 515L875 505L875 495L875 485L875 475L875 465L875 455L875 445L885 435L885 425L875 415L875 405L885 395L885 385L885 375L885 365L885 355L885 345L885 335L885 325L885 315L885 305L885 295L885 285L885 275L885 265L885 255L885 245L885 235L885 225L885 215L885 205L885 195L885 185" stroke="url(&quot;#SvgjsLinearGradient9427&quot;)" stroke-width="1.67"></path><path d="M882.5 185 a2.5 2.5 0 1 0 5 0 a2.5 2.5 0 1 0 -5 0zM892.5 215 a2.5 2.5 0 1 0 5 0 a2.5 2.5 0 1 0 -5 0zM872.5 235 a2.5 2.5 0 1 0 5 0 a2.5 2.5 0 1 0 -5 0zM892.5 325 a2.5 2.5 0 1 0 5 0 a2.5 2.5 0 1 0 -5 0zM872.5 205 a2.5 2.5 0 1 0 5 0 a2.5 2.5 0 1 0 -5 0zM892.5 185 a2.5 2.5 0 1 0 5 0 a2.5 2.5 0 1 0 -5 0zM872.5 425 a2.5 2.5 0 1 0 5 0 a2.5 2.5 0 1 0 -5 0zM862.5 505 a2.5 2.5 0 1 0 5 0 a2.5 2.5 0 1 0 -5 0zM872.5 435 a2.5 2.5 0 1 0 5 0 a2.5 2.5 0 1 0 -5 0zM872.5 305 a2.5 2.5 0 1 0 5 0 a2.5 2.5 0 1 0 -5 0zM892.5 345 a2.5 2.5 0 1 0 5 0 a2.5 2.5 0 1 0 -5 0z" fill="url(&quot;#SvgjsLinearGradient9427&quot;)"></path><path d="M605 515L595 505L595 495L595 485L595 475L595 465L585 455L585 445M595 425L585 415L575 405L575 395M595 435L585 425L575 415M585 365L585 355M605 465L605 455M575 265L565 255L565 245L565 235L565 225M575 195L565 185L565 175L565 165L565 155M575 215L565 205L565 195L555 185M585 155L575 145L575 135L575 125L575 115L565 105L565 95L565 85L565 75L565 65L575 55M575 185L575 175M585 385L575 375L575 365M605 575L605 565L605 555L605 545L605 535L605 525L605 515L605 505L605 495L605 485L605 475L605 465L595 455L595 445L595 435L595 425L595 415L585 405L585 395L585 385L585 375L585 365L575 355L575 345L575 335L575 325L575 315L575 305L575 295L575 285L575 275L575 265L575 255L575 245L575 235L575 225L575 215L575 205L575 195L575 185L585 175L585 165L585 155L585 145" stroke="url(&quot;#SvgjsLinearGradient9427&quot;)" stroke-width="1.67"></path><path d="M582.5 145 a2.5 2.5 0 1 0 5 0 a2.5 2.5 0 1 0 -5 0zM582.5 445 a2.5 2.5 0 1 0 5 0 a2.5 2.5 0 1 0 -5 0zM572.5 395 a2.5 2.5 0 1 0 5 0 a2.5 2.5 0 1 0 -5 0zM572.5 415 a2.5 2.5 0 1 0 5 0 a2.5 2.5 0 1 0 -5 0zM582.5 355 a2.5 2.5 0 1 0 5 0 a2.5 2.5 0 1 0 -5 0zM602.5 455 a2.5 2.5 0 1 0 5 0 a2.5 2.5 0 1 0 -5 0zM562.5 225 a2.5 2.5 0 1 0 5 0 a2.5 2.5 0 1 0 -5 0zM562.5 155 a2.5 2.5 0 1 0 5 0 a2.5 2.5 0 1 0 -5 0zM552.5 185 a2.5 2.5 0 1 0 5 0 a2.5 2.5 0 1 0 -5 0zM572.5 55 a2.5 2.5 0 1 0 5 0 a2.5 2.5 0 1 0 -5 0zM572.5 175 a2.5 2.5 0 1 0 5 0 a2.5 2.5 0 1 0 -5 0zM572.5 365 a2.5 2.5 0 1 0 5 0 a2.5 2.5 0 1 0 -5 0z" fill="url(&quot;#SvgjsLinearGradient9427&quot;)"></path><path d="M905 145L895 135L895 125M905 245L915 235L915 225M915 185L925 175L925 165L935 155L935 145L935 135M915 155L915 145L915 135L915 125L915 115L915 105L915 95L905 85L905 75L905 65M905 275L915 265L915 255L915 245M905 205L905 195L905 185L905 175M915 195L925 185L935 175L935 165M915 165L905 155L895 145M895 415L885 405M895 365L895 355M845 575L845 565L855 555L865 545L875 535L875 525L875 515L885 505L885 495L885 485L885 475L885 465L885 455L885 445L895 435L895 425L895 415L895 405L895 395L895 385L895 375L895 365L905 355L905 345L905 335L905 325L905 315L905 305L905 295L905 285L905 275L905 265L905 255L905 245L905 235L905 225L905 215L905 205L915 195L915 185L915 175L915 165L915 155L905 145L905 135L905 125" stroke="url(&quot;#SvgjsLinearGradient9427&quot;)" stroke-width="1.67"></path><path d="M902.5 125 a2.5 2.5 0 1 0 5 0 a2.5 2.5 0 1 0 -5 0zM892.5 125 a2.5 2.5 0 1 0 5 0 a2.5 2.5 0 1 0 -5 0zM912.5 225 a2.5 2.5 0 1 0 5 0 a2.5 2.5 0 1 0 -5 0zM932.5 135 a2.5 2.5 0 1 0 5 0 a2.5 2.5 0 1 0 -5 0zM902.5 65 a2.5 2.5 0 1 0 5 0 a2.5 2.5 0 1 0 -5 0zM912.5 245 a2.5 2.5 0 1 0 5 0 a2.5 2.5 0 1 0 -5 0zM902.5 175 a2.5 2.5 0 1 0 5 0 a2.5 2.5 0 1 0 -5 0zM932.5 165 a2.5 2.5 0 1 0 5 0 a2.5 2.5 0 1 0 -5 0zM892.5 145 a2.5 2.5 0 1 0 5 0 a2.5 2.5 0 1 0 -5 0zM882.5 405 a2.5 2.5 0 1 0 5 0 a2.5 2.5 0 1 0 -5 0zM892.5 355 a2.5 2.5 0 1 0 5 0 a2.5 2.5 0 1 0 -5 0z" fill="url(&quot;#SvgjsLinearGradient9427&quot;)"></path><path d="M595 525L595 515M595 555L585 545L585 535L585 525M565 435L575 425M555 275L565 265M575 445L575 435M555 285L565 275M585 475L585 465M595 565L585 555M595 575L595 565L595 555L595 545L595 535L595 525L585 515L585 505L585 495L585 485L585 475L575 465L575 455L575 445L565 435L565 425L565 415L565 405L565 395L565 385L565 375L565 365L565 355L565 345L565 335L565 325L565 315L565 305L565 295L555 285L555 275L555 265L555 255L555 245L555 235" stroke="url(&quot;#SvgjsLinearGradient9427&quot;)" stroke-width="1.67"></path><path d="M552.5 235 a2.5 2.5 0 1 0 5 0 a2.5 2.5 0 1 0 -5 0zM592.5 515 a2.5 2.5 0 1 0 5 0 a2.5 2.5 0 1 0 -5 0zM582.5 525 a2.5 2.5 0 1 0 5 0 a2.5 2.5 0 1 0 -5 0zM572.5 425 a2.5 2.5 0 1 0 5 0 a2.5 2.5 0 1 0 -5 0zM562.5 265 a2.5 2.5 0 1 0 5 0 a2.5 2.5 0 1 0 -5 0zM572.5 435 a2.5 2.5 0 1 0 5 0 a2.5 2.5 0 1 0 -5 0zM562.5 275 a2.5 2.5 0 1 0 5 0 a2.5 2.5 0 1 0 -5 0zM582.5 465 a2.5 2.5 0 1 0 5 0 a2.5 2.5 0 1 0 -5 0zM582.5 555 a2.5 2.5 0 1 0 5 0 a2.5 2.5 0 1 0 -5 0z" fill="url(&quot;#SvgjsLinearGradient9427&quot;)"></path><path d="M925 245L935 235L935 225L935 215L935 205M905 385L915 375L915 365M925 255L935 245M925 265L935 255M915 285L915 275M905 395L915 385M905 425L915 415L915 405M895 455L895 445M855 575L855 565L865 555L875 545L885 535L885 525L885 515L895 505L895 495L895 485L895 475L895 465L895 455L905 445L905 435L905 425L905 415L905 405L905 395L905 385L905 375L905 365L915 355L915 345L915 335L915 325L915 315L915 305L915 295L915 285L925 275L925 265L925 255L925 245L925 235L925 225" stroke="url(&quot;#SvgjsLinearGradient9427&quot;)" stroke-width="1.67"></path><path d="M922.5 225 a2.5 2.5 0 1 0 5 0 a2.5 2.5 0 1 0 -5 0zM932.5 205 a2.5 2.5 0 1 0 5 0 a2.5 2.5 0 1 0 -5 0zM912.5 365 a2.5 2.5 0 1 0 5 0 a2.5 2.5 0 1 0 -5 0zM932.5 245 a2.5 2.5 0 1 0 5 0 a2.5 2.5 0 1 0 -5 0zM932.5 255 a2.5 2.5 0 1 0 5 0 a2.5 2.5 0 1 0 -5 0zM912.5 275 a2.5 2.5 0 1 0 5 0 a2.5 2.5 0 1 0 -5 0zM912.5 385 a2.5 2.5 0 1 0 5 0 a2.5 2.5 0 1 0 -5 0zM912.5 405 a2.5 2.5 0 1 0 5 0 a2.5 2.5 0 1 0 -5 0zM892.5 445 a2.5 2.5 0 1 0 5 0 a2.5 2.5 0 1 0 -5 0z" fill="url(&quot;#SvgjsLinearGradient9427&quot;)"></path><path d="M545 275L535 265L535 255L535 245L535 235L535 225L525 215L525 205M565 455L555 445M545 185L535 175L535 165M545 175L555 165L555 155L555 145L565 135L565 125L565 115L555 105M575 515L565 505L565 495L565 485M575 555L575 545L575 535M555 345L545 335L545 325L545 315L545 305L545 295L535 285L535 275L525 265L525 255L525 245L525 235L525 225L515 215M575 525L565 515L555 505L555 495L555 485L555 475M545 195L535 185L525 175L525 165L535 155L535 145L535 135L535 125L535 115L525 105L525 95L525 85L525 75M545 205L555 195M545 225L555 215L555 205M585 575L575 565L575 555L565 545L565 535L575 525L575 515L575 505L575 495L575 485L575 475L565 465L565 455L565 445L555 435L555 425L555 415L555 405L555 395L555 385L555 375L555 365L555 355L555 345L555 335L555 325L555 315L555 305L555 295L545 285L545 275L545 265L545 255L545 245L545 235L545 225L545 215L545 205L545 195L545 185L545 175L545 165L545 155L545 145L555 135L555 125" stroke="url(&quot;#SvgjsLinearGradient9427&quot;)" stroke-width="1.67"></path><path d="M552.5 125 a2.5 2.5 0 1 0 5 0 a2.5 2.5 0 1 0 -5 0zM522.5 205 a2.5 2.5 0 1 0 5 0 a2.5 2.5 0 1 0 -5 0zM552.5 445 a2.5 2.5 0 1 0 5 0 a2.5 2.5 0 1 0 -5 0zM532.5 165 a2.5 2.5 0 1 0 5 0 a2.5 2.5 0 1 0 -5 0zM552.5 105 a2.5 2.5 0 1 0 5 0 a2.5 2.5 0 1 0 -5 0zM562.5 485 a2.5 2.5 0 1 0 5 0 a2.5 2.5 0 1 0 -5 0zM572.5 535 a2.5 2.5 0 1 0 5 0 a2.5 2.5 0 1 0 -5 0zM512.5 215 a2.5 2.5 0 1 0 5 0 a2.5 2.5 0 1 0 -5 0zM552.5 475 a2.5 2.5 0 1 0 5 0 a2.5 2.5 0 1 0 -5 0zM522.5 75 a2.5 2.5 0 1 0 5 0 a2.5 2.5 0 1 0 -5 0zM552.5 195 a2.5 2.5 0 1 0 5 0 a2.5 2.5 0 1 0 -5 0zM552.5 205 a2.5 2.5 0 1 0 5 0 a2.5 2.5 0 1 0 -5 0z" fill="url(&quot;#SvgjsLinearGradient9427&quot;)"></path><path d="M865 575L865 565L875 555L885 545L895 535L895 525L895 515L905 505L905 495L905 485L905 475L905 465L905 455L915 445L915 435" stroke="url(&quot;#SvgjsLinearGradient9427&quot;)" stroke-width="1.67"></path><path d="M912.5 435 a2.5 2.5 0 1 0 5 0 a2.5 2.5 0 1 0 -5 0z" fill="url(&quot;#SvgjsLinearGradient9427&quot;)"></path><path d="M875 575L875 565L885 555L895 545L905 535L905 525L905 515L915 505L915 495L915 485L915 475L915 465L915 455L925 445L925 435L925 425L925 415L925 405L925 395L925 385L925 375L925 365L925 355L925 345L925 335L925 325L925 315L925 305L925 295L925 285L935 275L945 265L945 255L945 245" stroke="url(&quot;#SvgjsLinearGradient9427&quot;)" stroke-width="1.67"></path><path d="M942.5 245 a2.5 2.5 0 1 0 5 0 a2.5 2.5 0 1 0 -5 0z" fill="url(&quot;#SvgjsLinearGradient9427&quot;)"></path><path d="M565 565L555 555M565 575L565 565L565 555L555 545L555 535" stroke="url(&quot;#SvgjsLinearGradient9427&quot;)" stroke-width="1.67"></path><path d="M552.5 535 a2.5 2.5 0 1 0 5 0 a2.5 2.5 0 1 0 -5 0zM552.5 555 a2.5 2.5 0 1 0 5 0 a2.5 2.5 0 1 0 -5 0z" fill="url(&quot;#SvgjsLinearGradient9427&quot;)"></path><path d="M955 225L945 215M935 445L945 435L945 425L945 415M955 175L945 165L945 155L945 145L945 135L945 125L945 115L945 105M925 475L935 465L935 455L945 445M955 205L945 195L945 185L945 175M935 405L945 395L945 385M925 485L935 475M955 235L945 225M885 575L885 565L895 555L905 545L915 535L915 525L915 515L925 505L925 495L925 485L925 475L925 465L925 455L935 445L935 435L935 425L935 415L935 405L935 395L935 385L935 375L935 365L935 355L935 345L935 335L935 325L935 315L935 305L935 295L935 285L945 275L955 265L955 255L955 245L955 235L955 225L955 215L955 205L955 195L955 185L955 175L955 165" stroke="url(&quot;#SvgjsLinearGradient9427&quot;)" stroke-width="1.67"></path><path d="M952.5 165 a2.5 2.5 0 1 0 5 0 a2.5 2.5 0 1 0 -5 0zM942.5 215 a2.5 2.5 0 1 0 5 0 a2.5 2.5 0 1 0 -5 0zM942.5 415 a2.5 2.5 0 1 0 5 0 a2.5 2.5 0 1 0 -5 0zM942.5 105 a2.5 2.5 0 1 0 5 0 a2.5 2.5 0 1 0 -5 0zM942.5 445 a2.5 2.5 0 1 0 5 0 a2.5 2.5 0 1 0 -5 0zM942.5 175 a2.5 2.5 0 1 0 5 0 a2.5 2.5 0 1 0 -5 0zM942.5 385 a2.5 2.5 0 1 0 5 0 a2.5 2.5 0 1 0 -5 0zM932.5 475 a2.5 2.5 0 1 0 5 0 a2.5 2.5 0 1 0 -5 0zM942.5 225 a2.5 2.5 0 1 0 5 0 a2.5 2.5 0 1 0 -5 0z" fill="url(&quot;#SvgjsLinearGradient9427&quot;)"></path><path d="M545 395L535 385L535 375M545 525L555 515M545 405L535 395M545 365L535 355M545 415L535 405M555 575L545 565L545 555L545 545L545 535L545 525L545 515L545 505L545 495L545 485L545 475L545 465L545 455L545 445L545 435L545 425L545 415L545 405L545 395L545 385L545 375L545 365L545 355" stroke="url(&quot;#SvgjsLinearGradient9427&quot;)" stroke-width="1.67"></path><path d="M542.5 355 a2.5 2.5 0 1 0 5 0 a2.5 2.5 0 1 0 -5 0zM532.5 375 a2.5 2.5 0 1 0 5 0 a2.5 2.5 0 1 0 -5 0zM552.5 515 a2.5 2.5 0 1 0 5 0 a2.5 2.5 0 1 0 -5 0zM532.5 395 a2.5 2.5 0 1 0 5 0 a2.5 2.5 0 1 0 -5 0zM532.5 355 a2.5 2.5 0 1 0 5 0 a2.5 2.5 0 1 0 -5 0zM532.5 405 a2.5 2.5 0 1 0 5 0 a2.5 2.5 0 1 0 -5 0z" fill="url(&quot;#SvgjsLinearGradient9427&quot;)"></path><path d="M895 575L895 565L905 555L915 545L925 535L925 525L925 515L935 505L935 495L945 485L945 475L945 465" stroke="url(&quot;#SvgjsLinearGradient9427&quot;)" stroke-width="1.67"></path><path d="M942.5 465 a2.5 2.5 0 1 0 5 0 a2.5 2.5 0 1 0 -5 0z" fill="url(&quot;#SvgjsLinearGradient9427&quot;)"></path><path d="M965 235L975 225L975 215L975 205L975 195L975 185L975 175L975 165L975 155L975 145L975 135L985 125L985 115L985 105L985 95M965 135L955 125L955 115L955 105L955 95L955 85M945 355L955 345L955 335L955 325M945 305L955 295L955 285M965 85L975 75L975 65L975 55L975 45L975 35L975 25M965 255L975 245L975 235L985 225M965 155L955 145L955 135M965 125L975 115L975 105L975 95L975 85L985 75L985 65L985 55L985 45L985 35L985 25M955 485L965 475M945 315L955 305L965 295L965 285L975 275L975 265L975 255L985 245L985 235L995 225L1005 215L1005 205L1005 195L995 185L995 175M955 385L955 375L955 365L955 355L965 345L965 335M905 575L905 565L915 555L925 545L935 535L935 525L935 515L945 505L945 495L955 485L955 475L955 465L955 455L955 445L955 435L955 425L955 415L955 405L955 395L955 385L945 375L945 365L945 355L945 345L945 335L945 325L945 315L945 305L945 295L945 285L955 275L965 265L965 255L965 245L965 235L965 225L965 215L965 205L965 195L965 185L965 175L965 165L965 155L965 145L965 135L965 125L965 115L965 105L965 95L965 85L965 75" stroke="url(&quot;#SvgjsLinearGradient9427&quot;)" stroke-width="1.67"></path><path d="M962.5 75 a2.5 2.5 0 1 0 5 0 a2.5 2.5 0 1 0 -5 0zM982.5 95 a2.5 2.5 0 1 0 5 0 a2.5 2.5 0 1 0 -5 0zM952.5 85 a2.5 2.5 0 1 0 5 0 a2.5 2.5 0 1 0 -5 0zM952.5 325 a2.5 2.5 0 1 0 5 0 a2.5 2.5 0 1 0 -5 0zM952.5 285 a2.5 2.5 0 1 0 5 0 a2.5 2.5 0 1 0 -5 0zM972.5 25 a2.5 2.5 0 1 0 5 0 a2.5 2.5 0 1 0 -5 0zM982.5 225 a2.5 2.5 0 1 0 5 0 a2.5 2.5 0 1 0 -5 0zM952.5 135 a2.5 2.5 0 1 0 5 0 a2.5 2.5 0 1 0 -5 0zM982.5 25 a2.5 2.5 0 1 0 5 0 a2.5 2.5 0 1 0 -5 0zM962.5 475 a2.5 2.5 0 1 0 5 0 a2.5 2.5 0 1 0 -5 0zM992.5 175 a2.5 2.5 0 1 0 5 0 a2.5 2.5 0 1 0 -5 0zM962.5 335 a2.5 2.5 0 1 0 5 0 a2.5 2.5 0 1 0 -5 0z" fill="url(&quot;#SvgjsLinearGradient9427&quot;)"></path><path d="M535 345L525 335L525 325L525 315M525 355L525 345M525 425L535 415M535 445L535 435M535 575L535 565L535 555L535 545L535 535L535 525L535 515L535 505L535 495L535 485L535 475L535 465L535 455L535 445L525 435L525 425L525 415L525 405L525 395L525 385L525 375L525 365L525 355L535 345L535 335L535 325" stroke="url(&quot;#SvgjsLinearGradient9427&quot;)" stroke-width="1.67"></path><path d="M532.5 325 a2.5 2.5 0 1 0 5 0 a2.5 2.5 0 1 0 -5 0zM522.5 315 a2.5 2.5 0 1 0 5 0 a2.5 2.5 0 1 0 -5 0zM522.5 345 a2.5 2.5 0 1 0 5 0 a2.5 2.5 0 1 0 -5 0zM532.5 415 a2.5 2.5 0 1 0 5 0 a2.5 2.5 0 1 0 -5 0zM532.5 435 a2.5 2.5 0 1 0 5 0 a2.5 2.5 0 1 0 -5 0z" fill="url(&quot;#SvgjsLinearGradient9427&quot;)"></path><path d="M945 525L945 515M915 575L915 565L925 555L935 545L945 535L945 525L955 515L955 505" stroke="url(&quot;#SvgjsLinearGradient9427&quot;)" stroke-width="1.67"></path><path d="M952.5 505 a2.5 2.5 0 1 0 5 0 a2.5 2.5 0 1 0 -5 0zM942.5 515 a2.5 2.5 0 1 0 5 0 a2.5 2.5 0 1 0 -5 0z" fill="url(&quot;#SvgjsLinearGradient9427&quot;)"></path><path d="M515 325L505 315L505 305L495 295L495 285L495 275L495 265L495 255M515 375L505 365L505 355L495 345L495 335L505 325M515 405L505 395L505 385L505 375L495 365L495 355M515 435L505 425L505 415L505 405M515 345L505 335M515 305L525 295L525 285L525 275L515 265M525 575L525 565L525 555L525 545L525 535L525 525L525 515L525 505L525 495L525 485L525 475L525 465L525 455L525 445L515 435L515 425L515 415L515 405L515 395L515 385L515 375L515 365L515 355L515 345L515 335L515 325L515 315L515 305L515 295" stroke="url(&quot;#SvgjsLinearGradient9427&quot;)" stroke-width="1.67"></path><path d="M512.5 295 a2.5 2.5 0 1 0 5 0 a2.5 2.5 0 1 0 -5 0zM492.5 255 a2.5 2.5 0 1 0 5 0 a2.5 2.5 0 1 0 -5 0zM502.5 325 a2.5 2.5 0 1 0 5 0 a2.5 2.5 0 1 0 -5 0zM492.5 355 a2.5 2.5 0 1 0 5 0 a2.5 2.5 0 1 0 -5 0zM502.5 405 a2.5 2.5 0 1 0 5 0 a2.5 2.5 0 1 0 -5 0zM502.5 335 a2.5 2.5 0 1 0 5 0 a2.5 2.5 0 1 0 -5 0zM512.5 265 a2.5 2.5 0 1 0 5 0 a2.5 2.5 0 1 0 -5 0z" fill="url(&quot;#SvgjsLinearGradient9427&quot;)"></path><path d="M925 575L925 565L935 555L945 545" stroke="url(&quot;#SvgjsLinearGradient9427&quot;)" stroke-width="1.67"></path><path d="M942.5 545 a2.5 2.5 0 1 0 5 0 a2.5 2.5 0 1 0 -5 0z" fill="url(&quot;#SvgjsLinearGradient9427&quot;)"></path><path d="M515 455L505 445L505 435M515 475L505 465L505 455M515 485L505 475M515 575L515 565L515 555L515 545L515 535L515 525L515 515L515 505L515 495L515 485L515 475L515 465L515 455L515 445" stroke="url(&quot;#SvgjsLinearGradient9427&quot;)" stroke-width="1.67"></path><path d="M512.5 445 a2.5 2.5 0 1 0 5 0 a2.5 2.5 0 1 0 -5 0zM502.5 435 a2.5 2.5 0 1 0 5 0 a2.5 2.5 0 1 0 -5 0zM502.5 455 a2.5 2.5 0 1 0 5 0 a2.5 2.5 0 1 0 -5 0zM502.5 475 a2.5 2.5 0 1 0 5 0 a2.5 2.5 0 1 0 -5 0z" fill="url(&quot;#SvgjsLinearGradient9427&quot;)"></path><path d="M965 435L975 425M965 445L975 435L985 425L985 415L985 405L985 395L985 385L985 375M965 455L975 445M965 465L975 455M965 495L965 485M935 575L935 565L945 555L955 545L955 535L955 525L965 515L965 505L965 495L975 485L975 475L965 465L965 455L965 445L965 435L965 425L965 415L965 405L965 395L965 385" stroke="url(&quot;#SvgjsLinearGradient9427&quot;)" stroke-width="1.67"></path><path d="M962.5 385 a2.5 2.5 0 1 0 5 0 a2.5 2.5 0 1 0 -5 0zM972.5 425 a2.5 2.5 0 1 0 5 0 a2.5 2.5 0 1 0 -5 0zM982.5 375 a2.5 2.5 0 1 0 5 0 a2.5 2.5 0 1 0 -5 0zM972.5 445 a2.5 2.5 0 1 0 5 0 a2.5 2.5 0 1 0 -5 0zM972.5 455 a2.5 2.5 0 1 0 5 0 a2.5 2.5 0 1 0 -5 0zM962.5 485 a2.5 2.5 0 1 0 5 0 a2.5 2.5 0 1 0 -5 0z" fill="url(&quot;#SvgjsLinearGradient9427&quot;)"></path><path d="M485 395L495 385L495 375M485 355L475 345L475 335M485 375L475 365L475 355M485 295L475 285L475 275L475 265L475 255L475 245L475 235L485 225L485 215L485 205M505 525L495 515M485 305L475 295M485 385L475 375M505 575L505 565L505 555L505 545L505 535L505 525L505 515L505 505L505 495L495 485L495 475L495 465L495 455L495 445L495 435L495 425L495 415L495 405L485 395L485 385L485 375L485 365L485 355L485 345L485 335L485 325L485 315L485 305L485 295L485 285" stroke="url(&quot;#SvgjsLinearGradient9427&quot;)" stroke-width="1.67"></path><path d="M482.5 285 a2.5 2.5 0 1 0 5 0 a2.5 2.5 0 1 0 -5 0zM492.5 375 a2.5 2.5 0 1 0 5 0 a2.5 2.5 0 1 0 -5 0zM472.5 335 a2.5 2.5 0 1 0 5 0 a2.5 2.5 0 1 0 -5 0zM472.5 355 a2.5 2.5 0 1 0 5 0 a2.5 2.5 0 1 0 -5 0zM482.5 205 a2.5 2.5 0 1 0 5 0 a2.5 2.5 0 1 0 -5 0zM492.5 515 a2.5 2.5 0 1 0 5 0 a2.5 2.5 0 1 0 -5 0zM472.5 295 a2.5 2.5 0 1 0 5 0 a2.5 2.5 0 1 0 -5 0zM472.5 375 a2.5 2.5 0 1 0 5 0 a2.5 2.5 0 1 0 -5 0z" fill="url(&quot;#SvgjsLinearGradient9427&quot;)"></path><path d="M945 575L945 565L955 555L965 545L965 535L965 525L975 515L975 505L975 495L985 485L985 475L985 465L985 455L985 445" stroke="url(&quot;#SvgjsLinearGradient9427&quot;)" stroke-width="1.67"></path><path d="M982.5 445 a2.5 2.5 0 1 0 5 0 a2.5 2.5 0 1 0 -5 0z" fill="url(&quot;#SvgjsLinearGradient9427&quot;)"></path><path d="M485 505L495 495M475 395L475 385M495 575L495 565L495 555L495 545L495 535L485 525L485 515L485 505L485 495L485 485L485 475L485 465L485 455L485 445L485 435L485 425L485 415L485 405L475 395L465 385L465 375L465 365L465 355L465 345L465 335" stroke="url(&quot;#SvgjsLinearGradient9427&quot;)" stroke-width="1.67"></path><path d="M462.5 335 a2.5 2.5 0 1 0 5 0 a2.5 2.5 0 1 0 -5 0zM492.5 495 a2.5 2.5 0 1 0 5 0 a2.5 2.5 0 1 0 -5 0zM472.5 385 a2.5 2.5 0 1 0 5 0 a2.5 2.5 0 1 0 -5 0z" fill="url(&quot;#SvgjsLinearGradient9427&quot;)"></path><path d="M1005 385L995 375L995 365L995 355L995 345L995 335L995 325M995 415L995 405L995 395M955 575L955 565L965 555L975 545L975 535L975 525L985 515L985 505L985 495L995 485L995 475L995 465L995 455L995 445L995 435L995 425L995 415L1005 405L1005 395L1005 385L1005 375" stroke="url(&quot;#SvgjsLinearGradient9427&quot;)" stroke-width="1.67"></path><path d="M1002.5 375 a2.5 2.5 0 1 0 5 0 a2.5 2.5 0 1 0 -5 0zM992.5 325 a2.5 2.5 0 1 0 5 0 a2.5 2.5 0 1 0 -5 0zM992.5 395 a2.5 2.5 0 1 0 5 0 a2.5 2.5 0 1 0 -5 0z" fill="url(&quot;#SvgjsLinearGradient9427&quot;)"></path><path d="M455 305L455 295L455 285L455 275L455 265M465 255L455 245L455 235L455 225L455 215L455 205L455 195L455 185L455 175L455 165L455 155L445 145L445 135L445 125M465 195L475 185M475 415L465 405L455 395M465 205L475 195L485 185L485 175L475 165L475 155L475 145L475 135L475 125L475 115M465 145L455 135L455 125L455 115L455 105L455 95L455 85L465 75L465 65L465 55M455 325L465 315L465 305M465 225L475 215L475 205M485 575L485 565L485 555L485 545L485 535L475 525L475 515L475 505L475 495L475 485L475 475L475 465L475 455L475 445L475 435L475 425L475 415L475 405L465 395L455 385L455 375L455 365L455 355L455 345L455 335L455 325L455 315L455 305L465 295L465 285L465 275L465 265L465 255L465 245L465 235L465 225L465 215L465 205L465 195L465 185L465 175L465 165L465 155L465 145L465 135" stroke="url(&quot;#SvgjsLinearGradient9427&quot;)" stroke-width="1.67"></path><path d="M462.5 135 a2.5 2.5 0 1 0 5 0 a2.5 2.5 0 1 0 -5 0zM452.5 265 a2.5 2.5 0 1 0 5 0 a2.5 2.5 0 1 0 -5 0zM442.5 125 a2.5 2.5 0 1 0 5 0 a2.5 2.5 0 1 0 -5 0zM472.5 185 a2.5 2.5 0 1 0 5 0 a2.5 2.5 0 1 0 -5 0zM452.5 395 a2.5 2.5 0 1 0 5 0 a2.5 2.5 0 1 0 -5 0zM472.5 115 a2.5 2.5 0 1 0 5 0 a2.5 2.5 0 1 0 -5 0zM462.5 55 a2.5 2.5 0 1 0 5 0 a2.5 2.5 0 1 0 -5 0zM462.5 305 a2.5 2.5 0 1 0 5 0 a2.5 2.5 0 1 0 -5 0zM472.5 205 a2.5 2.5 0 1 0 5 0 a2.5 2.5 0 1 0 -5 0z" fill="url(&quot;#SvgjsLinearGradient9427&quot;)"></path><path d="M1015 215L1025 205M1025 255L1015 245M995 115L1005 105M995 85L1005 75L1005 65L1005 55L1005 45L995 35L995 25M1025 315L1015 305L1015 295L1015 285L1015 275M995 155L985 145L985 135M1015 225L1025 215M1015 355L1005 345L1005 335M1005 175L1005 165L1005 155L1005 145L1005 135L1005 125L1005 115M1015 195L1015 185L1015 175L1015 165M1025 235L1025 225M1015 345L1015 335L1015 325L1015 315L1005 305L1005 295L1005 285L1005 275L1005 265M1025 265L1015 255L1005 245M965 575L965 565L975 555L985 545L985 535L985 525L995 515L995 505L995 495L1005 485L1005 475L1005 465L1005 455L1005 445L1005 435L1005 425L1005 415L1015 405L1015 395L1015 385L1015 375L1015 365L1015 355L1015 345L1025 335L1025 325L1025 315L1025 305L1025 295L1025 285L1025 275L1025 265L1025 255L1025 245L1025 235L1015 225L1015 215L1015 205L1015 195L1005 185L1005 175L995 165L995 155L995 145L995 135L995 125L995 115L995 105L995 95L995 85L995 75L995 65" stroke="url(&quot;#SvgjsLinearGradient9427&quot;)" stroke-width="1.67"></path><path d="M992.5 65 a2.5 2.5 0 1 0 5 0 a2.5 2.5 0 1 0 -5 0zM1022.5 205 a2.5 2.5 0 1 0 5 0 a2.5 2.5 0 1 0 -5 0zM1012.5 245 a2.5 2.5 0 1 0 5 0 a2.5 2.5 0 1 0 -5 0zM1002.5 105 a2.5 2.5 0 1 0 5 0 a2.5 2.5 0 1 0 -5 0zM992.5 25 a2.5 2.5 0 1 0 5 0 a2.5 2.5 0 1 0 -5 0zM1012.5 275 a2.5 2.5 0 1 0 5 0 a2.5 2.5 0 1 0 -5 0zM982.5 135 a2.5 2.5 0 1 0 5 0 a2.5 2.5 0 1 0 -5 0zM1022.5 215 a2.5 2.5 0 1 0 5 0 a2.5 2.5 0 1 0 -5 0zM1002.5 335 a2.5 2.5 0 1 0 5 0 a2.5 2.5 0 1 0 -5 0zM1002.5 115 a2.5 2.5 0 1 0 5 0 a2.5 2.5 0 1 0 -5 0zM1012.5 165 a2.5 2.5 0 1 0 5 0 a2.5 2.5 0 1 0 -5 0zM1022.5 225 a2.5 2.5 0 1 0 5 0 a2.5 2.5 0 1 0 -5 0zM1002.5 265 a2.5 2.5 0 1 0 5 0 a2.5 2.5 0 1 0 -5 0zM1002.5 245 a2.5 2.5 0 1 0 5 0 a2.5 2.5 0 1 0 -5 0z" fill="url(&quot;#SvgjsLinearGradient9427&quot;)"></path><path d="M435 215L445 205L445 195L445 185L445 175M455 415L455 405M445 225L445 215M465 455L455 445L455 435L455 425M435 165L445 155M465 465L455 455M475 575L475 565L475 555L475 545L475 535L465 525L465 515L465 505L465 495L465 485L465 475L465 465L465 455L465 445L465 435L465 425L455 415L445 405L445 395L445 385L445 375L445 365L445 355L445 345L445 335L445 325L445 315L445 305L445 295L445 285L445 275L445 265L445 255L445 245L445 235L445 225L435 215L435 205L435 195L435 185L435 175L435 165L435 155L435 145L435 135" stroke="url(&quot;#SvgjsLinearGradient9427&quot;)" stroke-width="1.67"></path><path d="M432.5 135 a2.5 2.5 0 1 0 5 0 a2.5 2.5 0 1 0 -5 0zM442.5 175 a2.5 2.5 0 1 0 5 0 a2.5 2.5 0 1 0 -5 0zM452.5 405 a2.5 2.5 0 1 0 5 0 a2.5 2.5 0 1 0 -5 0zM442.5 215 a2.5 2.5 0 1 0 5 0 a2.5 2.5 0 1 0 -5 0zM452.5 425 a2.5 2.5 0 1 0 5 0 a2.5 2.5 0 1 0 -5 0zM442.5 155 a2.5 2.5 0 1 0 5 0 a2.5 2.5 0 1 0 -5 0zM452.5 455 a2.5 2.5 0 1 0 5 0 a2.5 2.5 0 1 0 -5 0z" fill="url(&quot;#SvgjsLinearGradient9427&quot;)"></path><path d="M1035 355L1045 345L1045 335L1045 325L1045 315L1045 305L1045 295L1045 285L1045 275L1045 265L1055 255L1055 245L1055 235L1055 225L1055 215L1055 205L1055 195L1055 185L1055 175M1035 165L1035 155L1035 145L1035 135L1035 125L1035 115L1035 105M1035 235L1045 225L1045 215L1045 205L1045 195L1045 185L1045 175L1045 165L1055 155L1055 145L1055 135L1055 125L1065 115L1065 105L1065 95L1065 85L1065 75L1065 65L1075 55M1035 245L1045 235M1035 365L1025 355L1025 345M1035 375L1025 365M1035 385L1025 375M1005 505L1005 495M1035 185L1025 175L1025 165L1025 155L1025 145M1035 255L1045 245M1025 395L1025 385M975 575L975 565L985 555L995 545L995 535L995 525L1005 515L1005 505L1015 495L1015 485L1015 475L1015 465L1015 455L1015 445L1015 435L1015 425L1025 415L1025 405L1025 395L1035 385L1035 375L1035 365L1035 355L1035 345L1035 335L1035 325L1035 315L1035 305L1035 295L1035 285L1035 275L1035 265L1035 255L1035 245L1035 235L1035 225L1035 215L1035 205L1035 195L1035 185L1035 175L1035 165L1045 155L1045 145L1045 135L1045 125" stroke="url(&quot;#SvgjsLinearGradient9427&quot;)" stroke-width="1.67"></path><path d="M1042.5 125 a2.5 2.5 0 1 0 5 0 a2.5 2.5 0 1 0 -5 0zM1052.5 175 a2.5 2.5 0 1 0 5 0 a2.5 2.5 0 1 0 -5 0zM1032.5 105 a2.5 2.5 0 1 0 5 0 a2.5 2.5 0 1 0 -5 0zM1072.5 55 a2.5 2.5 0 1 0 5 0 a2.5 2.5 0 1 0 -5 0zM1042.5 235 a2.5 2.5 0 1 0 5 0 a2.5 2.5 0 1 0 -5 0zM1022.5 345 a2.5 2.5 0 1 0 5 0 a2.5 2.5 0 1 0 -5 0zM1022.5 365 a2.5 2.5 0 1 0 5 0 a2.5 2.5 0 1 0 -5 0zM1022.5 375 a2.5 2.5 0 1 0 5 0 a2.5 2.5 0 1 0 -5 0zM1002.5 495 a2.5 2.5 0 1 0 5 0 a2.5 2.5 0 1 0 -5 0zM1022.5 145 a2.5 2.5 0 1 0 5 0 a2.5 2.5 0 1 0 -5 0zM1042.5 245 a2.5 2.5 0 1 0 5 0 a2.5 2.5 0 1 0 -5 0zM1022.5 385 a2.5 2.5 0 1 0 5 0 a2.5 2.5 0 1 0 -5 0z" fill="url(&quot;#SvgjsLinearGradient9427&quot;)"></path><path d="M425 165L415 155L415 145L415 135L415 125L405 115L405 105L405 95L405 85L405 75L405 65L405 55L405 45L405 35L405 25M425 175L415 165L405 155L405 145L395 135M415 115L425 105L425 95L425 85L425 75M425 125L425 115L435 105L435 95L435 85L435 75L435 65L435 55L435 45L435 35M455 475L455 465M465 575L465 565L465 555L465 545L465 535L455 525L455 515L455 505L455 495L455 485L455 475L445 465L445 455L445 445L445 435L445 425L445 415L435 405L435 395L435 385L435 375L435 365L435 355L435 345L435 335L435 325L435 315L435 305L435 295L435 285L435 275L435 265L435 255L435 245L435 235L435 225L425 215L425 205L425 195L425 185L425 175L425 165L425 155L425 145L425 135L425 125L415 115L415 105L415 95" stroke="url(&quot;#SvgjsLinearGradient9427&quot;)" stroke-width="1.67"></path><path d="M412.5 95 a2.5 2.5 0 1 0 5 0 a2.5 2.5 0 1 0 -5 0zM402.5 25 a2.5 2.5 0 1 0 5 0 a2.5 2.5 0 1 0 -5 0zM392.5 135 a2.5 2.5 0 1 0 5 0 a2.5 2.5 0 1 0 -5 0zM422.5 75 a2.5 2.5 0 1 0 5 0 a2.5 2.5 0 1 0 -5 0zM432.5 35 a2.5 2.5 0 1 0 5 0 a2.5 2.5 0 1 0 -5 0zM452.5 465 a2.5 2.5 0 1 0 5 0 a2.5 2.5 0 1 0 -5 0z" fill="url(&quot;#SvgjsLinearGradient9427&quot;)"></path><path d="M985 575L985 565L995 555L1005 545L1005 535L1005 525L1015 515L1015 505L1025 495L1025 485L1025 475L1025 465L1025 455L1025 445L1025 435L1025 425L1035 415" stroke="url(&quot;#SvgjsLinearGradient9427&quot;)" stroke-width="1.67"></path><path d="M1032.5 415 a2.5 2.5 0 1 0 5 0 a2.5 2.5 0 1 0 -5 0z" fill="url(&quot;#SvgjsLinearGradient9427&quot;)"></path><path d="M435 455L425 445L425 435L425 425L425 415M415 205L405 195L405 185L405 175L405 165L395 155L395 145M425 235L415 225L405 215L405 205L395 195L395 185M455 575L455 565L455 555L455 545L455 535L445 525L445 515L445 505L445 495L445 485L445 475L435 465L435 455L435 445L435 435L435 425L435 415L425 405L425 395L425 385L425 375L425 365L425 355L425 345L425 335L425 325L425 315L425 305L425 295L425 285L425 275L425 265L425 255L425 245L425 235L425 225L415 215L415 205L415 195L415 185" stroke="url(&quot;#SvgjsLinearGradient9427&quot;)" stroke-width="1.67"></path><path d="M412.5 185 a2.5 2.5 0 1 0 5 0 a2.5 2.5 0 1 0 -5 0zM422.5 415 a2.5 2.5 0 1 0 5 0 a2.5 2.5 0 1 0 -5 0zM392.5 145 a2.5 2.5 0 1 0 5 0 a2.5 2.5 0 1 0 -5 0zM392.5 185 a2.5 2.5 0 1 0 5 0 a2.5 2.5 0 1 0 -5 0z" fill="url(&quot;#SvgjsLinearGradient9427&quot;)"></path><path d="M1045 405L1035 395M995 575L995 565L1005 555L1015 545L1015 535L1025 525L1025 515L1025 505L1035 495L1035 485L1035 475L1035 465L1035 455L1035 445L1035 435L1035 425L1045 415L1045 405L1045 395L1045 385L1045 375L1045 365" stroke="url(&quot;#SvgjsLinearGradient9427&quot;)" stroke-width="1.67"></path><path d="M1042.5 365 a2.5 2.5 0 1 0 5 0 a2.5 2.5 0 1 0 -5 0zM1032.5 395 a2.5 2.5 0 1 0 5 0 a2.5 2.5 0 1 0 -5 0z" fill="url(&quot;#SvgjsLinearGradient9427&quot;)"></path><path d="M445 575L445 565L445 555L445 545L445 535" stroke="url(&quot;#SvgjsLinearGradient9427&quot;)" stroke-width="1.67"></path><path d="M442.5 535 a2.5 2.5 0 1 0 5 0 a2.5 2.5 0 1 0 -5 0z" fill="url(&quot;#SvgjsLinearGradient9427&quot;)"></path><path d="M1045 455L1055 445L1055 435L1055 425M1005 575L1005 565L1015 555L1025 545L1025 535L1035 525L1035 515L1035 505L1045 495L1045 485L1045 475L1045 465L1045 455L1045 445L1045 435L1045 425L1055 415L1055 405L1055 395L1055 385L1055 375L1055 365L1055 355L1055 345L1055 335L1055 325L1055 315L1055 305L1055 295" stroke="url(&quot;#SvgjsLinearGradient9427&quot;)" stroke-width="1.67"></path><path d="M1052.5 295 a2.5 2.5 0 1 0 5 0 a2.5 2.5 0 1 0 -5 0zM1052.5 425 a2.5 2.5 0 1 0 5 0 a2.5 2.5 0 1 0 -5 0z" fill="url(&quot;#SvgjsLinearGradient9427&quot;)"></path><path d="M435 505L425 495L425 485M435 515L425 505M435 555L425 545L425 535L425 525L425 515M435 575L435 565L435 555L435 545L435 535L435 525L435 515L435 505L435 495L435 485L435 475L425 465" stroke="url(&quot;#SvgjsLinearGradient9427&quot;)" stroke-width="1.67"></path><path d="M422.5 465 a2.5 2.5 0 1 0 5 0 a2.5 2.5 0 1 0 -5 0zM422.5 485 a2.5 2.5 0 1 0 5 0 a2.5 2.5 0 1 0 -5 0zM422.5 505 a2.5 2.5 0 1 0 5 0 a2.5 2.5 0 1 0 -5 0zM422.5 515 a2.5 2.5 0 1 0 5 0 a2.5 2.5 0 1 0 -5 0z" fill="url(&quot;#SvgjsLinearGradient9427&quot;)"></path><path d="M1065 345L1075 335M1065 415L1075 405L1075 395M1065 325L1075 315M1065 375L1075 365L1075 355L1075 345M1075 295L1085 285L1085 275L1085 265M1065 385L1075 375M1065 305L1065 295M1015 575L1015 565L1025 555L1035 545L1035 535L1045 525L1045 515L1045 505L1055 495L1055 485L1055 475L1055 465L1065 455L1065 445L1065 435L1065 425L1065 415L1065 405L1065 395L1065 385L1065 375L1065 365L1065 355L1065 345L1065 335L1065 325L1065 315L1065 305L1075 295L1075 285" stroke="url(&quot;#SvgjsLinearGradient9427&quot;)" stroke-width="1.67"></path><path d="M1072.5 285 a2.5 2.5 0 1 0 5 0 a2.5 2.5 0 1 0 -5 0zM1072.5 335 a2.5 2.5 0 1 0 5 0 a2.5 2.5 0 1 0 -5 0zM1072.5 395 a2.5 2.5 0 1 0 5 0 a2.5 2.5 0 1 0 -5 0zM1072.5 315 a2.5 2.5 0 1 0 5 0 a2.5 2.5 0 1 0 -5 0zM1072.5 345 a2.5 2.5 0 1 0 5 0 a2.5 2.5 0 1 0 -5 0zM1082.5 265 a2.5 2.5 0 1 0 5 0 a2.5 2.5 0 1 0 -5 0zM1072.5 375 a2.5 2.5 0 1 0 5 0 a2.5 2.5 0 1 0 -5 0zM1062.5 295 a2.5 2.5 0 1 0 5 0 a2.5 2.5 0 1 0 -5 0z" fill="url(&quot;#SvgjsLinearGradient9427&quot;)"></path><path d="M415 345L405 335L405 325L405 315M415 355L405 345M415 365L405 355M415 385L405 375L405 365M415 285L405 275L405 265L405 255L405 245L405 235L395 225L395 215L385 205L385 195L385 185L385 175M425 565L425 555M415 305L405 295M415 395L405 385M425 575L425 565L415 555L415 545L415 535L415 525L415 515L415 505L415 495L415 485L415 475L415 465L415 455L415 445L415 435L415 425L415 415L415 405L415 395L415 385L415 375L415 365L415 355L415 345L415 335L415 325L415 315L415 305L415 295L415 285L415 275L415 265L415 255" stroke="url(&quot;#SvgjsLinearGradient9427&quot;)" stroke-width="1.67"></path><path d="M412.5 255 a2.5 2.5 0 1 0 5 0 a2.5 2.5 0 1 0 -5 0zM402.5 315 a2.5 2.5 0 1 0 5 0 a2.5 2.5 0 1 0 -5 0zM402.5 345 a2.5 2.5 0 1 0 5 0 a2.5 2.5 0 1 0 -5 0zM402.5 355 a2.5 2.5 0 1 0 5 0 a2.5 2.5 0 1 0 -5 0zM402.5 365 a2.5 2.5 0 1 0 5 0 a2.5 2.5 0 1 0 -5 0zM382.5 175 a2.5 2.5 0 1 0 5 0 a2.5 2.5 0 1 0 -5 0zM422.5 555 a2.5 2.5 0 1 0 5 0 a2.5 2.5 0 1 0 -5 0zM402.5 295 a2.5 2.5 0 1 0 5 0 a2.5 2.5 0 1 0 -5 0zM402.5 385 a2.5 2.5 0 1 0 5 0 a2.5 2.5 0 1 0 -5 0z" fill="url(&quot;#SvgjsLinearGradient9427&quot;)"></path><path d="M1025 575L1025 565L1035 555" stroke="url(&quot;#SvgjsLinearGradient9427&quot;)" stroke-width="1.67"></path><path d="M1032.5 555 a2.5 2.5 0 1 0 5 0 a2.5 2.5 0 1 0 -5 0z" fill="url(&quot;#SvgjsLinearGradient9427&quot;)"></path><path d="M395 285L385 275L385 265M405 405L405 395M415 575L415 565L405 555L405 545L405 535L405 525L405 515L405 505L405 495L405 485L405 475L405 465L405 455L405 445L405 435L405 425L405 415L405 405L395 395L395 385L395 375L395 365L395 355L395 345L395 335L395 325L395 315L395 305L395 295L395 285L395 275L395 265L395 255" stroke="url(&quot;#SvgjsLinearGradient9427&quot;)" stroke-width="1.67"></path><path d="M392.5 255 a2.5 2.5 0 1 0 5 0 a2.5 2.5 0 1 0 -5 0zM382.5 265 a2.5 2.5 0 1 0 5 0 a2.5 2.5 0 1 0 -5 0zM402.5 395 a2.5 2.5 0 1 0 5 0 a2.5 2.5 0 1 0 -5 0z" fill="url(&quot;#SvgjsLinearGradient9427&quot;)"></path><path d="M1035 575L1035 565L1045 555" stroke="url(&quot;#SvgjsLinearGradient9427&quot;)" stroke-width="1.67"></path><path d="M1042.5 555 a2.5 2.5 0 1 0 5 0 a2.5 2.5 0 1 0 -5 0z" fill="url(&quot;#SvgjsLinearGradient9427&quot;)"></path><path d="M375 235L385 225L385 215M395 425L385 415L385 405M395 445L385 435M375 195L365 185L365 175L365 165L365 155M375 285L365 275M385 305L375 295L365 285M365 245L365 235M385 295L385 285M365 265L375 255L375 245L385 235M385 325L375 315L375 305L365 295L355 285M405 575L405 565L395 555L395 545L395 535L395 525L395 515L395 505L395 495L395 485L395 475L395 465L395 455L395 445L395 435L395 425L395 415L395 405L385 395L385 385L385 375L385 365L385 355L385 345L385 335L385 325L385 315L385 305L385 295L375 285L375 275L365 265L365 255L365 245L375 235L375 225L375 215L375 205L375 195L375 185" stroke="url(&quot;#SvgjsLinearGradient9427&quot;)" stroke-width="1.67"></path><path d="M372.5 185 a2.5 2.5 0 1 0 5 0 a2.5 2.5 0 1 0 -5 0zM382.5 215 a2.5 2.5 0 1 0 5 0 a2.5 2.5 0 1 0 -5 0zM382.5 405 a2.5 2.5 0 1 0 5 0 a2.5 2.5 0 1 0 -5 0zM382.5 435 a2.5 2.5 0 1 0 5 0 a2.5 2.5 0 1 0 -5 0zM362.5 155 a2.5 2.5 0 1 0 5 0 a2.5 2.5 0 1 0 -5 0zM362.5 275 a2.5 2.5 0 1 0 5 0 a2.5 2.5 0 1 0 -5 0zM362.5 285 a2.5 2.5 0 1 0 5 0 a2.5 2.5 0 1 0 -5 0zM362.5 235 a2.5 2.5 0 1 0 5 0 a2.5 2.5 0 1 0 -5 0zM382.5 285 a2.5 2.5 0 1 0 5 0 a2.5 2.5 0 1 0 -5 0zM382.5 235 a2.5 2.5 0 1 0 5 0 a2.5 2.5 0 1 0 -5 0zM352.5 285 a2.5 2.5 0 1 0 5 0 a2.5 2.5 0 1 0 -5 0z" fill="url(&quot;#SvgjsLinearGradient9427&quot;)"></path><path d="M1055 545L1045 535M1045 575L1045 565L1055 555L1055 545L1055 535L1055 525L1055 515L1055 505L1065 495L1065 485L1065 475" stroke="url(&quot;#SvgjsLinearGradient9427&quot;)" stroke-width="1.67"></path><path d="M1062.5 475 a2.5 2.5 0 1 0 5 0 a2.5 2.5 0 1 0 -5 0zM1042.5 535 a2.5 2.5 0 1 0 5 0 a2.5 2.5 0 1 0 -5 0z" fill="url(&quot;#SvgjsLinearGradient9427&quot;)"></path><path d="M385 455L385 445M395 575L395 565L385 555L385 545L385 535L385 525L385 515L385 505L385 495L385 485L385 475L385 465L385 455L375 445L375 435L375 425L375 415L375 405L375 395L375 385L375 375L375 365L375 355L375 345L375 335" stroke="url(&quot;#SvgjsLinearGradient9427&quot;)" stroke-width="1.67"></path><path d="M372.5 335 a2.5 2.5 0 1 0 5 0 a2.5 2.5 0 1 0 -5 0zM382.5 445 a2.5 2.5 0 1 0 5 0 a2.5 2.5 0 1 0 -5 0z" fill="url(&quot;#SvgjsLinearGradient9427&quot;)"></path><path d="M1085 325L1095 315L1095 305L1095 295L1095 285L1095 275M1075 425L1075 415M1085 315L1085 305L1085 295M1085 385L1095 375L1095 365L1095 355L1095 345L1095 335L1095 325M1085 395L1095 385M1085 405L1095 395M1055 575L1055 565L1065 555L1065 545L1065 535L1065 525L1065 515L1065 505L1075 495L1075 485L1075 475L1075 465L1075 455L1075 445L1075 435L1075 425L1085 415L1085 405L1085 395L1085 385L1085 375L1085 365L1085 355L1085 345L1085 335L1085 325L1085 315L1075 305" stroke="url(&quot;#SvgjsLinearGradient9427&quot;)" stroke-width="1.67"></path><path d="M1072.5 305 a2.5 2.5 0 1 0 5 0 a2.5 2.5 0 1 0 -5 0zM1092.5 275 a2.5 2.5 0 1 0 5 0 a2.5 2.5 0 1 0 -5 0zM1072.5 415 a2.5 2.5 0 1 0 5 0 a2.5 2.5 0 1 0 -5 0zM1082.5 295 a2.5 2.5 0 1 0 5 0 a2.5 2.5 0 1 0 -5 0zM1092.5 325 a2.5 2.5 0 1 0 5 0 a2.5 2.5 0 1 0 -5 0zM1092.5 385 a2.5 2.5 0 1 0 5 0 a2.5 2.5 0 1 0 -5 0zM1092.5 395 a2.5 2.5 0 1 0 5 0 a2.5 2.5 0 1 0 -5 0z" fill="url(&quot;#SvgjsLinearGradient9427&quot;)"></path><path d="M375 475L365 465L365 455M375 485L365 475M375 535L365 525M375 505L365 495M365 355L365 345M375 555L365 545L365 535L355 525M385 575L385 565L375 555L375 545L375 535L375 525L375 515L375 505L375 495L375 485L375 475L375 465L375 455L365 445L365 435L365 425L365 415L365 405L365 395L365 385L365 375L365 365L365 355L355 345L355 335" stroke="url(&quot;#SvgjsLinearGradient9427&quot;)" stroke-width="1.67"></path><path d="M352.5 335 a2.5 2.5 0 1 0 5 0 a2.5 2.5 0 1 0 -5 0zM362.5 455 a2.5 2.5 0 1 0 5 0 a2.5 2.5 0 1 0 -5 0zM362.5 475 a2.5 2.5 0 1 0 5 0 a2.5 2.5 0 1 0 -5 0zM362.5 525 a2.5 2.5 0 1 0 5 0 a2.5 2.5 0 1 0 -5 0zM362.5 495 a2.5 2.5 0 1 0 5 0 a2.5 2.5 0 1 0 -5 0zM362.5 345 a2.5 2.5 0 1 0 5 0 a2.5 2.5 0 1 0 -5 0zM352.5 525 a2.5 2.5 0 1 0 5 0 a2.5 2.5 0 1 0 -5 0z" fill="url(&quot;#SvgjsLinearGradient9427&quot;)"></path><path d="M1085 485L1095 475L1095 465L1095 455L1095 445M1105 225L1105 215M1105 255L1095 245L1095 235L1095 225L1085 215L1085 205M1105 295L1115 285L1115 275L1115 265L1115 255L1115 245L1115 235L1125 225L1125 215M1105 265L1095 255M1095 205L1105 195L1105 185L1105 175L1105 165M1085 435L1095 425M1095 415L1095 405M1105 305L1115 295L1125 285L1125 275L1125 265M1095 195L1085 185L1085 175L1085 165L1085 155M1065 575L1065 565L1075 555L1075 545L1075 535L1075 525L1075 515L1075 505L1085 495L1085 485L1085 475L1085 465L1085 455L1085 445L1085 435L1085 425L1095 415L1105 405L1105 395L1105 385L1105 375L1105 365L1105 355L1105 345L1105 335L1105 325L1105 315L1105 305L1105 295L1105 285L1105 275L1105 265L1105 255L1105 245L1105 235L1105 225L1095 215L1095 205L1095 195L1095 185" stroke="url(&quot;#SvgjsLinearGradient9427&quot;)" stroke-width="1.67"></path><path d="M1092.5 185 a2.5 2.5 0 1 0 5 0 a2.5 2.5 0 1 0 -5 0zM1092.5 445 a2.5 2.5 0 1 0 5 0 a2.5 2.5 0 1 0 -5 0zM1102.5 215 a2.5 2.5 0 1 0 5 0 a2.5 2.5 0 1 0 -5 0zM1082.5 205 a2.5 2.5 0 1 0 5 0 a2.5 2.5 0 1 0 -5 0zM1122.5 215 a2.5 2.5 0 1 0 5 0 a2.5 2.5 0 1 0 -5 0zM1092.5 255 a2.5 2.5 0 1 0 5 0 a2.5 2.5 0 1 0 -5 0zM1102.5 165 a2.5 2.5 0 1 0 5 0 a2.5 2.5 0 1 0 -5 0zM1092.5 425 a2.5 2.5 0 1 0 5 0 a2.5 2.5 0 1 0 -5 0zM1092.5 405 a2.5 2.5 0 1 0 5 0 a2.5 2.5 0 1 0 -5 0zM1122.5 265 a2.5 2.5 0 1 0 5 0 a2.5 2.5 0 1 0 -5 0zM1082.5 155 a2.5 2.5 0 1 0 5 0 a2.5 2.5 0 1 0 -5 0z" fill="url(&quot;#SvgjsLinearGradient9427&quot;)"></path><path d="M365 225L355 215M345 305L335 295L335 285L335 275L335 265M345 525L345 515L345 505L345 495L345 485M345 285L345 275L345 265L345 255M345 545L335 535L335 525L335 515L335 505M355 515L365 505M355 245L345 235L345 225L345 215L345 205L345 195M345 325L335 315L335 305M355 475L345 465L345 455M375 575L365 565L355 555L345 545L345 535L345 525L355 515L355 505L355 495L355 485L355 475L355 465L355 455L355 445L355 435L355 425L355 415L355 405L355 395L355 385L355 375L355 365L355 355L345 345L345 335L345 325L345 315L345 305L345 295L345 285L355 275L355 265L355 255L355 245L355 235L365 225L365 215L355 205" stroke="url(&quot;#SvgjsLinearGradient9427&quot;)" stroke-width="1.67"></path><path d="M352.5 205 a2.5 2.5 0 1 0 5 0 a2.5 2.5 0 1 0 -5 0zM352.5 215 a2.5 2.5 0 1 0 5 0 a2.5 2.5 0 1 0 -5 0zM332.5 265 a2.5 2.5 0 1 0 5 0 a2.5 2.5 0 1 0 -5 0zM342.5 485 a2.5 2.5 0 1 0 5 0 a2.5 2.5 0 1 0 -5 0zM342.5 255 a2.5 2.5 0 1 0 5 0 a2.5 2.5 0 1 0 -5 0zM332.5 505 a2.5 2.5 0 1 0 5 0 a2.5 2.5 0 1 0 -5 0zM362.5 505 a2.5 2.5 0 1 0 5 0 a2.5 2.5 0 1 0 -5 0zM342.5 195 a2.5 2.5 0 1 0 5 0 a2.5 2.5 0 1 0 -5 0zM332.5 305 a2.5 2.5 0 1 0 5 0 a2.5 2.5 0 1 0 -5 0zM342.5 455 a2.5 2.5 0 1 0 5 0 a2.5 2.5 0 1 0 -5 0z" fill="url(&quot;#SvgjsLinearGradient9427&quot;)"></path><path d="M1115 355L1125 345L1125 335L1125 325M1115 385L1125 375L1125 365L1125 355M1085 535L1095 525L1095 515L1105 505L1115 495M1085 515L1085 505M1115 395L1125 385L1135 375L1135 365L1135 355M1085 555L1095 545M1075 575L1075 565L1085 555L1085 545L1085 535L1085 525L1085 515L1095 505L1105 495L1105 485L1105 475L1105 465L1105 455L1105 445L1105 435L1105 425L1105 415L1115 405L1115 395L1115 385L1115 375L1115 365L1115 355L1115 345L1115 335" stroke="url(&quot;#SvgjsLinearGradient9427&quot;)" stroke-width="1.67"></path><path d="M1112.5 335 a2.5 2.5 0 1 0 5 0 a2.5 2.5 0 1 0 -5 0zM1122.5 325 a2.5 2.5 0 1 0 5 0 a2.5 2.5 0 1 0 -5 0zM1122.5 355 a2.5 2.5 0 1 0 5 0 a2.5 2.5 0 1 0 -5 0zM1112.5 495 a2.5 2.5 0 1 0 5 0 a2.5 2.5 0 1 0 -5 0zM1082.5 505 a2.5 2.5 0 1 0 5 0 a2.5 2.5 0 1 0 -5 0zM1132.5 355 a2.5 2.5 0 1 0 5 0 a2.5 2.5 0 1 0 -5 0zM1092.5 545 a2.5 2.5 0 1 0 5 0 a2.5 2.5 0 1 0 -5 0z" fill="url(&quot;#SvgjsLinearGradient9427&quot;)"></path></g></g><defs><mask id="SvgjsMask9425"><rect width="1440" height="560" fill="#ffffff"></rect></mask><linearGradient x1="50%" y1="0%" x2="50%" y2="100%" gradientUnits="userSpaceOnUse" id="SvgjsLinearGradient9426"><stop stop-color="rgba(43, 56, 255, 1)" offset="0"></stop><stop stop-color="rgba(0, 0, 0, 1)" offset="1"></stop></linearGradient><linearGradient x1="720" y1="0" x2="720" y2="560" gradientUnits="userSpaceOnUse" id="SvgjsLinearGradient9427"><stop stop-color="rgba(0, 77, 159, 1)" offset="0.4"></stop><stop stop-color="rgba(0, 235, 255, 1)" offset="1"></stop></linearGradient><mask id="SvgjsMask9428"><rect width="1440" height="560" fill="white"></rect><path d="M723.75 495 a1.25 1.25 0 1 0 2.5 0 a1.25 1.25 0 1 0 -2.5 0z" fill="black"></path><path d="M703.75 375 a1.25 1.25 0 1 0 2.5 0 a1.25 1.25 0 1 0 -2.5 0zM703.75 505 a1.25 1.25 0 1 0 2.5 0 a1.25 1.25 0 1 0 -2.5 0zM693.75 375 a1.25 1.25 0 1 0 2.5 0 a1.25 1.25 0 1 0 -2.5 0zM723.75 395 a1.25 1.25 0 1 0 2.5 0 a1.25 1.25 0 1 0 -2.5 0zM703.75 425 a1.25 1.25 0 1 0 2.5 0 a1.25 1.25 0 1 0 -2.5 0zM703.75 485 a1.25 1.25 0 1 0 2.5 0 a1.25 1.25 0 1 0 -2.5 0z" fill="black"></path><path d="M713.75 465 a1.25 1.25 0 1 0 2.5 0 a1.25 1.25 0 1 0 -2.5 0zM753.75 525 a1.25 1.25 0 1 0 2.5 0 a1.25 1.25 0 1 0 -2.5 0zM743.75 485 a1.25 1.25 0 1 0 2.5 0 a1.25 1.25 0 1 0 -2.5 0zM743.75 495 a1.25 1.25 0 1 0 2.5 0 a1.25 1.25 0 1 0 -2.5 0z" fill="black"></path><path d="M703.75 565 a1.25 1.25 0 1 0 2.5 0 a1.25 1.25 0 1 0 -2.5 0z" fill="black"></path><path d="M743.75 555 a1.25 1.25 0 1 0 2.5 0 a1.25 1.25 0 1 0 -2.5 0z" fill="black"></path><path d="M693.75 125 a1.25 1.25 0 1 0 2.5 0 a1.25 1.25 0 1 0 -2.5 0zM683.75 245 a1.25 1.25 0 1 0 2.5 0 a1.25 1.25 0 1 0 -2.5 0zM673.75 325 a1.25 1.25 0 1 0 2.5 0 a1.25 1.25 0 1 0 -2.5 0zM673.75 385 a1.25 1.25 0 1 0 2.5 0 a1.25 1.25 0 1 0 -2.5 0zM703.75 205 a1.25 1.25 0 1 0 2.5 0 a1.25 1.25 0 1 0 -2.5 0zM663.75 165 a1.25 1.25 0 1 0 2.5 0 a1.25 1.25 0 1 0 -2.5 0zM693.75 25 a1.25 1.25 0 1 0 2.5 0 a1.25 1.25 0 1 0 -2.5 0zM713.75 95 a1.25 1.25 0 1 0 2.5 0 a1.25 1.25 0 1 0 -2.5 0zM683.75 275 a1.25 1.25 0 1 0 2.5 0 a1.25 1.25 0 1 0 -2.5 0zM683.75 455 a1.25 1.25 0 1 0 2.5 0 a1.25 1.25 0 1 0 -2.5 0zM703.75 185 a1.25 1.25 0 1 0 2.5 0 a1.25 1.25 0 1 0 -2.5 0zM703.75 545 a1.25 1.25 0 1 0 2.5 0 a1.25 1.25 0 1 0 -2.5 0z" fill="black"></path><path d="M753.75 495 a1.25 1.25 0 1 0 2.5 0 a1.25 1.25 0 1 0 -2.5 0zM763.75 505 a1.25 1.25 0 1 0 2.5 0 a1.25 1.25 0 1 0 -2.5 0z" fill="black"></path><path d="M673.75 55 a1.25 1.25 0 1 0 2.5 0 a1.25 1.25 0 1 0 -2.5 0zM683.75 485 a1.25 1.25 0 1 0 2.5 0 a1.25 1.25 0 1 0 -2.5 0zM643.75 215 a1.25 1.25 0 1 0 2.5 0 a1.25 1.25 0 1 0 -2.5 0zM663.75 25 a1.25 1.25 0 1 0 2.5 0 a1.25 1.25 0 1 0 -2.5 0zM643.75 175 a1.25 1.25 0 1 0 2.5 0 a1.25 1.25 0 1 0 -2.5 0zM683.75 35 a1.25 1.25 0 1 0 2.5 0 a1.25 1.25 0 1 0 -2.5 0zM663.75 445 a1.25 1.25 0 1 0 2.5 0 a1.25 1.25 0 1 0 -2.5 0zM643.75 95 a1.25 1.25 0 1 0 2.5 0 a1.25 1.25 0 1 0 -2.5 0zM643.75 265 a1.25 1.25 0 1 0 2.5 0 a1.25 1.25 0 1 0 -2.5 0zM653.75 85 a1.25 1.25 0 1 0 2.5 0 a1.25 1.25 0 1 0 -2.5 0zM643.75 155 a1.25 1.25 0 1 0 2.5 0 a1.25 1.25 0 1 0 -2.5 0zM673.75 405 a1.25 1.25 0 1 0 2.5 0 a1.25 1.25 0 1 0 -2.5 0zM663.75 205 a1.25 1.25 0 1 0 2.5 0 a1.25 1.25 0 1 0 -2.5 0zM673.75 215 a1.25 1.25 0 1 0 2.5 0 a1.25 1.25 0 1 0 -2.5 0z" fill="black"></path><path d="M743.75 75 a1.25 1.25 0 1 0 2.5 0 a1.25 1.25 0 1 0 -2.5 0zM733.75 175 a1.25 1.25 0 1 0 2.5 0 a1.25 1.25 0 1 0 -2.5 0zM753.75 205 a1.25 1.25 0 1 0 2.5 0 a1.25 1.25 0 1 0 -2.5 0zM763.75 255 a1.25 1.25 0 1 0 2.5 0 a1.25 1.25 0 1 0 -2.5 0zM753.75 325 a1.25 1.25 0 1 0 2.5 0 a1.25 1.25 0 1 0 -2.5 0zM783.75 225 a1.25 1.25 0 1 0 2.5 0 a1.25 1.25 0 1 0 -2.5 0zM763.75 365 a1.25 1.25 0 1 0 2.5 0 a1.25 1.25 0 1 0 -2.5 0zM783.75 285 a1.25 1.25 0 1 0 2.5 0 a1.25 1.25 0 1 0 -2.5 0zM753.75 345 a1.25 1.25 0 1 0 2.5 0 a1.25 1.25 0 1 0 -2.5 0zM753.75 415 a1.25 1.25 0 1 0 2.5 0 a1.25 1.25 0 1 0 -2.5 0zM753.75 175 a1.25 1.25 0 1 0 2.5 0 a1.25 1.25 0 1 0 -2.5 0zM743.75 65 a1.25 1.25 0 1 0 2.5 0 a1.25 1.25 0 1 0 -2.5 0zM763.75 145 a1.25 1.25 0 1 0 2.5 0 a1.25 1.25 0 1 0 -2.5 0z" fill="black"></path><path d="M673.75 505 a1.25 1.25 0 1 0 2.5 0 a1.25 1.25 0 1 0 -2.5 0zM663.75 485 a1.25 1.25 0 1 0 2.5 0 a1.25 1.25 0 1 0 -2.5 0zM663.75 515 a1.25 1.25 0 1 0 2.5 0 a1.25 1.25 0 1 0 -2.5 0z" fill="black"></path><path d="M803.75 245 a1.25 1.25 0 1 0 2.5 0 a1.25 1.25 0 1 0 -2.5 0zM783.75 335 a1.25 1.25 0 1 0 2.5 0 a1.25 1.25 0 1 0 -2.5 0zM783.75 355 a1.25 1.25 0 1 0 2.5 0 a1.25 1.25 0 1 0 -2.5 0zM783.75 365 a1.25 1.25 0 1 0 2.5 0 a1.25 1.25 0 1 0 -2.5 0zM783.75 305 a1.25 1.25 0 1 0 2.5 0 a1.25 1.25 0 1 0 -2.5 0zM783.75 375 a1.25 1.25 0 1 0 2.5 0 a1.25 1.25 0 1 0 -2.5 0zM793.75 245 a1.25 1.25 0 1 0 2.5 0 a1.25 1.25 0 1 0 -2.5 0zM783.75 315 a1.25 1.25 0 1 0 2.5 0 a1.25 1.25 0 1 0 -2.5 0zM793.75 255 a1.25 1.25 0 1 0 2.5 0 a1.25 1.25 0 1 0 -2.5 0z" fill="black"></path><path d="M633.75 245 a1.25 1.25 0 1 0 2.5 0 a1.25 1.25 0 1 0 -2.5 0zM623.75 285 a1.25 1.25 0 1 0 2.5 0 a1.25 1.25 0 1 0 -2.5 0zM623.75 175 a1.25 1.25 0 1 0 2.5 0 a1.25 1.25 0 1 0 -2.5 0zM643.75 405 a1.25 1.25 0 1 0 2.5 0 a1.25 1.25 0 1 0 -2.5 0zM663.75 525 a1.25 1.25 0 1 0 2.5 0 a1.25 1.25 0 1 0 -2.5 0zM643.75 415 a1.25 1.25 0 1 0 2.5 0 a1.25 1.25 0 1 0 -2.5 0zM643.75 425 a1.25 1.25 0 1 0 2.5 0 a1.25 1.25 0 1 0 -2.5 0zM633.75 345 a1.25 1.25 0 1 0 2.5 0 a1.25 1.25 0 1 0 -2.5 0zM643.75 305 a1.25 1.25 0 1 0 2.5 0 a1.25 1.25 0 1 0 -2.5 0z" fill="black"></path><path d="M803.75 195 a1.25 1.25 0 1 0 2.5 0 a1.25 1.25 0 1 0 -2.5 0zM823.75 135 a1.25 1.25 0 1 0 2.5 0 a1.25 1.25 0 1 0 -2.5 0zM783.75 105 a1.25 1.25 0 1 0 2.5 0 a1.25 1.25 0 1 0 -2.5 0zM793.75 225 a1.25 1.25 0 1 0 2.5 0 a1.25 1.25 0 1 0 -2.5 0zM813.75 225 a1.25 1.25 0 1 0 2.5 0 a1.25 1.25 0 1 0 -2.5 0z" fill="black"></path><path d="M633.75 335 a1.25 1.25 0 1 0 2.5 0 a1.25 1.25 0 1 0 -2.5 0zM643.75 445 a1.25 1.25 0 1 0 2.5 0 a1.25 1.25 0 1 0 -2.5 0zM633.75 375 a1.25 1.25 0 1 0 2.5 0 a1.25 1.25 0 1 0 -2.5 0zM623.75 325 a1.25 1.25 0 1 0 2.5 0 a1.25 1.25 0 1 0 -2.5 0zM613.75 305 a1.25 1.25 0 1 0 2.5 0 a1.25 1.25 0 1 0 -2.5 0zM653.75 545 a1.25 1.25 0 1 0 2.5 0 a1.25 1.25 0 1 0 -2.5 0z" fill="black"></path><path d="M823.75 195 a1.25 1.25 0 1 0 2.5 0 a1.25 1.25 0 1 0 -2.5 0zM833.75 155 a1.25 1.25 0 1 0 2.5 0 a1.25 1.25 0 1 0 -2.5 0zM843.75 175 a1.25 1.25 0 1 0 2.5 0 a1.25 1.25 0 1 0 -2.5 0zM813.75 495 a1.25 1.25 0 1 0 2.5 0 a1.25 1.25 0 1 0 -2.5 0zM833.75 215 a1.25 1.25 0 1 0 2.5 0 a1.25 1.25 0 1 0 -2.5 0zM813.75 515 a1.25 1.25 0 1 0 2.5 0 a1.25 1.25 0 1 0 -2.5 0zM813.75 385 a1.25 1.25 0 1 0 2.5 0 a1.25 1.25 0 1 0 -2.5 0zM813.75 395 a1.25 1.25 0 1 0 2.5 0 a1.25 1.25 0 1 0 -2.5 0zM813.75 405 a1.25 1.25 0 1 0 2.5 0 a1.25 1.25 0 1 0 -2.5 0zM813.75 525 a1.25 1.25 0 1 0 2.5 0 a1.25 1.25 0 1 0 -2.5 0z" fill="black"></path><path d="M613.75 385 a1.25 1.25 0 1 0 2.5 0 a1.25 1.25 0 1 0 -2.5 0z" fill="black"></path><path d="M833.75 45 a1.25 1.25 0 1 0 2.5 0 a1.25 1.25 0 1 0 -2.5 0zM803.75 555 a1.25 1.25 0 1 0 2.5 0 a1.25 1.25 0 1 0 -2.5 0zM843.75 35 a1.25 1.25 0 1 0 2.5 0 a1.25 1.25 0 1 0 -2.5 0zM833.75 265 a1.25 1.25 0 1 0 2.5 0 a1.25 1.25 0 1 0 -2.5 0zM833.75 275 a1.25 1.25 0 1 0 2.5 0 a1.25 1.25 0 1 0 -2.5 0zM823.75 445 a1.25 1.25 0 1 0 2.5 0 a1.25 1.25 0 1 0 -2.5 0zM823.75 25 a1.25 1.25 0 1 0 2.5 0 a1.25 1.25 0 1 0 -2.5 0zM813.75 535 a1.25 1.25 0 1 0 2.5 0 a1.25 1.25 0 1 0 -2.5 0zM823.75 85 a1.25 1.25 0 1 0 2.5 0 a1.25 1.25 0 1 0 -2.5 0zM813.75 425 a1.25 1.25 0 1 0 2.5 0 a1.25 1.25 0 1 0 -2.5 0zM853.75 185 a1.25 1.25 0 1 0 2.5 0 a1.25 1.25 0 1 0 -2.5 0zM863.75 55 a1.25 1.25 0 1 0 2.5 0 a1.25 1.25 0 1 0 -2.5 0zM863.75 65 a1.25 1.25 0 1 0 2.5 0 a1.25 1.25 0 1 0 -2.5 0zM843.75 205 a1.25 1.25 0 1 0 2.5 0 a1.25 1.25 0 1 0 -2.5 0z" fill="black"></path><path d="M593.75 25 a1.25 1.25 0 1 0 2.5 0 a1.25 1.25 0 1 0 -2.5 0zM603.75 255 a1.25 1.25 0 1 0 2.5 0 a1.25 1.25 0 1 0 -2.5 0zM613.75 275 a1.25 1.25 0 1 0 2.5 0 a1.25 1.25 0 1 0 -2.5 0zM583.75 85 a1.25 1.25 0 1 0 2.5 0 a1.25 1.25 0 1 0 -2.5 0zM603.75 105 a1.25 1.25 0 1 0 2.5 0 a1.25 1.25 0 1 0 -2.5 0zM603.75 25 a1.25 1.25 0 1 0 2.5 0 a1.25 1.25 0 1 0 -2.5 0zM583.75 25 a1.25 1.25 0 1 0 2.5 0 a1.25 1.25 0 1 0 -2.5 0zM583.75 185 a1.25 1.25 0 1 0 2.5 0 a1.25 1.25 0 1 0 -2.5 0zM613.75 175 a1.25 1.25 0 1 0 2.5 0 a1.25 1.25 0 1 0 -2.5 0zM623.75 205 a1.25 1.25 0 1 0 2.5 0 a1.25 1.25 0 1 0 -2.5 0zM603.75 305 a1.25 1.25 0 1 0 2.5 0 a1.25 1.25 0 1 0 -2.5 0zM603.75 65 a1.25 1.25 0 1 0 2.5 0 a1.25 1.25 0 1 0 -2.5 0zM573.75 35 a1.25 1.25 0 1 0 2.5 0 a1.25 1.25 0 1 0 -2.5 0zM623.75 215 a1.25 1.25 0 1 0 2.5 0 a1.25 1.25 0 1 0 -2.5 0zM583.75 195 a1.25 1.25 0 1 0 2.5 0 a1.25 1.25 0 1 0 -2.5 0z" fill="black"></path><path d="M873.75 35 a1.25 1.25 0 1 0 2.5 0 a1.25 1.25 0 1 0 -2.5 0zM863.75 95 a1.25 1.25 0 1 0 2.5 0 a1.25 1.25 0 1 0 -2.5 0zM863.75 115 a1.25 1.25 0 1 0 2.5 0 a1.25 1.25 0 1 0 -2.5 0zM883.75 25 a1.25 1.25 0 1 0 2.5 0 a1.25 1.25 0 1 0 -2.5 0zM833.75 325 a1.25 1.25 0 1 0 2.5 0 a1.25 1.25 0 1 0 -2.5 0zM843.75 385 a1.25 1.25 0 1 0 2.5 0 a1.25 1.25 0 1 0 -2.5 0zM863.75 225 a1.25 1.25 0 1 0 2.5 0 a1.25 1.25 0 1 0 -2.5 0zM833.75 335 a1.25 1.25 0 1 0 2.5 0 a1.25 1.25 0 1 0 -2.5 0zM843.75 435 a1.25 1.25 0 1 0 2.5 0 a1.25 1.25 0 1 0 -2.5 0zM863.75 235 a1.25 1.25 0 1 0 2.5 0 a1.25 1.25 0 1 0 -2.5 0zM853.75 115 a1.25 1.25 0 1 0 2.5 0 a1.25 1.25 0 1 0 -2.5 0zM863.75 265 a1.25 1.25 0 1 0 2.5 0 a1.25 1.25 0 1 0 -2.5 0zM833.75 485 a1.25 1.25 0 1 0 2.5 0 a1.25 1.25 0 1 0 -2.5 0zM903.75 25 a1.25 1.25 0 1 0 2.5 0 a1.25 1.25 0 1 0 -2.5 0z" fill="black"></path><path d="M583.75 215 a1.25 1.25 0 1 0 2.5 0 a1.25 1.25 0 1 0 -2.5 0zM583.75 345 a1.25 1.25 0 1 0 2.5 0 a1.25 1.25 0 1 0 -2.5 0z" fill="black"></path><path d="M853.75 325 a1.25 1.25 0 1 0 2.5 0 a1.25 1.25 0 1 0 -2.5 0zM863.75 345 a1.25 1.25 0 1 0 2.5 0 a1.25 1.25 0 1 0 -2.5 0zM853.75 525 a1.25 1.25 0 1 0 2.5 0 a1.25 1.25 0 1 0 -2.5 0zM863.75 425 a1.25 1.25 0 1 0 2.5 0 a1.25 1.25 0 1 0 -2.5 0zM853.75 395 a1.25 1.25 0 1 0 2.5 0 a1.25 1.25 0 1 0 -2.5 0zM863.75 485 a1.25 1.25 0 1 0 2.5 0 a1.25 1.25 0 1 0 -2.5 0zM863.75 495 a1.25 1.25 0 1 0 2.5 0 a1.25 1.25 0 1 0 -2.5 0z" fill="black"></path><path d="M883.75 185 a1.25 1.25 0 1 0 2.5 0 a1.25 1.25 0 1 0 -2.5 0zM893.75 215 a1.25 1.25 0 1 0 2.5 0 a1.25 1.25 0 1 0 -2.5 0zM873.75 235 a1.25 1.25 0 1 0 2.5 0 a1.25 1.25 0 1 0 -2.5 0zM893.75 325 a1.25 1.25 0 1 0 2.5 0 a1.25 1.25 0 1 0 -2.5 0zM873.75 205 a1.25 1.25 0 1 0 2.5 0 a1.25 1.25 0 1 0 -2.5 0zM893.75 185 a1.25 1.25 0 1 0 2.5 0 a1.25 1.25 0 1 0 -2.5 0zM873.75 425 a1.25 1.25 0 1 0 2.5 0 a1.25 1.25 0 1 0 -2.5 0zM863.75 505 a1.25 1.25 0 1 0 2.5 0 a1.25 1.25 0 1 0 -2.5 0zM873.75 435 a1.25 1.25 0 1 0 2.5 0 a1.25 1.25 0 1 0 -2.5 0zM873.75 305 a1.25 1.25 0 1 0 2.5 0 a1.25 1.25 0 1 0 -2.5 0zM893.75 345 a1.25 1.25 0 1 0 2.5 0 a1.25 1.25 0 1 0 -2.5 0z" fill="black"></path><path d="M583.75 145 a1.25 1.25 0 1 0 2.5 0 a1.25 1.25 0 1 0 -2.5 0zM583.75 445 a1.25 1.25 0 1 0 2.5 0 a1.25 1.25 0 1 0 -2.5 0zM573.75 395 a1.25 1.25 0 1 0 2.5 0 a1.25 1.25 0 1 0 -2.5 0zM573.75 415 a1.25 1.25 0 1 0 2.5 0 a1.25 1.25 0 1 0 -2.5 0zM583.75 355 a1.25 1.25 0 1 0 2.5 0 a1.25 1.25 0 1 0 -2.5 0zM603.75 455 a1.25 1.25 0 1 0 2.5 0 a1.25 1.25 0 1 0 -2.5 0zM563.75 225 a1.25 1.25 0 1 0 2.5 0 a1.25 1.25 0 1 0 -2.5 0zM563.75 155 a1.25 1.25 0 1 0 2.5 0 a1.25 1.25 0 1 0 -2.5 0zM553.75 185 a1.25 1.25 0 1 0 2.5 0 a1.25 1.25 0 1 0 -2.5 0zM573.75 55 a1.25 1.25 0 1 0 2.5 0 a1.25 1.25 0 1 0 -2.5 0zM573.75 175 a1.25 1.25 0 1 0 2.5 0 a1.25 1.25 0 1 0 -2.5 0zM573.75 365 a1.25 1.25 0 1 0 2.5 0 a1.25 1.25 0 1 0 -2.5 0z" fill="black"></path><path d="M903.75 125 a1.25 1.25 0 1 0 2.5 0 a1.25 1.25 0 1 0 -2.5 0zM893.75 125 a1.25 1.25 0 1 0 2.5 0 a1.25 1.25 0 1 0 -2.5 0zM913.75 225 a1.25 1.25 0 1 0 2.5 0 a1.25 1.25 0 1 0 -2.5 0zM933.75 135 a1.25 1.25 0 1 0 2.5 0 a1.25 1.25 0 1 0 -2.5 0zM903.75 65 a1.25 1.25 0 1 0 2.5 0 a1.25 1.25 0 1 0 -2.5 0zM913.75 245 a1.25 1.25 0 1 0 2.5 0 a1.25 1.25 0 1 0 -2.5 0zM903.75 175 a1.25 1.25 0 1 0 2.5 0 a1.25 1.25 0 1 0 -2.5 0zM933.75 165 a1.25 1.25 0 1 0 2.5 0 a1.25 1.25 0 1 0 -2.5 0zM893.75 145 a1.25 1.25 0 1 0 2.5 0 a1.25 1.25 0 1 0 -2.5 0zM883.75 405 a1.25 1.25 0 1 0 2.5 0 a1.25 1.25 0 1 0 -2.5 0zM893.75 355 a1.25 1.25 0 1 0 2.5 0 a1.25 1.25 0 1 0 -2.5 0z" fill="black"></path><path d="M553.75 235 a1.25 1.25 0 1 0 2.5 0 a1.25 1.25 0 1 0 -2.5 0zM593.75 515 a1.25 1.25 0 1 0 2.5 0 a1.25 1.25 0 1 0 -2.5 0zM583.75 525 a1.25 1.25 0 1 0 2.5 0 a1.25 1.25 0 1 0 -2.5 0zM573.75 425 a1.25 1.25 0 1 0 2.5 0 a1.25 1.25 0 1 0 -2.5 0zM563.75 265 a1.25 1.25 0 1 0 2.5 0 a1.25 1.25 0 1 0 -2.5 0zM573.75 435 a1.25 1.25 0 1 0 2.5 0 a1.25 1.25 0 1 0 -2.5 0zM563.75 275 a1.25 1.25 0 1 0 2.5 0 a1.25 1.25 0 1 0 -2.5 0zM583.75 465 a1.25 1.25 0 1 0 2.5 0 a1.25 1.25 0 1 0 -2.5 0zM583.75 555 a1.25 1.25 0 1 0 2.5 0 a1.25 1.25 0 1 0 -2.5 0z" fill="black"></path><path d="M923.75 225 a1.25 1.25 0 1 0 2.5 0 a1.25 1.25 0 1 0 -2.5 0zM933.75 205 a1.25 1.25 0 1 0 2.5 0 a1.25 1.25 0 1 0 -2.5 0zM913.75 365 a1.25 1.25 0 1 0 2.5 0 a1.25 1.25 0 1 0 -2.5 0zM933.75 245 a1.25 1.25 0 1 0 2.5 0 a1.25 1.25 0 1 0 -2.5 0zM933.75 255 a1.25 1.25 0 1 0 2.5 0 a1.25 1.25 0 1 0 -2.5 0zM913.75 275 a1.25 1.25 0 1 0 2.5 0 a1.25 1.25 0 1 0 -2.5 0zM913.75 385 a1.25 1.25 0 1 0 2.5 0 a1.25 1.25 0 1 0 -2.5 0zM913.75 405 a1.25 1.25 0 1 0 2.5 0 a1.25 1.25 0 1 0 -2.5 0zM893.75 445 a1.25 1.25 0 1 0 2.5 0 a1.25 1.25 0 1 0 -2.5 0z" fill="black"></path><path d="M553.75 125 a1.25 1.25 0 1 0 2.5 0 a1.25 1.25 0 1 0 -2.5 0zM523.75 205 a1.25 1.25 0 1 0 2.5 0 a1.25 1.25 0 1 0 -2.5 0zM553.75 445 a1.25 1.25 0 1 0 2.5 0 a1.25 1.25 0 1 0 -2.5 0zM533.75 165 a1.25 1.25 0 1 0 2.5 0 a1.25 1.25 0 1 0 -2.5 0zM553.75 105 a1.25 1.25 0 1 0 2.5 0 a1.25 1.25 0 1 0 -2.5 0zM563.75 485 a1.25 1.25 0 1 0 2.5 0 a1.25 1.25 0 1 0 -2.5 0zM573.75 535 a1.25 1.25 0 1 0 2.5 0 a1.25 1.25 0 1 0 -2.5 0zM513.75 215 a1.25 1.25 0 1 0 2.5 0 a1.25 1.25 0 1 0 -2.5 0zM553.75 475 a1.25 1.25 0 1 0 2.5 0 a1.25 1.25 0 1 0 -2.5 0zM523.75 75 a1.25 1.25 0 1 0 2.5 0 a1.25 1.25 0 1 0 -2.5 0zM553.75 195 a1.25 1.25 0 1 0 2.5 0 a1.25 1.25 0 1 0 -2.5 0zM553.75 205 a1.25 1.25 0 1 0 2.5 0 a1.25 1.25 0 1 0 -2.5 0z" fill="black"></path><path d="M913.75 435 a1.25 1.25 0 1 0 2.5 0 a1.25 1.25 0 1 0 -2.5 0z" fill="black"></path><path d="M943.75 245 a1.25 1.25 0 1 0 2.5 0 a1.25 1.25 0 1 0 -2.5 0z" fill="black"></path><path d="M553.75 535 a1.25 1.25 0 1 0 2.5 0 a1.25 1.25 0 1 0 -2.5 0zM553.75 555 a1.25 1.25 0 1 0 2.5 0 a1.25 1.25 0 1 0 -2.5 0z" fill="black"></path><path d="M953.75 165 a1.25 1.25 0 1 0 2.5 0 a1.25 1.25 0 1 0 -2.5 0zM943.75 215 a1.25 1.25 0 1 0 2.5 0 a1.25 1.25 0 1 0 -2.5 0zM943.75 415 a1.25 1.25 0 1 0 2.5 0 a1.25 1.25 0 1 0 -2.5 0zM943.75 105 a1.25 1.25 0 1 0 2.5 0 a1.25 1.25 0 1 0 -2.5 0zM943.75 445 a1.25 1.25 0 1 0 2.5 0 a1.25 1.25 0 1 0 -2.5 0zM943.75 175 a1.25 1.25 0 1 0 2.5 0 a1.25 1.25 0 1 0 -2.5 0zM943.75 385 a1.25 1.25 0 1 0 2.5 0 a1.25 1.25 0 1 0 -2.5 0zM933.75 475 a1.25 1.25 0 1 0 2.5 0 a1.25 1.25 0 1 0 -2.5 0zM943.75 225 a1.25 1.25 0 1 0 2.5 0 a1.25 1.25 0 1 0 -2.5 0z" fill="black"></path><path d="M543.75 355 a1.25 1.25 0 1 0 2.5 0 a1.25 1.25 0 1 0 -2.5 0zM533.75 375 a1.25 1.25 0 1 0 2.5 0 a1.25 1.25 0 1 0 -2.5 0zM553.75 515 a1.25 1.25 0 1 0 2.5 0 a1.25 1.25 0 1 0 -2.5 0zM533.75 395 a1.25 1.25 0 1 0 2.5 0 a1.25 1.25 0 1 0 -2.5 0zM533.75 355 a1.25 1.25 0 1 0 2.5 0 a1.25 1.25 0 1 0 -2.5 0zM533.75 405 a1.25 1.25 0 1 0 2.5 0 a1.25 1.25 0 1 0 -2.5 0z" fill="black"></path><path d="M943.75 465 a1.25 1.25 0 1 0 2.5 0 a1.25 1.25 0 1 0 -2.5 0z" fill="black"></path><path d="M963.75 75 a1.25 1.25 0 1 0 2.5 0 a1.25 1.25 0 1 0 -2.5 0zM983.75 95 a1.25 1.25 0 1 0 2.5 0 a1.25 1.25 0 1 0 -2.5 0zM953.75 85 a1.25 1.25 0 1 0 2.5 0 a1.25 1.25 0 1 0 -2.5 0zM953.75 325 a1.25 1.25 0 1 0 2.5 0 a1.25 1.25 0 1 0 -2.5 0zM953.75 285 a1.25 1.25 0 1 0 2.5 0 a1.25 1.25 0 1 0 -2.5 0zM973.75 25 a1.25 1.25 0 1 0 2.5 0 a1.25 1.25 0 1 0 -2.5 0zM983.75 225 a1.25 1.25 0 1 0 2.5 0 a1.25 1.25 0 1 0 -2.5 0zM953.75 135 a1.25 1.25 0 1 0 2.5 0 a1.25 1.25 0 1 0 -2.5 0zM983.75 25 a1.25 1.25 0 1 0 2.5 0 a1.25 1.25 0 1 0 -2.5 0zM963.75 475 a1.25 1.25 0 1 0 2.5 0 a1.25 1.25 0 1 0 -2.5 0zM993.75 175 a1.25 1.25 0 1 0 2.5 0 a1.25 1.25 0 1 0 -2.5 0zM963.75 335 a1.25 1.25 0 1 0 2.5 0 a1.25 1.25 0 1 0 -2.5 0z" fill="black"></path><path d="M533.75 325 a1.25 1.25 0 1 0 2.5 0 a1.25 1.25 0 1 0 -2.5 0zM523.75 315 a1.25 1.25 0 1 0 2.5 0 a1.25 1.25 0 1 0 -2.5 0zM523.75 345 a1.25 1.25 0 1 0 2.5 0 a1.25 1.25 0 1 0 -2.5 0zM533.75 415 a1.25 1.25 0 1 0 2.5 0 a1.25 1.25 0 1 0 -2.5 0zM533.75 435 a1.25 1.25 0 1 0 2.5 0 a1.25 1.25 0 1 0 -2.5 0z" fill="black"></path><path d="M953.75 505 a1.25 1.25 0 1 0 2.5 0 a1.25 1.25 0 1 0 -2.5 0zM943.75 515 a1.25 1.25 0 1 0 2.5 0 a1.25 1.25 0 1 0 -2.5 0z" fill="black"></path><path d="M513.75 295 a1.25 1.25 0 1 0 2.5 0 a1.25 1.25 0 1 0 -2.5 0zM493.75 255 a1.25 1.25 0 1 0 2.5 0 a1.25 1.25 0 1 0 -2.5 0zM503.75 325 a1.25 1.25 0 1 0 2.5 0 a1.25 1.25 0 1 0 -2.5 0zM493.75 355 a1.25 1.25 0 1 0 2.5 0 a1.25 1.25 0 1 0 -2.5 0zM503.75 405 a1.25 1.25 0 1 0 2.5 0 a1.25 1.25 0 1 0 -2.5 0zM503.75 335 a1.25 1.25 0 1 0 2.5 0 a1.25 1.25 0 1 0 -2.5 0zM513.75 265 a1.25 1.25 0 1 0 2.5 0 a1.25 1.25 0 1 0 -2.5 0z" fill="black"></path><path d="M943.75 545 a1.25 1.25 0 1 0 2.5 0 a1.25 1.25 0 1 0 -2.5 0z" fill="black"></path><path d="M513.75 445 a1.25 1.25 0 1 0 2.5 0 a1.25 1.25 0 1 0 -2.5 0zM503.75 435 a1.25 1.25 0 1 0 2.5 0 a1.25 1.25 0 1 0 -2.5 0zM503.75 455 a1.25 1.25 0 1 0 2.5 0 a1.25 1.25 0 1 0 -2.5 0zM503.75 475 a1.25 1.25 0 1 0 2.5 0 a1.25 1.25 0 1 0 -2.5 0z" fill="black"></path><path d="M963.75 385 a1.25 1.25 0 1 0 2.5 0 a1.25 1.25 0 1 0 -2.5 0zM973.75 425 a1.25 1.25 0 1 0 2.5 0 a1.25 1.25 0 1 0 -2.5 0zM983.75 375 a1.25 1.25 0 1 0 2.5 0 a1.25 1.25 0 1 0 -2.5 0zM973.75 445 a1.25 1.25 0 1 0 2.5 0 a1.25 1.25 0 1 0 -2.5 0zM973.75 455 a1.25 1.25 0 1 0 2.5 0 a1.25 1.25 0 1 0 -2.5 0zM963.75 485 a1.25 1.25 0 1 0 2.5 0 a1.25 1.25 0 1 0 -2.5 0z" fill="black"></path><path d="M483.75 285 a1.25 1.25 0 1 0 2.5 0 a1.25 1.25 0 1 0 -2.5 0zM493.75 375 a1.25 1.25 0 1 0 2.5 0 a1.25 1.25 0 1 0 -2.5 0zM473.75 335 a1.25 1.25 0 1 0 2.5 0 a1.25 1.25 0 1 0 -2.5 0zM473.75 355 a1.25 1.25 0 1 0 2.5 0 a1.25 1.25 0 1 0 -2.5 0zM483.75 205 a1.25 1.25 0 1 0 2.5 0 a1.25 1.25 0 1 0 -2.5 0zM493.75 515 a1.25 1.25 0 1 0 2.5 0 a1.25 1.25 0 1 0 -2.5 0zM473.75 295 a1.25 1.25 0 1 0 2.5 0 a1.25 1.25 0 1 0 -2.5 0zM473.75 375 a1.25 1.25 0 1 0 2.5 0 a1.25 1.25 0 1 0 -2.5 0z" fill="black"></path><path d="M983.75 445 a1.25 1.25 0 1 0 2.5 0 a1.25 1.25 0 1 0 -2.5 0z" fill="black"></path><path d="M463.75 335 a1.25 1.25 0 1 0 2.5 0 a1.25 1.25 0 1 0 -2.5 0zM493.75 495 a1.25 1.25 0 1 0 2.5 0 a1.25 1.25 0 1 0 -2.5 0zM473.75 385 a1.25 1.25 0 1 0 2.5 0 a1.25 1.25 0 1 0 -2.5 0z" fill="black"></path><path d="M1003.75 375 a1.25 1.25 0 1 0 2.5 0 a1.25 1.25 0 1 0 -2.5 0zM993.75 325 a1.25 1.25 0 1 0 2.5 0 a1.25 1.25 0 1 0 -2.5 0zM993.75 395 a1.25 1.25 0 1 0 2.5 0 a1.25 1.25 0 1 0 -2.5 0z" fill="black"></path><path d="M463.75 135 a1.25 1.25 0 1 0 2.5 0 a1.25 1.25 0 1 0 -2.5 0zM453.75 265 a1.25 1.25 0 1 0 2.5 0 a1.25 1.25 0 1 0 -2.5 0zM443.75 125 a1.25 1.25 0 1 0 2.5 0 a1.25 1.25 0 1 0 -2.5 0zM473.75 185 a1.25 1.25 0 1 0 2.5 0 a1.25 1.25 0 1 0 -2.5 0zM453.75 395 a1.25 1.25 0 1 0 2.5 0 a1.25 1.25 0 1 0 -2.5 0zM473.75 115 a1.25 1.25 0 1 0 2.5 0 a1.25 1.25 0 1 0 -2.5 0zM463.75 55 a1.25 1.25 0 1 0 2.5 0 a1.25 1.25 0 1 0 -2.5 0zM463.75 305 a1.25 1.25 0 1 0 2.5 0 a1.25 1.25 0 1 0 -2.5 0zM473.75 205 a1.25 1.25 0 1 0 2.5 0 a1.25 1.25 0 1 0 -2.5 0z" fill="black"></path><path d="M993.75 65 a1.25 1.25 0 1 0 2.5 0 a1.25 1.25 0 1 0 -2.5 0zM1023.75 205 a1.25 1.25 0 1 0 2.5 0 a1.25 1.25 0 1 0 -2.5 0zM1013.75 245 a1.25 1.25 0 1 0 2.5 0 a1.25 1.25 0 1 0 -2.5 0zM1003.75 105 a1.25 1.25 0 1 0 2.5 0 a1.25 1.25 0 1 0 -2.5 0zM993.75 25 a1.25 1.25 0 1 0 2.5 0 a1.25 1.25 0 1 0 -2.5 0zM1013.75 275 a1.25 1.25 0 1 0 2.5 0 a1.25 1.25 0 1 0 -2.5 0zM983.75 135 a1.25 1.25 0 1 0 2.5 0 a1.25 1.25 0 1 0 -2.5 0zM1023.75 215 a1.25 1.25 0 1 0 2.5 0 a1.25 1.25 0 1 0 -2.5 0zM1003.75 335 a1.25 1.25 0 1 0 2.5 0 a1.25 1.25 0 1 0 -2.5 0zM1003.75 115 a1.25 1.25 0 1 0 2.5 0 a1.25 1.25 0 1 0 -2.5 0zM1013.75 165 a1.25 1.25 0 1 0 2.5 0 a1.25 1.25 0 1 0 -2.5 0zM1023.75 225 a1.25 1.25 0 1 0 2.5 0 a1.25 1.25 0 1 0 -2.5 0zM1003.75 265 a1.25 1.25 0 1 0 2.5 0 a1.25 1.25 0 1 0 -2.5 0zM1003.75 245 a1.25 1.25 0 1 0 2.5 0 a1.25 1.25 0 1 0 -2.5 0z" fill="black"></path><path d="M433.75 135 a1.25 1.25 0 1 0 2.5 0 a1.25 1.25 0 1 0 -2.5 0zM443.75 175 a1.25 1.25 0 1 0 2.5 0 a1.25 1.25 0 1 0 -2.5 0zM453.75 405 a1.25 1.25 0 1 0 2.5 0 a1.25 1.25 0 1 0 -2.5 0zM443.75 215 a1.25 1.25 0 1 0 2.5 0 a1.25 1.25 0 1 0 -2.5 0zM453.75 425 a1.25 1.25 0 1 0 2.5 0 a1.25 1.25 0 1 0 -2.5 0zM443.75 155 a1.25 1.25 0 1 0 2.5 0 a1.25 1.25 0 1 0 -2.5 0zM453.75 455 a1.25 1.25 0 1 0 2.5 0 a1.25 1.25 0 1 0 -2.5 0z" fill="black"></path><path d="M1043.75 125 a1.25 1.25 0 1 0 2.5 0 a1.25 1.25 0 1 0 -2.5 0zM1053.75 175 a1.25 1.25 0 1 0 2.5 0 a1.25 1.25 0 1 0 -2.5 0zM1033.75 105 a1.25 1.25 0 1 0 2.5 0 a1.25 1.25 0 1 0 -2.5 0zM1073.75 55 a1.25 1.25 0 1 0 2.5 0 a1.25 1.25 0 1 0 -2.5 0zM1043.75 235 a1.25 1.25 0 1 0 2.5 0 a1.25 1.25 0 1 0 -2.5 0zM1023.75 345 a1.25 1.25 0 1 0 2.5 0 a1.25 1.25 0 1 0 -2.5 0zM1023.75 365 a1.25 1.25 0 1 0 2.5 0 a1.25 1.25 0 1 0 -2.5 0zM1023.75 375 a1.25 1.25 0 1 0 2.5 0 a1.25 1.25 0 1 0 -2.5 0zM1003.75 495 a1.25 1.25 0 1 0 2.5 0 a1.25 1.25 0 1 0 -2.5 0zM1023.75 145 a1.25 1.25 0 1 0 2.5 0 a1.25 1.25 0 1 0 -2.5 0zM1043.75 245 a1.25 1.25 0 1 0 2.5 0 a1.25 1.25 0 1 0 -2.5 0zM1023.75 385 a1.25 1.25 0 1 0 2.5 0 a1.25 1.25 0 1 0 -2.5 0z" fill="black"></path><path d="M413.75 95 a1.25 1.25 0 1 0 2.5 0 a1.25 1.25 0 1 0 -2.5 0zM403.75 25 a1.25 1.25 0 1 0 2.5 0 a1.25 1.25 0 1 0 -2.5 0zM393.75 135 a1.25 1.25 0 1 0 2.5 0 a1.25 1.25 0 1 0 -2.5 0zM423.75 75 a1.25 1.25 0 1 0 2.5 0 a1.25 1.25 0 1 0 -2.5 0zM433.75 35 a1.25 1.25 0 1 0 2.5 0 a1.25 1.25 0 1 0 -2.5 0zM453.75 465 a1.25 1.25 0 1 0 2.5 0 a1.25 1.25 0 1 0 -2.5 0z" fill="black"></path><path d="M1033.75 415 a1.25 1.25 0 1 0 2.5 0 a1.25 1.25 0 1 0 -2.5 0z" fill="black"></path><path d="M413.75 185 a1.25 1.25 0 1 0 2.5 0 a1.25 1.25 0 1 0 -2.5 0zM423.75 415 a1.25 1.25 0 1 0 2.5 0 a1.25 1.25 0 1 0 -2.5 0zM393.75 145 a1.25 1.25 0 1 0 2.5 0 a1.25 1.25 0 1 0 -2.5 0zM393.75 185 a1.25 1.25 0 1 0 2.5 0 a1.25 1.25 0 1 0 -2.5 0z" fill="black"></path><path d="M1043.75 365 a1.25 1.25 0 1 0 2.5 0 a1.25 1.25 0 1 0 -2.5 0zM1033.75 395 a1.25 1.25 0 1 0 2.5 0 a1.25 1.25 0 1 0 -2.5 0z" fill="black"></path><path d="M443.75 535 a1.25 1.25 0 1 0 2.5 0 a1.25 1.25 0 1 0 -2.5 0z" fill="black"></path><path d="M1053.75 295 a1.25 1.25 0 1 0 2.5 0 a1.25 1.25 0 1 0 -2.5 0zM1053.75 425 a1.25 1.25 0 1 0 2.5 0 a1.25 1.25 0 1 0 -2.5 0z" fill="black"></path><path d="M423.75 465 a1.25 1.25 0 1 0 2.5 0 a1.25 1.25 0 1 0 -2.5 0zM423.75 485 a1.25 1.25 0 1 0 2.5 0 a1.25 1.25 0 1 0 -2.5 0zM423.75 505 a1.25 1.25 0 1 0 2.5 0 a1.25 1.25 0 1 0 -2.5 0zM423.75 515 a1.25 1.25 0 1 0 2.5 0 a1.25 1.25 0 1 0 -2.5 0z" fill="black"></path><path d="M1073.75 285 a1.25 1.25 0 1 0 2.5 0 a1.25 1.25 0 1 0 -2.5 0zM1073.75 335 a1.25 1.25 0 1 0 2.5 0 a1.25 1.25 0 1 0 -2.5 0zM1073.75 395 a1.25 1.25 0 1 0 2.5 0 a1.25 1.25 0 1 0 -2.5 0zM1073.75 315 a1.25 1.25 0 1 0 2.5 0 a1.25 1.25 0 1 0 -2.5 0zM1073.75 345 a1.25 1.25 0 1 0 2.5 0 a1.25 1.25 0 1 0 -2.5 0zM1083.75 265 a1.25 1.25 0 1 0 2.5 0 a1.25 1.25 0 1 0 -2.5 0zM1073.75 375 a1.25 1.25 0 1 0 2.5 0 a1.25 1.25 0 1 0 -2.5 0zM1063.75 295 a1.25 1.25 0 1 0 2.5 0 a1.25 1.25 0 1 0 -2.5 0z" fill="black"></path><path d="M413.75 255 a1.25 1.25 0 1 0 2.5 0 a1.25 1.25 0 1 0 -2.5 0zM403.75 315 a1.25 1.25 0 1 0 2.5 0 a1.25 1.25 0 1 0 -2.5 0zM403.75 345 a1.25 1.25 0 1 0 2.5 0 a1.25 1.25 0 1 0 -2.5 0zM403.75 355 a1.25 1.25 0 1 0 2.5 0 a1.25 1.25 0 1 0 -2.5 0zM403.75 365 a1.25 1.25 0 1 0 2.5 0 a1.25 1.25 0 1 0 -2.5 0zM383.75 175 a1.25 1.25 0 1 0 2.5 0 a1.25 1.25 0 1 0 -2.5 0zM423.75 555 a1.25 1.25 0 1 0 2.5 0 a1.25 1.25 0 1 0 -2.5 0zM403.75 295 a1.25 1.25 0 1 0 2.5 0 a1.25 1.25 0 1 0 -2.5 0zM403.75 385 a1.25 1.25 0 1 0 2.5 0 a1.25 1.25 0 1 0 -2.5 0z" fill="black"></path><path d="M1033.75 555 a1.25 1.25 0 1 0 2.5 0 a1.25 1.25 0 1 0 -2.5 0z" fill="black"></path><path d="M393.75 255 a1.25 1.25 0 1 0 2.5 0 a1.25 1.25 0 1 0 -2.5 0zM383.75 265 a1.25 1.25 0 1 0 2.5 0 a1.25 1.25 0 1 0 -2.5 0zM403.75 395 a1.25 1.25 0 1 0 2.5 0 a1.25 1.25 0 1 0 -2.5 0z" fill="black"></path><path d="M1043.75 555 a1.25 1.25 0 1 0 2.5 0 a1.25 1.25 0 1 0 -2.5 0z" fill="black"></path><path d="M373.75 185 a1.25 1.25 0 1 0 2.5 0 a1.25 1.25 0 1 0 -2.5 0zM383.75 215 a1.25 1.25 0 1 0 2.5 0 a1.25 1.25 0 1 0 -2.5 0zM383.75 405 a1.25 1.25 0 1 0 2.5 0 a1.25 1.25 0 1 0 -2.5 0zM383.75 435 a1.25 1.25 0 1 0 2.5 0 a1.25 1.25 0 1 0 -2.5 0zM363.75 155 a1.25 1.25 0 1 0 2.5 0 a1.25 1.25 0 1 0 -2.5 0zM363.75 275 a1.25 1.25 0 1 0 2.5 0 a1.25 1.25 0 1 0 -2.5 0zM363.75 285 a1.25 1.25 0 1 0 2.5 0 a1.25 1.25 0 1 0 -2.5 0zM363.75 235 a1.25 1.25 0 1 0 2.5 0 a1.25 1.25 0 1 0 -2.5 0zM383.75 285 a1.25 1.25 0 1 0 2.5 0 a1.25 1.25 0 1 0 -2.5 0zM383.75 235 a1.25 1.25 0 1 0 2.5 0 a1.25 1.25 0 1 0 -2.5 0zM353.75 285 a1.25 1.25 0 1 0 2.5 0 a1.25 1.25 0 1 0 -2.5 0z" fill="black"></path><path d="M1063.75 475 a1.25 1.25 0 1 0 2.5 0 a1.25 1.25 0 1 0 -2.5 0zM1043.75 535 a1.25 1.25 0 1 0 2.5 0 a1.25 1.25 0 1 0 -2.5 0z" fill="black"></path><path d="M373.75 335 a1.25 1.25 0 1 0 2.5 0 a1.25 1.25 0 1 0 -2.5 0zM383.75 445 a1.25 1.25 0 1 0 2.5 0 a1.25 1.25 0 1 0 -2.5 0z" fill="black"></path><path d="M1073.75 305 a1.25 1.25 0 1 0 2.5 0 a1.25 1.25 0 1 0 -2.5 0zM1093.75 275 a1.25 1.25 0 1 0 2.5 0 a1.25 1.25 0 1 0 -2.5 0zM1073.75 415 a1.25 1.25 0 1 0 2.5 0 a1.25 1.25 0 1 0 -2.5 0zM1083.75 295 a1.25 1.25 0 1 0 2.5 0 a1.25 1.25 0 1 0 -2.5 0zM1093.75 325 a1.25 1.25 0 1 0 2.5 0 a1.25 1.25 0 1 0 -2.5 0zM1093.75 385 a1.25 1.25 0 1 0 2.5 0 a1.25 1.25 0 1 0 -2.5 0zM1093.75 395 a1.25 1.25 0 1 0 2.5 0 a1.25 1.25 0 1 0 -2.5 0z" fill="black"></path><path d="M353.75 335 a1.25 1.25 0 1 0 2.5 0 a1.25 1.25 0 1 0 -2.5 0zM363.75 455 a1.25 1.25 0 1 0 2.5 0 a1.25 1.25 0 1 0 -2.5 0zM363.75 475 a1.25 1.25 0 1 0 2.5 0 a1.25 1.25 0 1 0 -2.5 0zM363.75 525 a1.25 1.25 0 1 0 2.5 0 a1.25 1.25 0 1 0 -2.5 0zM363.75 495 a1.25 1.25 0 1 0 2.5 0 a1.25 1.25 0 1 0 -2.5 0zM363.75 345 a1.25 1.25 0 1 0 2.5 0 a1.25 1.25 0 1 0 -2.5 0zM353.75 525 a1.25 1.25 0 1 0 2.5 0 a1.25 1.25 0 1 0 -2.5 0z" fill="black"></path><path d="M1093.75 185 a1.25 1.25 0 1 0 2.5 0 a1.25 1.25 0 1 0 -2.5 0zM1093.75 445 a1.25 1.25 0 1 0 2.5 0 a1.25 1.25 0 1 0 -2.5 0zM1103.75 215 a1.25 1.25 0 1 0 2.5 0 a1.25 1.25 0 1 0 -2.5 0zM1083.75 205 a1.25 1.25 0 1 0 2.5 0 a1.25 1.25 0 1 0 -2.5 0zM1123.75 215 a1.25 1.25 0 1 0 2.5 0 a1.25 1.25 0 1 0 -2.5 0zM1093.75 255 a1.25 1.25 0 1 0 2.5 0 a1.25 1.25 0 1 0 -2.5 0zM1103.75 165 a1.25 1.25 0 1 0 2.5 0 a1.25 1.25 0 1 0 -2.5 0zM1093.75 425 a1.25 1.25 0 1 0 2.5 0 a1.25 1.25 0 1 0 -2.5 0zM1093.75 405 a1.25 1.25 0 1 0 2.5 0 a1.25 1.25 0 1 0 -2.5 0zM1123.75 265 a1.25 1.25 0 1 0 2.5 0 a1.25 1.25 0 1 0 -2.5 0zM1083.75 155 a1.25 1.25 0 1 0 2.5 0 a1.25 1.25 0 1 0 -2.5 0z" fill="black"></path><path d="M353.75 205 a1.25 1.25 0 1 0 2.5 0 a1.25 1.25 0 1 0 -2.5 0zM353.75 215 a1.25 1.25 0 1 0 2.5 0 a1.25 1.25 0 1 0 -2.5 0zM333.75 265 a1.25 1.25 0 1 0 2.5 0 a1.25 1.25 0 1 0 -2.5 0zM343.75 485 a1.25 1.25 0 1 0 2.5 0 a1.25 1.25 0 1 0 -2.5 0zM343.75 255 a1.25 1.25 0 1 0 2.5 0 a1.25 1.25 0 1 0 -2.5 0zM333.75 505 a1.25 1.25 0 1 0 2.5 0 a1.25 1.25 0 1 0 -2.5 0zM363.75 505 a1.25 1.25 0 1 0 2.5 0 a1.25 1.25 0 1 0 -2.5 0zM343.75 195 a1.25 1.25 0 1 0 2.5 0 a1.25 1.25 0 1 0 -2.5 0zM333.75 305 a1.25 1.25 0 1 0 2.5 0 a1.25 1.25 0 1 0 -2.5 0zM343.75 455 a1.25 1.25 0 1 0 2.5 0 a1.25 1.25 0 1 0 -2.5 0z" fill="black"></path><path d="M1113.75 335 a1.25 1.25 0 1 0 2.5 0 a1.25 1.25 0 1 0 -2.5 0zM1123.75 325 a1.25 1.25 0 1 0 2.5 0 a1.25 1.25 0 1 0 -2.5 0zM1123.75 355 a1.25 1.25 0 1 0 2.5 0 a1.25 1.25 0 1 0 -2.5 0zM1113.75 495 a1.25 1.25 0 1 0 2.5 0 a1.25 1.25 0 1 0 -2.5 0zM1083.75 505 a1.25 1.25 0 1 0 2.5 0 a1.25 1.25 0 1 0 -2.5 0zM1133.75 355 a1.25 1.25 0 1 0 2.5 0 a1.25 1.25 0 1 0 -2.5 0zM1093.75 545 a1.25 1.25 0 1 0 2.5 0 a1.25 1.25 0 1 0 -2.5 0z" fill="black"></path></mask></defs></svg>