<svg id="visual" viewBox="0 0 960 540" width="960" height="540" xmlns="http://www.w3.org/2000/svg" xmlns:xlink="http://www.w3.org/1999/xlink" version="1.1"><path d="M0 179L48 179L48 206L96 206L96 217L144 217L144 93L192 93L192 136L240 136L240 212L288 212L288 136L336 136L336 131L384 131L384 136L432 136L432 212L480 212L480 109L528 109L528 147L576 147L576 185L624 185L624 217L672 217L672 168L720 168L720 125L768 125L768 228L816 228L816 147L864 147L864 174L912 174L912 98L960 98L960 168L960 0L960 0L912 0L912 0L864 0L864 0L816 0L816 0L768 0L768 0L720 0L720 0L672 0L672 0L624 0L624 0L576 0L576 0L528 0L528 0L480 0L480 0L432 0L432 0L384 0L384 0L336 0L336 0L288 0L288 0L240 0L240 0L192 0L192 0L144 0L144 0L96 0L96 0L48 0L48 0L0 0Z" fill="#0081ec"></path><path d="M0 249L48 249L48 276L96 276L96 303L144 303L144 212L192 212L192 255L240 255L240 276L288 276L288 239L336 239L336 217L384 217L384 201L432 201L432 271L480 271L480 168L528 168L528 260L576 260L576 293L624 293L624 276L672 276L672 309L720 309L720 244L768 244L768 293L816 293L816 228L864 228L864 260L912 260L912 228L960 228L960 309L960 166L960 96L912 96L912 172L864 172L864 145L816 145L816 226L768 226L768 123L720 123L720 166L672 166L672 215L624 215L624 183L576 183L576 145L528 145L528 107L480 107L480 210L432 210L432 134L384 134L384 129L336 129L336 134L288 134L288 210L240 210L240 134L192 134L192 91L144 91L144 215L96 215L96 204L48 204L48 177L0 177Z" fill="#0068ba"></path><path d="M0 428L48 428L48 395L96 395L96 411L144 411L144 384L192 384L192 379L240 379L240 395L288 395L288 438L336 438L336 411L384 411L384 428L432 428L432 384L480 384L480 411L528 411L528 438L576 438L576 395L624 395L624 390L672 390L672 422L720 422L720 406L768 406L768 406L816 406L816 379L864 379L864 384L912 384L912 428L960 428L960 428L960 307L960 226L912 226L912 258L864 258L864 226L816 226L816 291L768 291L768 242L720 242L720 307L672 307L672 274L624 274L624 291L576 291L576 258L528 258L528 166L480 166L480 269L432 269L432 199L384 199L384 215L336 215L336 237L288 237L288 274L240 274L240 253L192 253L192 210L144 210L144 301L96 301L96 274L48 274L48 247L0 247Z" fill="#004f8a"></path><path d="M0 482L48 482L48 465L96 465L96 460L144 460L144 492L192 492L192 460L240 460L240 465L288 465L288 487L336 487L336 471L384 471L384 487L432 487L432 465L480 465L480 476L528 476L528 487L576 487L576 455L624 455L624 455L672 455L672 476L720 476L720 471L768 471L768 455L816 455L816 471L864 471L864 465L912 465L912 476L960 476L960 503L960 426L960 426L912 426L912 382L864 382L864 377L816 377L816 404L768 404L768 404L720 404L720 420L672 420L672 388L624 388L624 393L576 393L576 436L528 436L528 409L480 409L480 382L432 382L432 426L384 426L384 409L336 409L336 436L288 436L288 393L240 393L240 377L192 377L192 382L144 382L144 409L96 409L96 393L48 393L48 426L0 426Z" fill="#00375d"></path><path d="M0 541L48 541L48 541L96 541L96 541L144 541L144 541L192 541L192 541L240 541L240 541L288 541L288 541L336 541L336 541L384 541L384 541L432 541L432 541L480 541L480 541L528 541L528 541L576 541L576 541L624 541L624 541L672 541L672 541L720 541L720 541L768 541L768 541L816 541L816 541L864 541L864 541L912 541L912 541L960 541L960 541L960 501L960 474L912 474L912 463L864 463L864 469L816 469L816 453L768 453L768 469L720 469L720 474L672 474L672 453L624 453L624 453L576 453L576 485L528 485L528 474L480 474L480 463L432 463L432 485L384 485L384 469L336 469L336 485L288 485L288 463L240 463L240 458L192 458L192 490L144 490L144 458L96 458L96 463L48 463L48 480L0 480Z" fill="#001f33"></path></svg>