<svg width="554.32197265625px" height="122px" xmlns="http://www.w3.org/2000/svg" viewBox="-27.160986328124977 14 554.32197265625 122" style="background: rgba(0, 0, 0, 0);" preserveAspectRatio="xMidYMid"><defs><filter id="editing-offset"><feFlood flood-color="#f00" flood-opacity="0.5" result="c1"></feFlood><feFlood flood-color="#0f0" flood-opacity="0.5" result="c2"></feFlood><feFlood flood-color="#00f" flood-opacity="0.5" result="c3"></feFlood><feComposite operator="in" in="c1" in2="SourceAlpha" result="text-c1"></feComposite><feComposite operator="in" in="c2" in2="SourceAlpha" result="text-c2"></feComposite><feComposite operator="in" in="c3" in2="SourceAlpha" result="text-c3"></feComposite><feOffset in="text-c1" dx="-10" dy="0" result="text1"></feOffset><feOffset in="text-c2" dx="10" dy="0" result="text2"></feOffset><feOffset in="text-c3" dx="0" dy="0" result="text3"></feOffset><feMerge><feMergeNode in="text1"></feMergeNode><feMergeNode in="text2"></feMergeNode><feMergeNode in="text3"></feMergeNode></feMerge></filter></defs><g filter="url(#editing-offset)"><g transform="translate(58.38131380081177, 104.79000091552734)"><path d="M-6.98 8.83L-6.98 8.83L-6.98 8.83Q-3.71 8.45-1.66 4.22L-1.66 4.22L-1.66 4.22Q0.45-0.06 2.37-9.92L2.37-9.92L8.58-42.24L22.46-42.24L16.26-9.92L16.26-9.92Q13.89 2.62 9.98 7.55L9.98 7.55L9.98 7.55Q7.94 10.11 5.34 11.14L5.34 11.14L5.34 11.14Q2.75 12.16-0.06 12.16L-0.06 12.16L-0.06 12.16Q-2.88 12.16-4.70 11.14L-4.70 11.14L-4.70 11.14Q-6.53 10.11-6.98 8.83ZM26.66-1.92L26.66-1.92L26.66-1.92Q25.15-3.58 24.48-6.21L24.48-6.21L24.48-6.21Q23.81-8.83 23.81-13.12L23.81-13.12L23.81-13.12Q23.81-17.41 25.28-21.31L25.28-21.31L25.28-21.31Q26.75-25.22 29.44-28.03L29.44-28.03L29.44-28.03Q34.94-33.92 44.03-33.92L44.03-33.92L44.03-33.92Q47.30-33.92 49.66-32.83L49.66-32.83L60.61-33.92L55.87-8.96L55.87-8.96Q55.68-8.19 55.68-6.78L55.68-6.78L55.68-6.78Q55.68-5.38 56.54-4.48L56.54-4.48L56.54-4.48Q57.41-3.58 58.69-3.46L58.69-3.46L58.69-3.46Q58.05-1.28 55.71 0L55.71 0L55.71 0Q53.38 1.28 50.75 1.28L50.75 1.28L50.75 1.28Q48.13 1.28 46.37 0.29L46.37 0.29L46.37 0.29Q44.61-0.70 44.10-2.37L44.10-2.37L44.10-2.37Q43.07-0.77 40.90 0.26L40.90 0.26L40.90 0.26Q38.72 1.28 35.81 1.28L35.81 1.28L35.81 1.28Q32.90 1.28 30.53 0.51L30.53 0.51L30.53 0.51Q28.16-0.26 26.66-1.92ZM40.16-27.90L40.16-27.90L40.16-27.90Q39.42-26.75 38.78-24.80L38.78-24.80L38.78-24.80Q38.14-22.85 37.09-17.63L37.09-17.63L37.09-17.63Q36.03-12.42 36.03-8.70L36.03-8.70L36.03-8.70Q36.03-4.99 36.61-3.90L36.61-3.90L36.61-3.90Q37.18-2.82 38.21-2.82L38.21-2.82L38.21-2.82Q40.26-2.82 41.76-4.77L41.76-4.77L41.76-4.77Q43.26-6.72 43.84-10.18L43.84-10.18L47.23-28.93L47.23-28.93Q45.89-30.08 44.32-30.08L44.32-30.08L44.32-30.08Q42.75-30.08 41.82-29.57L41.82-29.57L41.82-29.57Q40.90-29.06 40.16-27.90ZM84.42-7.23L84.42-7.23L84.42-7.23Q81.09-3.78 75.01-3.78L75.01-3.78L75.01-3.78Q67.39-3.78 65.79-9.34L65.79-9.34L65.79-9.34Q65.28-11.01 65.28-12.86L65.28-12.86L65.28-12.86Q65.28-14.72 65.66-16.64L65.66-16.64L68.67-32.64L81.66-33.92L78.14-15.30L78.14-15.30Q78.02-14.46 77.82-13.57L77.82-13.57L77.82-13.57Q77.63-12.67 77.63-11.74L77.63-11.74L77.63-11.74Q77.63-10.82 77.95-10.21L77.95-10.21L77.95-10.21Q78.27-9.60 78.72-9.22L78.72-9.22L78.72-9.22Q79.49-8.70 80.86-8.70L80.86-8.70L80.86-8.70Q82.24-8.70 83.42-10.37L83.42-10.37L83.42-10.37Q84.61-12.03 85.18-14.91L85.18-14.91L88.70-32.64L101.31-33.92L96.51-8.77L96.51-8.77Q94.14 3.52 89.28 8.38L89.28 8.38L89.28 8.38Q86.78 10.88 83.55 11.87L83.55 11.87L83.55 11.87Q80.32 12.86 76.16 12.86L76.16 12.86L76.16 12.86Q69.44 12.86 65.60 10.75L65.60 10.75L65.60 10.75Q61.76 8.64 61.76 5.12L61.76 5.12L61.76 5.12Q61.76 2.50 63.74 0.99L63.74 0.99L63.74 0.99Q65.73-0.51 68.80-0.51L68.80-0.51L68.80-0.51Q71.49-0.51 73.54 0.64L73.54 0.64L73.54 0.64Q74.75 1.34 75.33 2.24L75.33 2.24L75.33 2.24Q73.86 3.52 73.86 5.63L73.86 5.63L73.86 5.63Q73.86 8.45 76.42 8.45L76.42 8.45L76.42 8.45Q80.64 8.45 83.07-1.28L83.07-1.28L83.07-1.28Q83.78-4.16 84.42-7.23ZM102.78-3.07L102.78-3.07L110.72-44.80L123.71-46.08L121.73-36.29L121.73-36.29Q121.02-33.28 120.13-31.17L120.13-31.17L120.13-31.17Q121.54-32.96 124.61-33.66L124.61-33.66L124.61-33.66Q125.50-33.92 126.59-33.92L126.59-33.92L126.59-33.92Q132.54-33.92 135.81-30.30L135.81-30.30L135.81-30.30Q139.07-26.69 139.07-19.71L139.07-19.71L139.07-19.71Q139.07-10.62 133.89-4.93L133.89-4.93L133.89-4.93Q128.32 1.28 118.21 1.28L118.21 1.28L118.21 1.28Q111.23 1.28 105.98-1.02L105.98-1.02L105.98-1.02Q104.13-1.86 102.78-3.07ZM119.04-22.40L115.65-3.65L115.65-3.65Q116.99-2.50 118.66-2.50L118.66-2.50L118.66-2.50Q120.32-2.50 121.28-3.14L121.28-3.14L121.28-3.14Q122.24-3.78 122.94-5.06L122.94-5.06L122.94-5.06Q124.86-8.51 126.40-19.07L126.40-19.07L126.40-19.07Q126.85-22.08 126.85-25.09L126.85-25.09L126.85-25.09Q126.85-28.10 126.18-29.06L126.18-29.06L126.18-29.06Q125.50-30.02 124.22-30.02L124.22-30.02L124.22-30.02Q120.32-30.02 119.04-22.40L119.04-22.40ZM158.27-3.52L158.27-3.52L158.27-3.52Q156.29 1.28 149.95 1.28L149.95 1.28L149.95 1.28Q146.69 1.28 144.64-0.96L144.64-0.96L144.64-0.96Q142.91-2.94 142.91-4.93L142.91-4.93L142.91-4.93Q142.91-10.11 145.28-20.22L145.28-20.22L147.65-32.64L160.64-33.92L156.74-13.70L156.74-13.70Q155.65-8.96 155.65-7.30L155.65-7.30L155.65-7.30Q155.65-3.65 158.27-3.52ZM148.80-41.54L148.80-41.54L148.80-41.54Q148.80-44.03 150.88-45.38L150.88-45.38L150.88-45.38Q152.96-46.72 155.97-46.72L155.97-46.72L155.97-46.72Q158.98-46.72 160.80-45.38L160.80-45.38L160.80-45.38Q162.62-44.03 162.62-41.54L162.62-41.54L162.62-41.54Q162.62-39.04 160.61-37.76L160.61-37.76L160.61-37.76Q158.59-36.48 155.58-36.48L155.58-36.48L155.58-36.48Q152.58-36.48 150.69-37.76L150.69-37.76L150.69-37.76Q148.80-39.04 148.80-41.54ZM183.74-17.98L183.74-17.98L183.74-17.98Q186.05-22.08 186.05-26.24L186.05-26.24L186.05-26.24Q186.05-28.99 184.06-28.99L184.06-28.99L184.06-28.99Q182.53-28.99 180.93-26.37L180.93-26.37L180.93-26.37Q179.26-23.74 178.75-20.35L178.75-20.35L175.42 0L162.18 1.28L168.70-32.64L179.26-33.92L178.11-27.46L178.11-27.46Q181.25-33.92 188.29-33.92L188.29-33.92L188.29-33.92Q192-33.92 194.02-32L194.02-32L194.02-32Q196.03-30.08 196.03-26.14L196.03-26.14L196.03-26.14Q196.03-22.21 193.44-19.71L193.44-19.71L193.44-19.71Q190.85-17.22 186.43-17.22L186.43-17.22L186.43-17.22Q184.51-17.22 183.74-17.98ZM217.22-33.92L217.22-33.92L217.22-33.92Q219.52-33.92 221.31-33.41L221.31-33.41L221.31-33.41Q221.38-33.66 221.50-34.37L221.50-34.37L221.82-36.35L221.82-36.35Q222.08-37.63 222.46-39.74L222.46-39.74L223.49-44.80L236.22-46.08L229.12-8.96L229.12-8.96Q229.06-8.58 229.06-7.94L229.06-7.94L229.06-6.91L229.06-6.91Q229.06-5.50 229.76-4.45L229.76-4.45L229.76-4.45Q230.46-3.39 231.62-3.39L231.62-3.39L231.62-3.39Q230.34-0.38 226.43 0.90L226.43 0.90L226.43 0.90Q225.09 1.28 223.20 1.28L223.20 1.28L223.20 1.28Q221.31 1.28 219.58 0.29L219.58 0.29L219.58 0.29Q217.86-0.70 217.34-2.37L217.34-2.37L217.34-2.37Q216.32-0.70 214.27 0.29L214.27 0.29L214.27 0.29Q212.22 1.28 209.25 1.28L209.25 1.28L209.25 1.28Q206.27 1.28 203.81 0.51L203.81 0.51L203.81 0.51Q201.34-0.26 199.81-1.92L199.81-1.92L199.81-1.92Q196.99-5.18 196.99-12.61L196.99-12.61L196.99-12.61Q196.99-22.21 202.62-28.03L202.62-28.03L202.62-28.03Q208.26-33.92 217.22-33.92ZM216.77-30.08L216.77-30.08L216.77-30.08Q214.40-30.08 213.12-27.52L213.12-27.52L213.12-27.52Q211.84-24.96 210.53-18.62L210.53-18.62L210.53-18.62Q209.22-12.29 209.22-6.59L209.22-6.59L209.22-6.59Q209.22-2.69 211.52-2.69L211.52-2.69L211.52-2.69Q213.57-2.69 215.01-4.74L215.01-4.74L215.01-4.74Q216.45-6.78 217.02-10.18L217.02-10.18L220.48-28.93L220.48-28.93Q219.14-30.08 216.77-30.08ZM264.13 1.28L264.13 1.28L264.13 1.28Q256.38 1.28 256.38-4.74L256.38-4.74L256.38-4.74Q256.45-6.40 256.96-9.22L256.96-9.22L258.11-15.10L258.11-15.10Q259.84-23.42 259.84-25.28L259.84-25.28L259.84-25.28Q259.84-28.99 257.66-28.99L257.66-28.99L257.66-28.99Q254.02-28.99 252.10-19.46L252.10-19.46L248.32 0L235.46 1.28L242.11-32.70L252.61-33.92L251.58-27.65L251.58-27.65Q254.59-33.92 263.81-33.92L263.81-33.92L263.81-33.92Q268.29-33.92 270.18-32.03L270.18-32.03L270.18-32.03Q272.06-30.14 272.06-25.92L272.06-25.92L272.06-25.92Q272.06-21.95 270.02-12.67L270.02-12.67L270.02-12.67Q269.06-8.51 269.06-6.94L269.06-6.94L269.06-6.94Q269.06-5.38 269.92-4.48L269.92-4.48L269.92-4.48Q270.78-3.58 272.06-3.46L272.06-3.46L272.06-3.46Q271.42-1.28 269.22 0L269.22 0L269.22 0Q267.01 1.28 264.13 1.28ZM303.10-10.82L303.10-10.82L303.10-10.82Q304.70-9.73 304.70-7.33L304.70-7.33L304.70-7.33Q304.70-4.93 303.49-3.39L303.49-3.39L303.49-3.39Q302.27-1.86 300.29-0.83L300.29-0.83L300.29-0.83Q296.19 1.28 291.78 1.28L291.78 1.28L291.78 1.28Q287.36 1.28 284.77 0.32L284.77 0.32L284.77 0.32Q282.18-0.64 280.45-2.43L280.45-2.43L280.45-2.43Q277.06-5.82 277.06-12.03L277.06-12.03L277.06-12.03Q277.06-21.70 282.30-27.58L282.30-27.58L282.30-27.58Q287.94-33.92 297.73-33.92L297.73-33.92L297.73-33.92Q303.81-33.92 306.82-31.36L306.82-31.36L306.82-31.36Q309.06-29.44 309.06-26.30L309.06-26.30L309.06-26.30Q309.06-15.04 289.60-15.04L289.60-15.04L289.60-15.04Q289.34-13.38 289.34-11.97L289.34-11.97L289.34-11.97Q289.34-9.02 290.66-7.90L290.66-7.90L290.66-7.90Q291.97-6.78 294.40-6.78L294.40-6.78L294.40-6.78Q296.83-6.78 299.42-7.90L299.42-7.90L299.42-7.90Q302.02-9.02 303.10-10.82ZM290.05-17.79L290.05-17.79L290.05-17.79Q294.59-17.79 297.22-20.61L297.22-20.61L297.22-20.61Q299.84-23.30 299.84-27.58L299.84-27.58L299.84-27.58Q299.84-29.06 299.30-29.86L299.30-29.86L299.30-29.86Q298.75-30.66 297.66-30.66L297.66-30.66L297.66-30.66Q296.58-30.66 295.65-30.24L295.65-30.24L295.65-30.24Q294.72-29.82 293.76-28.42L293.76-28.42L293.76-28.42Q291.39-25.22 290.05-17.79ZM331.26-17.98L331.26-17.98L331.26-17.98Q333.57-22.08 333.57-26.24L333.57-26.24L333.57-26.24Q333.57-28.99 331.58-28.99L331.58-28.99L331.58-28.99Q330.05-28.99 328.45-26.37L328.45-26.37L328.45-26.37Q326.78-23.74 326.27-20.35L326.27-20.35L322.94 0L309.70 1.28L316.22-32.64L326.78-33.92L325.63-27.46L325.63-27.46Q328.77-33.92 335.81-33.92L335.81-33.92L335.81-33.92Q339.52-33.92 341.54-32L341.54-32L341.54-32Q343.55-30.08 343.55-26.14L343.55-26.14L343.55-26.14Q343.55-22.21 340.96-19.71L340.96-19.71L340.96-19.71Q338.37-17.22 333.95-17.22L333.95-17.22L333.95-17.22Q332.03-17.22 331.26-17.98ZM364.74-33.92L364.74-33.92L364.74-33.92Q367.04-33.92 368.83-33.41L368.83-33.41L368.83-33.41Q368.90-33.66 369.02-34.37L369.02-34.37L369.34-36.35L369.34-36.35Q369.60-37.63 369.98-39.74L369.98-39.74L371.01-44.80L383.74-46.08L376.64-8.96L376.64-8.96Q376.58-8.58 376.58-7.94L376.58-7.94L376.58-6.91L376.58-6.91Q376.58-5.50 377.28-4.45L377.28-4.45L377.28-4.45Q377.98-3.39 379.14-3.39L379.14-3.39L379.14-3.39Q377.86-0.38 373.95 0.90L373.95 0.90L373.95 0.90Q372.61 1.28 370.72 1.28L370.72 1.28L370.72 1.28Q368.83 1.28 367.10 0.29L367.10 0.29L367.10 0.29Q365.38-0.70 364.86-2.37L364.86-2.37L364.86-2.37Q363.84-0.70 361.79 0.29L361.79 0.29L361.79 0.29Q359.74 1.28 356.77 1.28L356.77 1.28L356.77 1.28Q353.79 1.28 351.33 0.51L351.33 0.51L351.33 0.51Q348.86-0.26 347.33-1.92L347.33-1.92L347.33-1.92Q344.51-5.18 344.51-12.61L344.51-12.61L344.51-12.61Q344.51-22.21 350.14-28.03L350.14-28.03L350.14-28.03Q355.78-33.92 364.74-33.92ZM364.29-30.08L364.29-30.08L364.29-30.08Q361.92-30.08 360.64-27.52L360.64-27.52L360.64-27.52Q359.36-24.96 358.05-18.62L358.05-18.62L358.05-18.62Q356.74-12.29 356.74-6.59L356.74-6.59L356.74-6.59Q356.74-2.69 359.04-2.69L359.04-2.69L359.04-2.69Q361.09-2.69 362.53-4.74L362.53-4.74L362.53-4.74Q363.97-6.78 364.54-10.18L364.54-10.18L368-28.93L368-28.93Q366.66-30.08 364.29-30.08Z"></path></g></g><style>text {
  font-size: 64px;
  font-family: Arial Black;
  dominant-baseline: central;
  text-anchor: middle;
}</style></svg>