<svg width="795.7624999999999px" height="242px" xmlns="http://www.w3.org/2000/svg" viewBox="-147.88124999999997 -46 795.7624999999999 242" style="background: rgba(0, 0, 0, 0);" preserveAspectRatio="xMidYMid"><defs><filter id="editing-neon" x="-100%" y="-100%" width="300%" height="300%"><feFlood flood-color="#00ff2f" result="flood"></feFlood><feComposite operator="in" in="flood" in2="SourceAlpha" result="color"></feComposite><feFlood flood-color="#00ff2f" result="flood2"></feFlood><feComposite operator="in" in="flood2" in2="SourceAlpha" result="color2"></feComposite><feMorphology operator="dilate" radius="2" in="color" result="dilate"></feMorphology><feGaussianBlur stdDeviation="6" in="color" result="blur1"></feGaussianBlur><feGaussianBlur stdDeviation="2.5" in="color" result="blur2"></feGaussianBlur><feGaussianBlur stdDeviation="1" in="SourceAlpha" result="blur3"></feGaussianBlur><feGaussianBlur stdDeviation="6" in="dilate" result="blur4"></feGaussianBlur><feConvolveMatrix in="color2" result="conv" order="3,3" divisor="1" kernelMatrix="1 1 1  1 1 1  1 1 1"></feConvolveMatrix><feMerge><feMergeNode in="blur1"></feMergeNode><feMergeNode in="blur2"></feMergeNode><feMergeNode in="blur4"></feMergeNode><feMergeNode in="blur3"></feMergeNode><feMergeNode in="blur3"></feMergeNode><feMergeNode in="blur3"></feMergeNode><feMergeNode in="blur3"></feMergeNode><feMergeNode in="conv"></feMergeNode><feMergeNode in="SourceGraphic"></feMergeNode></feMerge></filter></defs><g filter="url(#editing-neon)"><g transform="translate(-35.50498187541962, 102.64999961853027)"><path d="M20.29 8.58L20.29 8.58L20.29 8.58Q14.46 8.58 10.72 7.26L10.72 7.26L10.72 7.26Q6.98 5.95 4.83 3.78L4.83 3.78L4.83 3.78Q2.69 1.60 1.89-1.22L1.89-1.22L1.89-1.22Q1.09-4.03 1.09-7.04L1.09-7.04L1.09-15.49L1.09-15.49Q1.09-16.32 1.31-16.93L1.31-16.93L1.31-16.93Q1.54-17.54 1.92-17.86L1.92-17.86L10.24-24.83L10.24-24.83Q10.56-25.09 11.07-25.25L11.07-25.25L11.07-25.25Q11.58-25.41 12.29-25.41L12.29-25.41L21.57-25.41L21.57-25.41Q22.27-25.41 22.82-25.25L22.82-25.25L22.82-25.25Q23.36-25.09 23.74-24.77L23.74-24.77L23.74-36.80L23.74-36.80Q23.74-37.63 23.97-38.21L23.97-38.21L23.97-38.21Q24.19-38.78 24.64-39.17L24.64-39.17L32.90-46.14L32.90-46.14Q33.22-46.40 33.76-46.56L33.76-46.56L33.76-46.56Q34.30-46.72 34.94-46.72L34.94-46.72L44.99-46.72L44.99-46.72Q46.53-46.72 47.23-46.02L47.23-46.02L47.23-46.02Q47.94-45.31 47.94-43.78L47.94-43.78L47.94-12.10L47.94-12.10Q47.94-9.09 47.07-6.56L47.07-6.56L47.07-6.56Q46.21-4.03 44.03-2.24L44.03-2.24L35.78 4.74L35.78 4.74Q33.60 6.53 29.89 7.55L29.89 7.55L29.89 7.55Q26.18 8.58 20.29 8.58ZM47.30-12.10L47.30-12.10L47.30-43.78L47.30-43.78Q47.30-44.99 46.75-45.54L46.75-45.54L46.75-45.54Q46.21-46.08 44.99-46.08L44.99-46.08L34.94-46.08L34.94-46.08Q33.73-46.08 33.18-45.54L33.18-45.54L33.18-45.54Q32.64-44.99 32.64-43.78L32.64-43.78L32.64-14.66L32.64-14.66Q32.64-13.38 31.90-12.51L31.90-12.51L31.90-12.51Q31.17-11.65 28.42-11.65L28.42-11.65L28.42-11.65Q25.47-11.65 24.67-12.51L24.67-12.51L24.67-12.51Q23.87-13.38 23.87-14.66L23.87-14.66L23.87-22.46L23.87-22.46Q23.87-23.68 23.33-24.22L23.33-24.22L23.33-24.22Q22.78-24.77 21.57-24.77L21.57-24.77L12.29-24.77L12.29-24.77Q11.07-24.77 10.53-24.22L10.53-24.22L10.53-24.22Q9.98-23.68 9.98-22.46L9.98-22.46L9.98-12.10L9.98-12.10Q9.98-9.15 10.78-6.75L10.78-6.75L10.78-6.75Q11.58-4.35 13.66-2.66L13.66-2.66L13.66-2.66Q15.74-0.96 19.36 0L19.36 0L19.36 0Q22.98 0.96 28.54 0.96L28.54 0.96L28.54 0.96Q34.18 0.96 37.82 0L37.82 0L37.82 0Q41.47-0.96 43.55-2.66L43.55-2.66L43.55-2.66Q45.63-4.35 46.46-6.75L46.46-6.75L46.46-6.75Q47.30-9.15 47.30-12.10ZM39.62-13.63L39.62-40.32L40.26-40.32L40.26-13.63L40.26-13.63Q40.26-9.86 37.86-7.42L37.86-7.42L37.86-7.42Q35.46-4.99 28.67-4.99L28.67-4.99L28.67-4.99Q25.09-4.99 22.75-5.63L22.75-5.63L22.75-5.63Q20.42-6.27 19.07-7.39L19.07-7.39L19.07-7.39Q17.73-8.51 17.18-10.11L17.18-10.11L17.18-10.11Q16.64-11.71 16.64-13.63L16.64-13.63L16.64-18.69L17.28-18.69L17.28-13.63L17.28-13.63Q17.28-9.98 19.68-7.81L19.68-7.81L19.68-7.81Q22.08-5.63 28.67-5.63L28.67-5.63L28.67-5.63Q35.01-5.63 37.31-7.84L37.31-7.84L37.31-7.84Q39.62-10.05 39.62-13.63L39.62-13.63ZM68.67-19.39L68.67-19.39L68.67-17.41L93.63-17.41L93.63-19.39L93.63-19.39Q93.63-21.12 93.34-22.59L93.34-22.59L93.34-22.59Q93.06-24.06 92.61-25.34L92.61-25.34L88.19-35.78L88.19-35.78Q87.49-37.44 86.72-38.56L86.72-38.56L86.72-38.56Q85.95-39.68 84.16-39.68L84.16-39.68L77.89-39.68L77.89-39.68Q75.97-39.68 75.20-38.56L75.20-38.56L75.20-38.56Q74.43-37.44 73.79-35.84L73.79-35.84L69.70-25.34L69.70-25.34Q69.25-24.06 68.96-22.59L68.96-22.59L68.96-22.59Q68.67-21.12 68.67-19.39ZM75.90-22.91L78.91-32.64L78.91-32.64Q79.17-33.22 79.46-33.47L79.46-33.47L79.46-33.47Q79.74-33.73 80.13-33.73L80.13-33.73L81.73-33.73L81.73-33.73Q82.11-33.73 82.40-33.47L82.40-33.47L82.40-33.47Q82.69-33.22 82.94-32.64L82.94-32.64L85.95-22.91L75.90-22.91ZM94.27-5.76L93.63-5.76L93.63-16.77L68.67-16.77L68.67-5.76L68.03-5.76L68.03-19.39L68.03-19.39Q68.03-21.18 68.32-22.69L68.32-22.69L68.32-22.69Q68.61-24.19 69.12-25.60L69.12-25.60L73.22-36.10L73.22-36.10Q73.92-37.89 74.82-39.10L74.82-39.10L74.82-39.10Q75.71-40.32 77.89-40.32L77.89-40.32L84.16-40.32L84.16-40.32Q86.27-40.32 87.14-39.10L87.14-39.10L87.14-39.10Q88-37.89 88.77-36.03L88.77-36.03L93.18-25.60L93.18-25.60Q93.70-24.19 93.98-22.69L93.98-22.69L93.98-22.69Q94.27-21.18 94.27-19.39L94.27-19.39L94.27-5.76ZM75.26-2.30L75.26-2.30L75.26-11.26L86.59-11.26L86.59-2.30L86.59-2.30Q86.59-1.09 87.20-0.54L87.20-0.54L87.20-0.54Q87.81 0 89.09 0L89.09 0L98.75 0L98.75 0Q99.97 0 100.51-0.54L100.51-0.54L100.51-0.54Q101.06-1.09 101.06-2.30L101.06-2.30L101.06-19.20L101.06-19.20Q101.06-21.12 100.45-23.62L100.45-23.62L100.45-23.62Q99.84-26.11 98.56-29.44L98.56-29.44L92.99-43.97L92.99-43.97Q92.61-45.06 91.81-45.57L91.81-45.57L91.81-45.57Q91.01-46.08 89.79-46.08L89.79-46.08L72.58-46.08L72.58-46.08Q71.30-46.08 70.50-45.57L70.50-45.57L70.50-45.57Q69.70-45.06 69.31-43.97L69.31-43.97L63.74-29.44L63.74-29.44Q62.46-26.11 61.86-23.62L61.86-23.62L61.86-23.62Q61.25-21.12 61.25-19.20L61.25-19.20L61.25-2.30L61.25-2.30Q61.25-1.09 61.79-0.54L61.79-0.54L61.79-0.54Q62.34 0 63.55 0L63.55 0L72.96 0L72.96 0Q74.18 0 74.72-0.54L74.72-0.54L74.72-0.54Q75.26-1.09 75.26-2.30ZM75.01 0.06L66.69 6.98L66.69 6.98Q66.43 7.23 65.89 7.42L65.89 7.42L65.89 7.42Q65.34 7.62 64.70 7.62L64.70 7.62L55.30 7.62L55.30 7.62Q53.76 7.62 53.06 6.91L53.06 6.91L53.06 6.91Q52.35 6.21 52.35 4.67L52.35 4.67L52.35-12.22L52.35-12.22Q52.35-14.21 52.96-16.74L52.96-16.74L52.96-16.74Q53.57-19.26 54.91-22.72L54.91-22.72L60.42-37.18L60.42-37.18Q60.61-37.76 60.90-38.18L60.90-38.18L60.90-38.18Q61.18-38.59 61.50-38.91L61.50-38.91L61.57-38.98L69.76-45.82L69.76-45.82Q70.27-46.27 70.98-46.50L70.98-46.50L70.98-46.50Q71.68-46.72 72.58-46.72L72.58-46.72L89.79-46.72L89.79-46.72Q91.26-46.72 92.19-46.11L92.19-46.11L92.19-46.11Q93.12-45.50 93.57-44.22L93.57-44.22L99.14-29.70L99.14-29.70Q100.48-26.24 101.09-23.71L101.09-23.71L101.09-23.71Q101.70-21.18 101.70-19.20L101.70-19.20L101.70-2.30L101.70-2.30Q101.70-1.47 101.47-0.90L101.47-0.90L101.47-0.90Q101.25-0.32 100.80 0.06L100.80 0.06L92.48 6.98L92.48 6.98Q92.22 7.23 91.68 7.42L91.68 7.42L91.68 7.42Q91.14 7.62 90.50 7.62L90.50 7.62L80.83 7.62L80.83 7.62Q79.23 7.62 78.46 6.88L78.46 6.88L78.46 6.88Q77.70 6.14 77.70 4.67L77.70 4.67L77.70-3.65L75.90-3.65L75.90-2.30L75.90-2.30Q75.90-1.47 75.68-0.90L75.68-0.90L75.68-0.90Q75.46-0.32 75.01 0.06L75.01 0.06ZM130.43 7.62L130.43 7.62L120.06 7.62L120.06 7.62Q118.46 7.62 117.79 6.91L117.79 6.91L117.79 6.91Q117.12 6.21 117.12 4.67L117.12 4.67L117.12-3.33L107.46-16.26L107.46-16.26Q105.92-18.30 105.41-19.84L105.41-19.84L105.41-19.84Q104.90-21.38 104.90-24.51L104.90-24.51L104.90-36.80L104.90-36.80Q104.90-37.63 105.12-38.21L105.12-38.21L105.12-38.21Q105.34-38.78 105.79-39.17L105.79-39.17L114.05-46.14L114.05-46.14Q114.37-46.40 114.91-46.56L114.91-46.56L114.91-46.56Q115.46-46.72 116.10-46.72L116.10-46.72L125.95-46.72L125.95-46.72Q127.49-46.72 128.19-46.02L128.19-46.02L128.19-46.02Q128.90-45.31 128.90-43.78L128.90-43.78L128.90-33.28L128.90-33.28Q128.90-32.70 128.96-32.13L128.96-32.13L128.96-32.13Q129.02-31.55 129.34-30.91L129.34-30.91L130.11-29.82L130.11-36.80L130.11-36.80Q130.11-37.63 130.34-38.21L130.34-38.21L130.34-38.21Q130.56-38.78 131.01-39.17L131.01-39.17L139.26-46.14L139.26-46.14Q139.58-46.40 140.13-46.56L140.13-46.56L140.13-46.56Q140.67-46.72 141.31-46.72L141.31-46.72L150.85-46.72L150.85-46.72Q152.38-46.72 153.09-46.02L153.09-46.02L153.09-46.02Q153.79-45.31 153.79-43.78L153.79-43.78L153.79-31.49L153.79-31.49Q153.79-28.35 153.28-26.82L153.28-26.82L153.28-26.82Q152.77-25.28 151.23-23.23L151.23-23.23L141.63-10.24L141.63-2.30L141.63-2.30Q141.63-1.47 141.41-0.90L141.41-0.90L141.41-0.90Q141.18-0.32 140.74 0.06L140.74 0.06L132.42 6.98L132.42 6.98Q132.16 7.23 131.62 7.42L131.62 7.42L131.62 7.42Q131.07 7.62 130.43 7.62ZM128.32 0L138.69 0L138.69 0Q139.90 0 140.45-0.54L140.45-0.54L140.45-0.54Q140.99-1.09 140.99-2.30L140.99-2.30L140.99-10.43L150.72-23.62L150.72-23.62Q152.13-25.60 152.64-27.07L152.64-27.07L152.64-27.07Q153.15-28.54 153.15-31.49L153.15-31.49L153.15-43.78L153.15-43.78Q153.15-44.99 152.61-45.54L152.61-45.54L152.61-45.54Q152.06-46.08 150.85-46.08L150.85-46.08L141.31-46.08L141.31-46.08Q140.10-46.08 139.55-45.54L139.55-45.54L139.55-45.54Q139.01-44.99 139.01-43.78L139.01-43.78L139.01-33.28L139.01-33.28Q139.01-32.64 138.94-31.94L138.94-31.94L138.94-31.94Q138.88-31.23 138.43-30.59L138.43-30.59L135.49-25.98L135.49-25.98Q135.17-25.41 134.82-25.15L134.82-25.15L134.82-25.15Q134.46-24.90 133.95-24.90L133.95-24.90L133.31-24.90L133.31-24.90Q132.80-24.90 132.45-25.15L132.45-25.15L132.45-25.15Q132.10-25.41 131.78-25.98L131.78-25.98L128.83-30.59L128.83-30.59Q128.38-31.23 128.32-31.94L128.32-31.94L128.32-31.94Q128.26-32.64 128.26-33.28L128.26-33.28L128.26-43.78L128.26-43.78Q128.26-44.99 127.71-45.54L127.71-45.54L127.71-45.54Q127.17-46.08 125.95-46.08L125.95-46.08L116.10-46.08L116.10-46.08Q114.88-46.08 114.34-45.54L114.34-45.54L114.34-45.54Q113.79-44.99 113.79-43.78L113.79-43.78L113.79-31.49L113.79-31.49Q113.79-28.54 114.27-27.07L114.27-27.07L114.27-27.07Q114.75-25.60 116.22-23.62L116.22-23.62L126.02-10.50L126.02-2.30L126.02-2.30Q126.02-1.09 126.56-0.54L126.56-0.54L126.56-0.54Q127.10 0 128.32 0L128.32 0ZM134.27-16.70L134.27-16.70L133.82-16.70L133.82-5.76L133.18-5.76L133.18-16.70L132.54-16.70L132.54-16.70Q131.14-16.70 130.02-17.34L130.02-17.34L130.02-17.34Q128.90-17.98 127.87-19.39L127.87-19.39L121.66-28.03L121.66-28.03Q120.96-28.99 120.83-30.27L120.83-30.27L120.83-30.27Q120.70-31.55 120.70-32.96L120.70-32.96L120.70-40.32L121.34-40.32L121.34-32.96L121.34-32.96Q121.34-31.62 121.47-30.43L121.47-30.43L121.47-30.43Q121.60-29.25 122.24-28.29L122.24-28.29L128.45-19.65L128.45-19.65Q129.28-18.37 130.37-17.86L130.37-17.86L130.37-17.86Q131.46-17.34 132.54-17.34L132.54-17.34L134.27-17.34L134.27-17.34Q135.49-17.34 136.48-17.89L136.48-17.89L136.48-17.89Q137.47-18.43 138.43-19.65L138.43-19.65L144.83-28.29L144.83-28.29Q145.47-29.12 145.60-30.37L145.60-30.37L145.60-30.37Q145.73-31.62 145.73-32.96L145.73-32.96L145.73-40.32L146.37-40.32L146.37-32.96L146.37-32.96Q146.37-31.55 146.27-30.30L146.27-30.30L146.27-30.30Q146.18-29.06 145.41-28.03L145.41-28.03L139.01-19.39L139.01-19.39Q137.98-17.98 136.86-17.34L136.86-17.34L136.86-17.34Q135.74-16.70 134.27-16.70ZM185.47 7.62L160.90 7.62L160.90 7.62Q159.36 7.62 158.66 6.91L158.66 6.91L158.66 6.91Q157.95 6.21 157.95 4.67L157.95 4.67L157.95-36.80L157.95-36.80Q157.95-37.63 158.18-38.21L158.18-38.21L158.18-38.21Q158.40-38.78 158.85-39.17L158.85-39.17L167.10-46.14L167.10-46.14Q167.42-46.40 167.97-46.56L167.97-46.56L167.97-46.56Q168.51-46.72 169.15-46.72L169.15-46.72L189.57-46.72L189.57-46.72Q196.22-46.72 199.36-44.13L199.36-44.13L199.36-44.13Q202.50-41.54 202.50-36.29L202.50-36.29L202.50-33.22L202.50-33.22Q202.50-30.98 201.89-29.38L201.89-29.38L201.89-29.38Q201.28-27.78 200.06-26.82L200.06-26.82L199.87-26.69L199.87-26.69Q203.33-25.92 205.06-23.39L205.06-23.39L205.06-23.39Q206.78-20.86 206.78-16.38L206.78-16.38L206.78-10.50L206.78-10.50Q206.78-7.62 205.95-5.54L205.95-5.54L205.95-5.54Q205.12-3.46 203.46-2.05L203.46-2.05L195.20 4.93L195.20 4.93Q193.60 6.27 191.17 6.94L191.17 6.94L191.17 6.94Q188.74 7.62 185.47 7.62L185.47 7.62ZM169.15 0L193.73 0L193.73 0Q200.06 0 203.10-2.56L203.10-2.56L203.10-2.56Q206.14-5.12 206.14-10.50L206.14-10.50L206.14-16.38L206.14-16.38Q206.14-21.06 204.16-23.49L204.16-23.49L204.16-23.49Q202.18-25.92 198.08-26.30L198.08-26.30L198.08-26.30Q200-27.14 200.93-28.83L200.93-28.83L200.93-28.83Q201.86-30.53 201.86-33.22L201.86-33.22L201.86-36.29L201.86-36.29Q201.86-41.28 198.85-43.68L198.85-43.68L198.85-43.68Q195.84-46.08 189.57-46.08L189.57-46.08L169.15-46.08L169.15-46.08Q167.94-46.08 167.39-45.54L167.39-45.54L167.39-45.54Q166.85-44.99 166.85-43.78L166.85-43.78L166.85-2.30L166.85-2.30Q166.85-1.09 167.39-0.54L167.39-0.54L167.39-0.54Q167.94 0 169.15 0L169.15 0ZM191.17-5.76L191.17-5.76L173.95-5.76L173.95-40.32L186.94-40.32L186.94-40.32Q189.57-40.32 191.23-39.78L191.23-39.78L191.23-39.78Q192.90-39.23 193.79-38.30L193.79-38.30L193.79-38.30Q194.69-37.38 195.01-36.16L195.01-36.16L195.01-36.16Q195.33-34.94 195.33-33.54L195.33-33.54L195.33-29.44L195.33-29.44Q195.33-27.52 194.66-25.92L194.66-25.92L194.66-25.92Q193.98-24.32 191.23-23.62L191.23-23.62L191.23-23.62Q193.86-23.62 195.52-23.07L195.52-23.07L195.52-23.07Q197.18-22.53 198.08-21.54L198.08-21.54L198.08-21.54Q198.98-20.54 199.26-19.20L199.26-19.20L199.26-19.20Q199.55-17.86 199.55-16.26L199.55-16.26L199.55-12.16L199.55-12.16Q199.55-10.75 199.23-9.57L199.23-9.57L199.23-9.57Q198.91-8.38 198.05-7.55L198.05-7.55L198.05-7.55Q197.18-6.72 195.52-6.24L195.52-6.24L195.52-6.24Q193.86-5.76 191.17-5.76ZM186.94-39.68L186.94-39.68L174.59-39.68L174.59-23.62L186.94-23.62L186.94-23.62Q189.57-23.62 191.10-24.10L191.10-24.10L191.10-24.10Q192.64-24.58 193.44-25.38L193.44-25.38L193.44-25.38Q194.24-26.18 194.46-27.23L194.46-27.23L194.46-27.23Q194.69-28.29 194.69-29.44L194.69-29.44L194.69-33.54L194.69-33.54Q194.69-36.10 193.22-37.89L193.22-37.89L193.22-37.89Q191.74-39.68 186.94-39.68ZM181.25-28.29L181.25-35.20L186.69-35.20L186.69-35.20Q187.90-35.20 188.51-34.56L188.51-34.56L188.51-34.56Q189.12-33.92 189.12-32.64L189.12-32.64L189.12-30.85L189.12-30.85Q189.12-29.57 188.51-28.93L188.51-28.93L188.51-28.93Q187.90-28.29 186.69-28.29L186.69-28.29L181.25-28.29ZM191.23-22.98L191.23-22.98L174.59-22.98L174.59-6.40L191.17-6.40L191.17-6.40Q195.97-6.40 197.44-7.97L197.44-7.97L197.44-7.97Q198.91-9.54 198.91-12.16L198.91-12.16L198.91-16.26L198.91-16.26Q198.91-19.14 197.47-21.06L197.47-21.06L197.47-21.06Q196.03-22.98 191.23-22.98ZM181.25-10.88L181.25-18.43L189.57-18.43L189.57-18.43Q190.78-18.43 191.39-17.82L191.39-17.82L191.39-17.82Q192-17.22 192-15.94L192-15.94L192-13.44L192-13.44Q192-12.16 191.39-11.52L191.39-11.52L191.39-11.52Q190.78-10.88 189.57-10.88L189.57-10.88L181.25-10.88ZM239.94 7.62L239.94 7.62L212.67 7.62L212.67 7.62Q211.14 7.62 210.43 6.91L210.43 6.91L210.43 6.91Q209.73 6.21 209.73 4.67L209.73 4.67L209.73-2.94L209.73-2.94Q209.73-3.78 209.95-4.35L209.95-4.35L209.95-4.35Q210.18-4.93 210.62-5.31L210.62-5.31L218.37-11.84L218.37-26.11L212.67-26.11L212.67-26.11Q211.14-26.11 210.43-26.82L210.43-26.82L210.43-26.82Q209.73-27.52 209.73-29.06L209.73-29.06L209.73-36.80L209.73-36.80Q209.73-37.63 209.95-38.21L209.95-38.21L209.95-38.21Q210.18-38.78 210.62-39.17L210.62-39.17L218.88-46.14L218.88-46.14Q219.20-46.40 219.74-46.56L219.74-46.56L219.74-46.56Q220.29-46.72 220.93-46.72L220.93-46.72L248.19-46.72L248.19-46.72Q249.73-46.72 250.43-46.02L250.43-46.02L250.43-46.02Q251.14-45.31 251.14-43.78L251.14-43.78L251.14-36.03L251.14-36.03Q251.14-35.20 250.91-34.62L250.91-34.62L250.91-34.62Q250.69-34.05 250.24-33.66L250.24-33.66L242.62-27.26L242.62-12.86L248.19-12.86L248.19-12.86Q249.73-12.86 250.43-12.16L250.43-12.16L250.43-12.16Q251.14-11.46 251.14-9.92L251.14-9.92L251.14-2.30L251.14-2.30Q251.14-1.47 250.91-0.90L250.91-0.90L250.91-0.90Q250.69-0.32 250.24 0.06L250.24 0.06L241.92 6.98L241.92 6.98Q241.66 7.23 241.12 7.42L241.12 7.42L241.12 7.42Q240.58 7.62 239.94 7.62ZM220.93 0L220.93 0L248.19 0L248.19 0Q249.41 0 249.95-0.54L249.95-0.54L249.95-0.54Q250.50-1.09 250.50-2.30L250.50-2.30L250.50-9.92L250.50-9.92Q250.50-11.14 249.95-11.68L249.95-11.68L249.95-11.68Q249.41-12.22 248.19-12.22L248.19-12.22L241.98-12.22L241.98-33.73L248.19-33.73L248.19-33.73Q249.41-33.73 249.95-34.27L249.95-34.27L249.95-34.27Q250.50-34.82 250.50-36.03L250.50-36.03L250.50-43.78L250.50-43.78Q250.50-44.99 249.95-45.54L249.95-45.54L249.95-45.54Q249.41-46.08 248.19-46.08L248.19-46.08L220.93-46.08L220.93-46.08Q219.71-46.08 219.17-45.54L219.17-45.54L219.17-45.54Q218.62-44.99 218.62-43.78L218.62-43.78L218.62-36.03L218.62-36.03Q218.62-34.82 219.17-34.27L219.17-34.27L219.17-34.27Q219.71-33.73 220.93-33.73L220.93-33.73L227.26-33.73L227.26-12.22L220.93-12.22L220.93-12.22Q219.71-12.22 219.17-11.68L219.17-11.68L219.17-11.68Q218.62-11.14 218.62-9.92L218.62-9.92L218.62-2.30L218.62-2.30Q218.62-1.09 219.17-0.54L219.17-0.54L219.17-0.54Q219.71 0 220.93 0ZM244.74-6.40L244.74-5.76L224.38-5.76L224.38-6.40L234.30-6.40L234.30-39.68L224.38-39.68L224.38-40.32L244.74-40.32L244.74-39.68L234.94-39.68L234.94-6.40L244.74-6.40ZM286.27-39.68L286.27-39.68L272.32-39.68L272.32-21.18L286.27-21.18L286.27-21.18Q290.24-21.18 291.58-23.10L291.58-23.10L291.58-23.10Q292.93-25.02 292.93-28.54L292.93-28.54L292.93-33.02L292.93-33.02Q292.93-35.97 291.30-37.82L291.30-37.82L291.30-37.82Q289.66-39.68 286.27-39.68ZM279.23-26.37L279.23-34.56L284.03-34.56L284.03-34.56Q285.70-34.56 286.27-33.70L286.27-33.70L286.27-33.70Q286.85-32.83 286.85-31.55L286.85-31.55L286.85-29.38L286.85-29.38Q286.85-28.10 286.27-27.23L286.27-27.23L286.27-27.23Q285.70-26.37 284.03-26.37L284.03-26.37L279.23-26.37ZM272.32-20.61L272.32-5.76L271.68-5.76L271.68-40.32L286.27-40.32L286.27-40.32Q289.98-40.32 291.78-38.24L291.78-38.24L291.78-38.24Q293.57-36.16 293.57-33.02L293.57-33.02L293.57-28.61L293.57-28.61Q293.57-25.66 292.80-23.78L292.80-23.78L292.80-23.78Q292.03-21.89 289.73-21.18L289.73-21.18L290.43-21.18L290.43-21.18Q294.34-21.18 296.26-19.42L296.26-19.42L296.26-19.42Q298.18-17.66 298.18-14.34L298.18-14.34L298.18-5.76L297.54-5.76L297.54-14.34L297.54-14.34Q297.54-17.47 295.81-19.04L295.81-19.04L295.81-19.04Q294.08-20.61 290.43-20.61L290.43-20.61L272.32-20.61ZM267.07 0L276.93 0L276.93 0Q278.14 0 278.69-0.54L278.69-0.54L278.69-0.54Q279.23-1.09 279.23-2.30L279.23-2.30L279.23-14.85L288.19-14.85L288.19-14.85Q289.54-14.85 290.08-14.18L290.08-14.18L290.08-14.18Q290.62-13.50 290.62-12.10L290.62-12.10L290.62-2.30L290.62-2.30Q290.62-1.09 291.17-0.54L291.17-0.54L291.17-0.54Q291.71 0 292.93 0L292.93 0L302.85 0L302.85 0Q304.06 0 304.61-0.54L304.61-0.54L304.61-0.54Q305.15-1.09 305.15-2.30L305.15-2.30L305.15-15.87L305.15-15.87Q305.15-19.90 303.01-22.34L303.01-22.34L303.01-22.34Q300.86-24.77 297.41-25.15L297.41-25.15L297.41-25.15Q299.39-25.98 300.19-27.87L300.19-27.87L300.19-27.87Q300.99-29.76 300.99-32.45L300.99-32.45L300.99-35.39L300.99-35.39Q300.99-40.13 298.27-43.10L298.27-43.10L298.27-43.10Q295.55-46.08 288.38-46.08L288.38-46.08L267.07-46.08L267.07-46.08Q265.86-46.08 265.31-45.54L265.31-45.54L265.31-45.54Q264.77-44.99 264.77-43.78L264.77-43.78L264.77-2.30L264.77-2.30Q264.77-1.09 265.31-0.54L265.31-0.54L265.31-0.54Q265.86 0 267.07 0L267.07 0ZM278.98 0.06L278.98 0.06L270.66 6.98L270.66 6.98Q270.40 7.23 269.86 7.42L269.86 7.42L269.86 7.42Q269.31 7.62 268.67 7.62L268.67 7.62L258.82 7.62L258.82 7.62Q257.28 7.62 256.58 6.91L256.58 6.91L256.58 6.91Q255.87 6.21 255.87 4.67L255.87 4.67L255.87-36.80L255.87-36.80Q255.87-37.63 256.10-38.21L256.10-38.21L256.10-38.21Q256.32-38.78 256.77-39.17L256.77-39.17L265.02-46.14L265.02-46.14Q265.34-46.40 265.89-46.56L265.89-46.56L265.89-46.56Q266.43-46.72 267.07-46.72L267.07-46.72L288.38-46.72L288.38-46.72Q296-46.72 298.82-43.55L298.82-43.55L298.82-43.55Q301.63-40.38 301.63-35.39L301.63-35.39L301.63-32.45L301.63-32.45Q301.63-30.08 301.06-28.32L301.06-28.32L301.06-28.32Q300.48-26.56 299.20-25.47L299.20-25.47L299.14-25.47L299.14-25.47Q302.14-24.64 303.97-22.14L303.97-22.14L303.97-22.14Q305.79-19.65 305.79-15.87L305.79-15.87L305.79-2.30L305.79-2.30Q305.79-1.47 305.57-0.90L305.57-0.90L305.57-0.90Q305.34-0.32 304.90 0.06L304.90 0.06L296.58 6.98L296.58 6.98Q296.32 7.23 295.78 7.42L295.78 7.42L295.78 7.42Q295.23 7.62 294.59 7.62L294.59 7.62L284.67 7.62L284.67 7.62Q283.14 7.62 282.43 6.91L282.43 6.91L282.43 6.91Q281.73 6.21 281.73 4.67L281.73 4.67L281.73-5.12L281.73-5.12Q281.73-6.14 281.34-6.69L281.34-6.69L281.34-6.69Q280.96-7.23 279.94-7.23L279.94-7.23L279.87-7.23L279.87-2.30L279.87-2.30Q279.87-1.47 279.65-0.90L279.65-0.90L279.65-0.90Q279.42-0.32 278.98 0.06ZM354.94-2.69L346.62 4.22L346.62 4.22Q344.64 5.89 341.57 6.75L341.57 6.75L341.57 6.75Q338.50 7.62 334.34 7.62L334.34 7.62L312.77 7.62L312.77 7.62Q311.23 7.62 310.53 6.91L310.53 6.91L310.53 6.91Q309.82 6.21 309.82 4.67L309.82 4.67L309.82-36.80L309.82-36.80Q309.82-37.63 310.05-38.21L310.05-38.21L310.05-38.21Q310.27-38.78 310.72-39.17L310.72-39.17L318.98-46.14L318.98-46.14Q319.30-46.40 319.84-46.56L319.84-46.56L319.84-46.56Q320.38-46.72 321.02-46.72L321.02-46.72L342.59-46.72L342.59-46.72Q350.98-46.72 354.98-43.33L354.98-43.33L354.98-43.33Q358.98-39.94 358.98-33.02L358.98-33.02L358.98-13.06L358.98-13.06Q358.98-9.60 357.95-7.01L357.95-7.01L357.95-7.01Q356.93-4.42 354.94-2.69L354.94-2.69ZM321.02 0L342.59 0L342.59 0Q350.59 0 354.46-3.20L354.46-3.20L354.46-3.20Q358.34-6.40 358.34-13.06L358.34-13.06L358.34-33.02L358.34-33.02Q358.34-39.68 354.46-42.88L354.46-42.88L354.46-42.88Q350.59-46.08 342.59-46.08L342.59-46.08L321.02-46.08L321.02-46.08Q319.81-46.08 319.26-45.54L319.26-45.54L319.26-45.54Q318.72-44.99 318.72-43.78L318.72-43.78L318.72-2.30L318.72-2.30Q318.72-1.09 319.26-0.54L319.26-0.54L319.26-0.54Q319.81 0 321.02 0L321.02 0ZM341.18-5.76L325.70-5.76L325.70-40.32L341.18-40.32L341.18-40.32Q344.45-40.32 346.46-39.62L346.46-39.62L346.46-39.62Q348.48-38.91 349.57-37.73L349.57-37.73L349.57-37.73Q350.66-36.54 351.04-34.91L351.04-34.91L351.04-34.91Q351.42-33.28 351.42-31.42L351.42-31.42L351.42-14.46L351.42-14.46Q351.42-12.61 351.07-11.01L351.07-11.01L351.07-11.01Q350.72-9.41 349.63-8.26L349.63-8.26L349.63-8.26Q348.54-7.10 346.50-6.43L346.50-6.43L346.50-6.43Q344.45-5.76 341.18-5.76L341.18-5.76ZM341.18-39.68L341.18-39.68L326.34-39.68L326.34-6.40L341.18-6.40L341.18-6.40Q344.26-6.40 346.14-7.01L346.14-7.01L346.14-7.01Q348.03-7.62 349.06-8.67L349.06-8.67L349.06-8.67Q350.08-9.73 350.43-11.23L350.43-11.23L350.43-11.23Q350.78-12.74 350.78-14.46L350.78-14.46L350.78-31.42L350.78-31.42Q350.78-33.15 350.40-34.69L350.40-34.69L350.40-34.69Q350.02-36.22 348.99-37.31L348.99-37.31L348.99-37.31Q347.97-38.40 346.08-39.04L346.08-39.04L346.08-39.04Q344.19-39.68 341.18-39.68ZM333.25-12.10L333.25-33.86L340.86-33.86L340.86-33.86Q342.40-33.86 343.14-33.12L343.14-33.12L343.14-33.12Q343.87-32.38 343.87-30.78L343.87-30.78L343.87-15.23L343.87-15.23Q343.87-13.63 343.14-12.86L343.14-12.86L343.14-12.86Q342.40-12.10 340.86-12.10L340.86-12.10L333.25-12.10ZM334.98-12.74L334.98-23.81L334.98-23.81Q334.98-24.64 334.72-25.22L334.72-25.22L334.72-25.22Q334.46-25.79 333.89-26.05L333.89-26.05L333.89-12.74L334.98-12.74ZM381.31-39.81L381.31-39.81L404.86-13.31L404.86-40.32L405.50-40.32L405.50-5.76L404.86-5.76L404.86-12.35L380.67-39.49L380.67-39.49Q380.61-39.55 380.51-39.62L380.51-39.62L380.51-39.62Q380.42-39.68 380.35-39.68L380.35-39.68L380.35-39.68Q380.29-39.68 380.26-39.62L380.26-39.62L380.26-39.62Q380.22-39.55 380.22-39.49L380.22-39.49L380.22-5.76L379.58-5.76L379.58-39.62L379.58-39.62Q379.58-40 379.84-40.19L379.84-40.19L379.84-40.19Q380.10-40.38 380.35-40.38L380.35-40.38L380.35-40.38Q380.61-40.38 380.80-40.26L380.80-40.26L380.80-40.26Q380.99-40.13 381.31-39.81ZM375.17 0L384.77 0L384.77 0Q385.98 0 386.53-0.54L386.53-0.54L386.53-0.54Q387.07-1.09 387.07-2.30L387.07-2.30L387.07-23.42L398.02-10.18L398.02-2.30L398.02-2.30Q398.02-1.09 398.56-0.54L398.56-0.54L398.56-0.54Q399.10 0 400.32 0L400.32 0L409.92 0L409.92 0Q411.14 0 411.68-0.54L411.68-0.54L411.68-0.54Q412.22-1.09 412.22-2.30L412.22-2.30L412.22-43.78L412.22-43.78Q412.22-44.99 411.68-45.54L411.68-45.54L411.68-45.54Q411.14-46.08 409.92-46.08L409.92-46.08L400.32-46.08L400.32-46.08Q399.10-46.08 398.56-45.54L398.56-45.54L398.56-45.54Q398.02-44.99 398.02-43.78L398.02-43.78L398.02-30.14L385.60-44.35L385.60-44.35Q384.77-45.31 383.90-45.70L383.90-45.70L383.90-45.70Q383.04-46.08 381.82-46.08L381.82-46.08L375.17-46.08L375.17-46.08Q373.95-46.08 373.41-45.54L373.41-45.54L373.41-45.54Q372.86-44.99 372.86-43.78L372.86-43.78L372.86-2.30L372.86-2.30Q372.86-1.09 373.41-0.54L373.41-0.54L373.41-0.54Q373.95 0 375.17 0L375.17 0ZM386.82 0.06L386.82 0.06L378.50 6.98L378.50 6.98Q378.24 7.23 377.70 7.42L377.70 7.42L377.70 7.42Q377.15 7.62 376.51 7.62L376.51 7.62L366.91 7.62L366.91 7.62Q365.38 7.62 364.67 6.91L364.67 6.91L364.67 6.91Q363.97 6.21 363.97 4.67L363.97 4.67L363.97-36.80L363.97-36.80Q363.97-37.63 364.19-38.21L364.19-38.21L364.19-38.21Q364.42-38.78 364.86-39.17L364.86-39.17L373.12-46.14L373.12-46.14Q373.44-46.40 373.98-46.56L373.98-46.56L373.98-46.56Q374.53-46.72 375.17-46.72L375.17-46.72L381.82-46.72L381.82-46.72Q383.23-46.72 384.19-46.27L384.19-46.27L384.19-46.27Q385.15-45.82 386.11-44.80L386.11-44.80L390.53-39.68L398.27-46.14L398.27-46.14Q398.59-46.40 399.14-46.56L399.14-46.56L399.14-46.56Q399.68-46.72 400.32-46.72L400.32-46.72L409.92-46.72L409.92-46.72Q411.46-46.72 412.16-46.02L412.16-46.02L412.16-46.02Q412.86-45.31 412.86-43.78L412.86-43.78L412.86-2.30L412.86-2.30Q412.86-1.47 412.64-0.90L412.64-0.90L412.64-0.90Q412.42-0.32 411.97 0.06L411.97 0.06L403.65 6.98L403.65 6.98Q403.39 7.23 402.85 7.42L402.85 7.42L402.85 7.42Q402.30 7.62 401.66 7.62L401.66 7.62L392.06 7.62L392.06 7.62Q390.53 7.62 389.82 6.91L389.82 6.91L389.82 6.91Q389.12 6.21 389.12 4.67L389.12 4.67L389.12-2.94L387.71-4.67L387.71-2.30L387.71-2.30Q387.71-1.47 387.49-0.90L387.49-0.90L387.49-0.90Q387.26-0.32 386.82 0.06ZM451.20 7.62L451.20 7.62L421.50 7.62L421.50 7.62Q419.97 7.62 419.26 6.91L419.26 6.91L419.26 6.91Q418.56 6.21 418.56 4.67L418.56 4.67L418.56-36.80L418.56-36.80Q418.56-37.63 418.78-38.21L418.78-38.21L418.78-38.21Q419.01-38.78 419.46-39.17L419.46-39.17L427.71-46.14L427.71-46.14Q428.03-46.40 428.58-46.56L428.58-46.56L428.58-46.56Q429.12-46.72 429.76-46.72L429.76-46.72L459.46-46.72L459.46-46.72Q460.99-46.72 461.70-46.02L461.70-46.02L461.70-46.02Q462.40-45.31 462.40-43.78L462.40-43.78L462.40-36.29L462.40-36.29Q462.40-35.46 462.18-34.88L462.18-34.88L462.18-34.88Q461.95-34.30 461.50-33.92L461.50-33.92L456-29.38L456-29.38Q456.64-29.06 456.93-28.42L456.93-28.42L456.93-28.42Q457.22-27.78 457.22-26.75L457.22-26.75L457.22-19.90L457.22-19.90Q457.22-19.07 456.99-18.50L456.99-18.50L456.99-18.50Q456.77-17.92 456.32-17.54L456.32-17.54L450.62-12.74L459.46-12.74L459.46-12.74Q460.99-12.74 461.70-12.03L461.70-12.03L461.70-12.03Q462.40-11.33 462.40-9.79L462.40-9.79L462.40-2.30L462.40-2.30Q462.40-1.47 462.18-0.90L462.18-0.90L462.18-0.90Q461.95-0.32 461.50 0.06L461.50 0.06L453.18 6.98L453.18 6.98Q452.93 7.23 452.38 7.42L452.38 7.42L452.38 7.42Q451.84 7.62 451.20 7.62ZM429.76 0L459.46 0L459.46 0Q460.67 0 461.22-0.54L461.22-0.54L461.22-0.54Q461.76-1.09 461.76-2.30L461.76-2.30L461.76-9.79L461.76-9.79Q461.76-11.01 461.22-11.55L461.22-11.55L461.22-11.55Q460.67-12.10 459.46-12.10L459.46-12.10L441.79-12.10L441.79-17.60L454.27-17.60L454.27-17.60Q455.49-17.60 456.03-18.14L456.03-18.14L456.03-18.14Q456.58-18.69 456.58-19.90L456.58-19.90L456.58-26.75L456.58-26.75Q456.58-27.97 456.03-28.51L456.03-28.51L456.03-28.51Q455.49-29.06 454.27-29.06L454.27-29.06L441.79-29.06L441.79-33.98L459.46-33.98L459.46-33.98Q460.67-33.98 461.22-34.53L461.22-34.53L461.22-34.53Q461.76-35.07 461.76-36.29L461.76-36.29L461.76-43.78L461.76-43.78Q461.76-44.99 461.22-45.54L461.22-45.54L461.22-45.54Q460.67-46.08 459.46-46.08L459.46-46.08L429.76-46.08L429.76-46.08Q428.54-46.08 428-45.54L428-45.54L428-45.54Q427.46-44.99 427.46-43.78L427.46-43.78L427.46-2.30L427.46-2.30Q427.46-1.09 428-0.54L428-0.54L428-0.54Q428.54 0 429.76 0L429.76 0ZM435.07-6.40L456-6.40L456-5.76L434.43-5.76L434.43-40.32L456-40.32L456-39.68L435.07-39.68L435.07-23.62L450.82-23.62L450.82-22.98L435.07-22.98L435.07-6.40ZM497.22-39.68L497.22-39.68L483.26-39.68L483.26-21.18L497.22-21.18L497.22-21.18Q501.18-21.18 502.53-23.10L502.53-23.10L502.53-23.10Q503.87-25.02 503.87-28.54L503.87-28.54L503.87-33.02L503.87-33.02Q503.87-35.97 502.24-37.82L502.24-37.82L502.24-37.82Q500.61-39.68 497.22-39.68ZM490.18-26.37L490.18-34.56L494.98-34.56L494.98-34.56Q496.64-34.56 497.22-33.70L497.22-33.70L497.22-33.70Q497.79-32.83 497.79-31.55L497.79-31.55L497.79-29.38L497.79-29.38Q497.79-28.10 497.22-27.23L497.22-27.23L497.22-27.23Q496.64-26.37 494.98-26.37L494.98-26.37L490.18-26.37ZM483.26-20.61L483.26-5.76L482.62-5.76L482.62-40.32L497.22-40.32L497.22-40.32Q500.93-40.32 502.72-38.24L502.72-38.24L502.72-38.24Q504.51-36.16 504.51-33.02L504.51-33.02L504.51-28.61L504.51-28.61Q504.51-25.66 503.74-23.78L503.74-23.78L503.74-23.78Q502.98-21.89 500.67-21.18L500.67-21.18L501.38-21.18L501.38-21.18Q505.28-21.18 507.20-19.42L507.20-19.42L507.20-19.42Q509.12-17.66 509.12-14.34L509.12-14.34L509.12-5.76L508.48-5.76L508.48-14.34L508.48-14.34Q508.48-17.47 506.75-19.04L506.75-19.04L506.75-19.04Q505.02-20.61 501.38-20.61L501.38-20.61L483.26-20.61ZM478.02 0L487.87 0L487.87 0Q489.09 0 489.63-0.54L489.63-0.54L489.63-0.54Q490.18-1.09 490.18-2.30L490.18-2.30L490.18-14.85L499.14-14.85L499.14-14.85Q500.48-14.85 501.02-14.18L501.02-14.18L501.02-14.18Q501.57-13.50 501.57-12.10L501.57-12.10L501.57-2.30L501.57-2.30Q501.57-1.09 502.11-0.54L502.11-0.54L502.11-0.54Q502.66 0 503.87 0L503.87 0L513.79 0L513.79 0Q515.01 0 515.55-0.54L515.55-0.54L515.55-0.54Q516.10-1.09 516.10-2.30L516.10-2.30L516.10-15.87L516.10-15.87Q516.10-19.90 513.95-22.34L513.95-22.34L513.95-22.34Q511.81-24.77 508.35-25.15L508.35-25.15L508.35-25.15Q510.34-25.98 511.14-27.87L511.14-27.87L511.14-27.87Q511.94-29.76 511.94-32.45L511.94-32.45L511.94-35.39L511.94-35.39Q511.94-40.13 509.22-43.10L509.22-43.10L509.22-43.10Q506.50-46.08 499.33-46.08L499.33-46.08L478.02-46.08L478.02-46.08Q476.80-46.08 476.26-45.54L476.26-45.54L476.26-45.54Q475.71-44.99 475.71-43.78L475.71-43.78L475.71-2.30L475.71-2.30Q475.71-1.09 476.26-0.54L476.26-0.54L476.26-0.54Q476.80 0 478.02 0L478.02 0ZM489.92 0.06L489.92 0.06L481.60 6.98L481.60 6.98Q481.34 7.23 480.80 7.42L480.80 7.42L480.80 7.42Q480.26 7.62 479.62 7.62L479.62 7.62L469.76 7.62L469.76 7.62Q468.22 7.62 467.52 6.91L467.52 6.91L467.52 6.91Q466.82 6.21 466.82 4.67L466.82 4.67L466.82-36.80L466.82-36.80Q466.82-37.63 467.04-38.21L467.04-38.21L467.04-38.21Q467.26-38.78 467.71-39.17L467.71-39.17L475.97-46.14L475.97-46.14Q476.29-46.40 476.83-46.56L476.83-46.56L476.83-46.56Q477.38-46.72 478.02-46.72L478.02-46.72L499.33-46.72L499.33-46.72Q506.94-46.72 509.76-43.55L509.76-43.55L509.76-43.55Q512.58-40.38 512.58-35.39L512.58-35.39L512.58-32.45L512.58-32.45Q512.58-30.08 512-28.32L512-28.32L512-28.32Q511.42-26.56 510.14-25.47L510.14-25.47L510.08-25.47L510.08-25.47Q513.09-24.64 514.91-22.14L514.91-22.14L514.91-22.14Q516.74-19.65 516.74-15.87L516.74-15.87L516.74-2.30L516.74-2.30Q516.74-1.47 516.51-0.90L516.51-0.90L516.51-0.90Q516.29-0.32 515.84 0.06L515.84 0.06L507.52 6.98L507.52 6.98Q507.26 7.23 506.72 7.42L506.72 7.42L506.72 7.42Q506.18 7.62 505.54 7.62L505.54 7.62L495.62 7.62L495.62 7.62Q494.08 7.62 493.38 6.91L493.38 6.91L493.38 6.91Q492.67 6.21 492.67 4.67L492.67 4.67L492.67-5.12L492.67-5.12Q492.67-6.14 492.29-6.69L492.29-6.69L492.29-6.69Q491.90-7.23 490.88-7.23L490.88-7.23L490.82-7.23L490.82-2.30L490.82-2.30Q490.82-1.47 490.59-0.90L490.59-0.90L490.59-0.90Q490.37-0.32 489.92 0.06ZM565.89-2.69L557.57 4.22L557.57 4.22Q555.58 5.89 552.51 6.75L552.51 6.75L552.51 6.75Q549.44 7.62 545.28 7.62L545.28 7.62L523.71 7.62L523.71 7.62Q522.18 7.62 521.47 6.91L521.47 6.91L521.47 6.91Q520.77 6.21 520.77 4.67L520.77 4.67L520.77-36.80L520.77-36.80Q520.77-37.63 520.99-38.21L520.99-38.21L520.99-38.21Q521.22-38.78 521.66-39.17L521.66-39.17L529.92-46.14L529.92-46.14Q530.24-46.40 530.78-46.56L530.78-46.56L530.78-46.56Q531.33-46.72 531.97-46.72L531.97-46.72L553.54-46.72L553.54-46.72Q561.92-46.72 565.92-43.33L565.92-43.33L565.92-43.33Q569.92-39.94 569.92-33.02L569.92-33.02L569.92-13.06L569.92-13.06Q569.92-9.60 568.90-7.01L568.90-7.01L568.90-7.01Q567.87-4.42 565.89-2.69L565.89-2.69ZM531.97 0L553.54 0L553.54 0Q561.54 0 565.41-3.20L565.41-3.20L565.41-3.20Q569.28-6.40 569.28-13.06L569.28-13.06L569.28-33.02L569.28-33.02Q569.28-39.68 565.41-42.88L565.41-42.88L565.41-42.88Q561.54-46.08 553.54-46.08L553.54-46.08L531.97-46.08L531.97-46.08Q530.75-46.08 530.21-45.54L530.21-45.54L530.21-45.54Q529.66-44.99 529.66-43.78L529.66-43.78L529.66-2.30L529.66-2.30Q529.66-1.09 530.21-0.54L530.21-0.54L530.21-0.54Q530.75 0 531.97 0L531.97 0ZM552.13-5.76L536.64-5.76L536.64-40.32L552.13-40.32L552.13-40.32Q555.39-40.32 557.41-39.62L557.41-39.62L557.41-39.62Q559.42-38.91 560.51-37.73L560.51-37.73L560.51-37.73Q561.60-36.54 561.98-34.91L561.98-34.91L561.98-34.91Q562.37-33.28 562.37-31.42L562.37-31.42L562.37-14.46L562.37-14.46Q562.37-12.61 562.02-11.01L562.02-11.01L562.02-11.01Q561.66-9.41 560.58-8.26L560.58-8.26L560.58-8.26Q559.49-7.10 557.44-6.43L557.44-6.43L557.44-6.43Q555.39-5.76 552.13-5.76L552.13-5.76ZM552.13-39.68L552.13-39.68L537.28-39.68L537.28-6.40L552.13-6.40L552.13-6.40Q555.20-6.40 557.09-7.01L557.09-7.01L557.09-7.01Q558.98-7.62 560-8.67L560-8.67L560-8.67Q561.02-9.73 561.38-11.23L561.38-11.23L561.38-11.23Q561.73-12.74 561.73-14.46L561.73-14.46L561.73-31.42L561.73-31.42Q561.73-33.15 561.34-34.69L561.34-34.69L561.34-34.69Q560.96-36.22 559.94-37.31L559.94-37.31L559.94-37.31Q558.91-38.40 557.02-39.04L557.02-39.04L557.02-39.04Q555.14-39.68 552.13-39.68ZM544.19-12.10L544.19-33.86L551.81-33.86L551.81-33.86Q553.34-33.86 554.08-33.12L554.08-33.12L554.08-33.12Q554.82-32.38 554.82-30.78L554.82-30.78L554.82-15.23L554.82-15.23Q554.82-13.63 554.08-12.86L554.08-12.86L554.08-12.86Q553.34-12.10 551.81-12.10L551.81-12.10L544.19-12.10ZM545.92-12.74L545.92-23.81L545.92-23.81Q545.92-24.64 545.66-25.22L545.66-25.22L545.66-25.22Q545.41-25.79 544.83-26.05L544.83-26.05L544.83-12.74L545.92-12.74Z" fill="none" stroke="#e9ffd4" stroke-width="1"></path></g></g><style>text {
  font-size: 64px;
  font-family: Arial Black;
  dominant-baseline: central;
  text-anchor: middle;
}</style></svg>