<svg width="723.03125px" height="220.4px" xmlns="http://www.w3.org/2000/svg" viewBox="-111.515625 -35.2 723.03125 220.4" style="background: rgba(0, 0, 0, 0);" preserveAspectRatio="xMidYMid"><defs><filter id="editing-neon" x="-100%" y="-100%" width="300%" height="300%"><feFlood flood-color="#379e4a" result="flood"></feFlood><feComposite operator="in" in="flood" in2="SourceAlpha" result="color"></feComposite><feFlood flood-color="#379e4a" result="flood2"></feFlood><feComposite operator="in" in="flood2" in2="SourceAlpha" result="color2"></feComposite><feMorphology operator="dilate" radius="2" in="color" result="dilate"></feMorphology><feGaussianBlur stdDeviation="6" in="color" result="blur1"></feGaussianBlur><feGaussianBlur stdDeviation="2.5" in="color" result="blur2"></feGaussianBlur><feGaussianBlur stdDeviation="1" in="SourceAlpha" result="blur3"></feGaussianBlur><feGaussianBlur stdDeviation="6" in="dilate" result="blur4"></feGaussianBlur><feConvolveMatrix in="color2" result="conv" order="3,3" divisor="1" kernelMatrix="1 1 1  1 1 1  1 1 1"></feConvolveMatrix><feMerge><feMergeNode in="blur1"></feMergeNode><feMergeNode in="blur2"></feMergeNode><feMergeNode in="blur4"></feMergeNode><feMergeNode in="blur3"></feMergeNode><feMergeNode in="blur3"></feMergeNode><feMergeNode in="blur3"></feMergeNode><feMergeNode in="blur3"></feMergeNode><feMergeNode in="conv"></feMergeNode><feMergeNode in="SourceGraphic"></feMergeNode></feMerge></filter></defs><g filter="url(#editing-neon)"><g transform="translate(-8.740012407302856, 100.05499768257141)"><path d="M18.39 7.77L18.39 7.77L18.39 7.77Q13.11 7.77 9.71 6.58L9.71 6.58L9.71 6.58Q6.32 5.39 4.38 3.42L4.38 3.42L4.38 3.42Q2.44 1.45 1.71-1.10L1.71-1.10L1.71-1.10Q0.99-3.65 0.99-6.38L0.99-6.38L0.99-14.04L0.99-14.04Q0.99-14.79 1.19-15.34L1.19-15.34L1.19-15.34Q1.39-15.89 1.74-16.18L1.74-16.18L9.28-22.50L9.28-22.50Q9.57-22.74 10.03-22.88L10.03-22.88L10.03-22.88Q10.50-23.03 11.14-23.03L11.14-23.03L19.55-23.03L19.55-23.03Q20.18-23.03 20.68-22.88L20.68-22.88L20.68-22.88Q21.17-22.74 21.52-22.45L21.52-22.45L21.52-33.35L21.52-33.35Q21.52-34.10 21.72-34.63L21.72-34.63L21.72-34.63Q21.92-35.15 22.33-35.50L22.33-35.50L29.81-41.82L29.81-41.82Q30.10-42.05 30.60-42.20L30.60-42.20L30.60-42.20Q31.09-42.34 31.67-42.34L31.67-42.34L40.77-42.34L40.77-42.34Q42.17-42.34 42.80-41.70L42.80-41.70L42.80-41.70Q43.44-41.06 43.44-39.67L43.44-39.67L43.44-10.96L43.44-10.96Q43.44-8.24 42.66-5.95L42.66-5.95L42.66-5.95Q41.88-3.65 39.90-2.03L39.90-2.03L32.42 4.29L32.42 4.29Q30.45 5.92 27.09 6.84L27.09 6.84L27.09 6.84Q23.72 7.77 18.39 7.77ZM42.86-10.96L42.86-10.96L42.86-39.67L42.86-39.67Q42.86-40.77 42.37-41.27L42.37-41.27L42.37-41.27Q41.88-41.76 40.77-41.76L40.77-41.76L31.67-41.76L31.67-41.76Q30.57-41.76 30.07-41.27L30.07-41.27L30.07-41.27Q29.58-40.77 29.58-39.67L29.58-39.67L29.58-13.28L29.58-13.28Q29.58-12.12 28.91-11.34L28.91-11.34L28.91-11.34Q28.25-10.56 25.75-10.56L25.75-10.56L25.75-10.56Q23.08-10.56 22.36-11.34L22.36-11.34L22.36-11.34Q21.63-12.12 21.63-13.28L21.63-13.28L21.63-20.36L21.63-20.36Q21.63-21.46 21.14-21.95L21.14-21.95L21.14-21.95Q20.65-22.45 19.55-22.45L19.55-22.45L11.14-22.45L11.14-22.45Q10.03-22.45 9.54-21.95L9.54-21.95L9.54-21.95Q9.05-21.46 9.05-20.36L9.05-20.36L9.05-10.96L9.05-10.96Q9.05-8.29 9.77-6.12L9.77-6.12L9.77-6.12Q10.50-3.94 12.38-2.41L12.38-2.41L12.38-2.41Q14.27-0.87 17.55 0L17.55 0L17.55 0Q20.82 0.87 25.87 0.87L25.87 0.87L25.87 0.87Q30.97 0.87 34.28 0L34.28 0L34.28 0Q37.58-0.87 39.47-2.41L39.47-2.41L39.47-2.41Q41.35-3.94 42.11-6.12L42.11-6.12L42.11-6.12Q42.86-8.29 42.86-10.96ZM35.90-12.35L35.90-36.54L36.48-36.54L36.48-12.35L36.48-12.35Q36.48-8.93 34.31-6.73L34.31-6.73L34.31-6.73Q32.13-4.52 25.98-4.52L25.98-4.52L25.98-4.52Q22.74-4.52 20.62-5.10L20.62-5.10L20.62-5.10Q18.50-5.68 17.28-6.70L17.28-6.70L17.28-6.70Q16.07-7.71 15.57-9.16L15.57-9.16L15.57-9.16Q15.08-10.61 15.08-12.35L15.08-12.35L15.08-16.94L15.66-16.94L15.66-12.35L15.66-12.35Q15.66-9.05 17.84-7.08L17.84-7.08L17.84-7.08Q20.01-5.10 25.98-5.10L25.98-5.10L25.98-5.10Q31.73-5.10 33.81-7.11L33.81-7.11L33.81-7.11Q35.90-9.11 35.90-12.35L35.90-12.35ZM62.23-17.57L62.23-17.57L62.23-15.78L84.85-15.78L84.85-17.57L84.85-17.57Q84.85-19.14 84.59-20.47L84.59-20.47L84.59-20.47Q84.33-21.81 83.93-22.97L83.93-22.97L79.92-32.42L79.92-32.42Q79.29-33.93 78.59-34.95L78.59-34.95L78.59-34.95Q77.89-35.96 76.27-35.96L76.27-35.96L70.59-35.96L70.59-35.96Q68.85-35.96 68.15-34.95L68.15-34.95L68.15-34.95Q67.45-33.93 66.87-32.48L66.87-32.48L63.16-22.97L63.16-22.97Q62.76-21.81 62.50-20.47L62.50-20.47L62.50-20.47Q62.23-19.14 62.23-17.57ZM68.79-20.76L71.51-29.58L71.51-29.58Q71.75-30.10 72.01-30.33L72.01-30.33L72.01-30.33Q72.27-30.57 72.62-30.57L72.62-30.57L74.07-30.57L74.07-30.57Q74.41-30.57 74.67-30.33L74.67-30.33L74.67-30.33Q74.94-30.10 75.17-29.58L75.17-29.58L77.89-20.76L68.79-20.76ZM85.43-5.22L84.85-5.22L84.85-15.20L62.23-15.20L62.23-5.22L61.65-5.22L61.65-17.57L61.65-17.57Q61.65-19.20 61.92-20.56L61.92-20.56L61.92-20.56Q62.18-21.92 62.64-23.20L62.64-23.20L66.35-32.71L66.35-32.71Q66.99-34.34 67.80-35.44L67.80-35.44L67.80-35.44Q68.61-36.54 70.59-36.54L70.59-36.54L76.27-36.54L76.27-36.54Q78.18-36.54 78.97-35.44L78.97-35.44L78.97-35.44Q79.75-34.34 80.45-32.65L80.45-32.65L84.45-23.20L84.45-23.20Q84.91-21.92 85.17-20.56L85.17-20.56L85.17-20.56Q85.43-19.20 85.43-17.57L85.43-17.57L85.43-5.22ZM68.21-2.09L68.21-2.09L68.21-10.21L78.47-10.21L78.47-2.09L78.47-2.09Q78.47-0.99 79.03-0.49L79.03-0.49L79.03-0.49Q79.58 0 80.74 0L80.74 0L89.49 0L89.49 0Q90.60 0 91.09-0.49L91.09-0.49L91.09-0.49Q91.58-0.99 91.58-2.09L91.58-2.09L91.58-17.40L91.58-17.40Q91.58-19.14 91.03-21.40L91.03-21.40L91.03-21.40Q90.48-23.66 89.32-26.68L89.32-26.68L84.27-39.85L84.27-39.85Q83.93-40.83 83.20-41.30L83.20-41.30L83.20-41.30Q82.48-41.76 81.37-41.76L81.37-41.76L65.77-41.76L65.77-41.76Q64.61-41.76 63.89-41.30L63.89-41.30L63.89-41.30Q63.16-40.83 62.81-39.85L62.81-39.85L57.77-26.68L57.77-26.68Q56.61-23.66 56.06-21.40L56.06-21.40L56.06-21.40Q55.51-19.14 55.51-17.40L55.51-17.40L55.51-2.09L55.51-2.09Q55.51-0.99 56.00-0.49L56.00-0.49L56.00-0.49Q56.49 0 57.59 0L57.59 0L66.12 0L66.12 0Q67.22 0 67.72-0.49L67.72-0.49L67.72-0.49Q68.21-0.99 68.21-2.09ZM67.98 0.06L60.44 6.32L60.44 6.32Q60.20 6.55 59.71 6.73L59.71 6.73L59.71 6.73Q59.22 6.90 58.64 6.90L58.64 6.90L50.11 6.90L50.11 6.90Q48.72 6.90 48.08 6.26L48.08 6.26L48.08 6.26Q47.44 5.63 47.44 4.23L47.44 4.23L47.44-11.08L47.44-11.08Q47.44-12.88 47.99-15.17L47.99-15.17L47.99-15.17Q48.55-17.46 49.76-20.59L49.76-20.59L54.75-33.70L54.75-33.70Q54.93-34.22 55.19-34.60L55.19-34.60L55.19-34.60Q55.45-34.97 55.74-35.26L55.74-35.26L55.80-35.32L63.22-41.53L63.22-41.53Q63.68-41.93 64.32-42.14L64.32-42.14L64.32-42.14Q64.96-42.34 65.77-42.34L65.77-42.34L81.37-42.34L81.37-42.34Q82.71-42.34 83.55-41.79L83.55-41.79L83.55-41.79Q84.39-41.24 84.80-40.08L84.80-40.08L89.84-26.91L89.84-26.91Q91.06-23.78 91.61-21.49L91.61-21.49L91.61-21.49Q92.16-19.20 92.16-17.40L92.16-17.40L92.16-2.09L92.16-2.09Q92.16-1.33 91.96-0.81L91.96-0.81L91.96-0.81Q91.76-0.29 91.35 0.06L91.35 0.06L83.81 6.32L83.81 6.32Q83.58 6.55 83.09 6.73L83.09 6.73L83.09 6.73Q82.59 6.90 82.01 6.90L82.01 6.90L73.25 6.90L73.25 6.90Q71.80 6.90 71.11 6.24L71.11 6.24L71.11 6.24Q70.41 5.57 70.41 4.23L70.41 4.23L70.41-3.31L68.79-3.31L68.79-2.09L68.79-2.09Q68.79-1.33 68.59-0.81L68.59-0.81L68.59-0.81Q68.38-0.29 67.98 0.06L67.98 0.06ZM118.20 6.90L118.20 6.90L108.81 6.90L108.81 6.90Q107.36 6.90 106.75 6.26L106.75 6.26L106.75 6.26Q106.14 5.63 106.14 4.23L106.14 4.23L106.14-3.02L97.38-14.73L97.38-14.73Q95.99-16.59 95.53-17.98L95.53-17.98L95.53-17.98Q95.06-19.37 95.06-22.21L95.06-22.21L95.06-33.35L95.06-33.35Q95.06-34.10 95.27-34.63L95.27-34.63L95.27-34.63Q95.47-35.15 95.87-35.50L95.87-35.50L103.36-41.82L103.36-41.82Q103.65-42.05 104.14-42.20L104.14-42.20L104.14-42.20Q104.63-42.34 105.21-42.34L105.21-42.34L114.14-42.34L114.14-42.34Q115.54-42.34 116.17-41.70L116.17-41.70L116.17-41.70Q116.81-41.06 116.81-39.67L116.81-39.67L116.81-30.16L116.81-30.16Q116.81-29.64 116.87-29.12L116.87-29.12L116.87-29.12Q116.93-28.59 117.22-28.01L117.22-28.01L117.91-27.03L117.91-33.35L117.91-33.35Q117.91-34.10 118.12-34.63L118.12-34.63L118.12-34.63Q118.32-35.15 118.73-35.50L118.73-35.50L126.21-41.82L126.21-41.82Q126.50-42.05 126.99-42.20L126.99-42.20L126.99-42.20Q127.48-42.34 128.06-42.34L128.06-42.34L136.71-42.34L136.71-42.34Q138.10-42.34 138.74-41.70L138.74-41.70L138.74-41.70Q139.37-41.06 139.37-39.67L139.37-39.67L139.37-28.54L139.37-28.54Q139.37-25.69 138.91-24.30L138.91-24.30L138.91-24.30Q138.45-22.91 137.05-21.05L137.05-21.05L128.35-9.28L128.35-2.09L128.35-2.09Q128.35-1.33 128.15-0.81L128.15-0.81L128.15-0.81Q127.95-0.29 127.54 0.06L127.54 0.06L120.00 6.32L120.00 6.32Q119.77 6.55 119.28 6.73L119.28 6.73L119.28 6.73Q118.78 6.90 118.20 6.90ZM116.29 0L125.69 0L125.69 0Q126.79 0 127.28-0.49L127.28-0.49L127.28-0.49Q127.77-0.99 127.77-2.09L127.77-2.09L127.77-9.45L136.59-21.40L136.59-21.40Q137.87-23.20 138.33-24.53L138.33-24.53L138.33-24.53Q138.79-25.87 138.79-28.54L138.79-28.54L138.79-39.67L138.79-39.67Q138.79-40.77 138.30-41.27L138.30-41.27L138.30-41.27Q137.81-41.76 136.71-41.76L136.71-41.76L128.06-41.76L128.06-41.76Q126.96-41.76 126.47-41.27L126.47-41.27L126.47-41.27Q125.98-40.77 125.98-39.67L125.98-39.67L125.98-30.16L125.98-30.16Q125.98-29.58 125.92-28.94L125.92-28.94L125.92-28.94Q125.86-28.30 125.45-27.72L125.45-27.72L122.79-23.55L122.79-23.55Q122.50-23.03 122.18-22.79L122.18-22.79L122.18-22.79Q121.86-22.56 121.39-22.56L121.39-22.56L120.81-22.56L120.81-22.56Q120.35-22.56 120.03-22.79L120.03-22.79L120.03-22.79Q119.71-23.03 119.42-23.55L119.42-23.55L116.75-27.72L116.75-27.72Q116.35-28.30 116.29-28.94L116.29-28.94L116.29-28.94Q116.23-29.58 116.23-30.16L116.23-30.16L116.23-39.67L116.23-39.67Q116.23-40.77 115.74-41.27L115.74-41.27L115.74-41.27Q115.25-41.76 114.14-41.76L114.14-41.76L105.21-41.76L105.21-41.76Q104.11-41.76 103.62-41.27L103.62-41.27L103.62-41.27Q103.12-40.77 103.12-39.67L103.12-39.67L103.12-28.54L103.12-28.54Q103.12-25.87 103.56-24.53L103.56-24.53L103.56-24.53Q103.99-23.20 105.33-21.40L105.33-21.40L114.20-9.51L114.20-2.09L114.20-2.09Q114.20-0.99 114.69-0.49L114.69-0.49L114.69-0.49Q115.19 0 116.29 0L116.29 0ZM121.68-15.14L121.68-15.14L121.28-15.14L121.28-5.22L120.70-5.22L120.70-15.14L120.12-15.14L120.12-15.14Q118.84-15.14 117.83-15.72L117.83-15.72L117.83-15.72Q116.81-16.30 115.88-17.57L115.88-17.57L110.26-25.40L110.26-25.40Q109.62-26.27 109.50-27.43L109.50-27.43L109.50-27.43Q109.39-28.59 109.39-29.87L109.39-29.87L109.39-36.54L109.97-36.54L109.97-29.87L109.97-29.87Q109.97-28.65 110.08-27.58L110.08-27.58L110.08-27.58Q110.20-26.51 110.78-25.64L110.78-25.64L116.41-17.81L116.41-17.81Q117.16-16.65 118.15-16.18L118.15-16.18L118.15-16.18Q119.13-15.72 120.12-15.72L120.12-15.72L121.68-15.72L121.68-15.72Q122.79-15.72 123.69-16.21L123.69-16.21L123.69-16.21Q124.58-16.70 125.45-17.81L125.45-17.81L131.25-25.64L131.25-25.64Q131.83-26.39 131.95-27.52L131.95-27.52L131.95-27.52Q132.07-28.65 132.07-29.87L132.07-29.87L132.07-36.54L132.65-36.54L132.65-29.87L132.65-29.87Q132.65-28.59 132.56-27.46L132.56-27.46L132.56-27.46Q132.47-26.33 131.78-25.40L131.78-25.40L125.98-17.57L125.98-17.57Q125.05-16.30 124.03-15.72L124.03-15.72L124.03-15.72Q123.02-15.14 121.68-15.14ZM168.08 6.90L145.81 6.90L145.81 6.90Q144.42 6.90 143.78 6.26L143.78 6.26L143.78 6.26Q143.14 5.63 143.14 4.23L143.14 4.23L143.14-33.35L143.14-33.35Q143.14-34.10 143.35-34.63L143.35-34.63L143.35-34.63Q143.55-35.15 143.96-35.50L143.96-35.50L151.44-41.82L151.44-41.82Q151.73-42.05 152.22-42.20L152.22-42.20L152.22-42.20Q152.71-42.34 153.29-42.34L153.29-42.34L171.80-42.34L171.80-42.34Q177.83-42.34 180.67-39.99L180.67-39.99L180.67-39.99Q183.51-37.64 183.51-32.89L183.51-32.89L183.51-30.10L183.51-30.10Q183.51-28.07 182.96-26.62L182.96-26.62L182.96-26.62Q182.41-25.17 181.31-24.30L181.31-24.30L181.13-24.19L181.13-24.19Q184.27-23.49 185.83-21.20L185.83-21.20L185.83-21.20Q187.40-18.91 187.40-14.85L187.40-14.85L187.40-9.51L187.40-9.51Q187.40-6.90 186.64-5.02L186.64-5.02L186.64-5.02Q185.89-3.13 184.38-1.86L184.38-1.86L176.90 4.47L176.90 4.47Q175.45 5.68 173.25 6.29L173.25 6.29L173.25 6.29Q171.04 6.90 168.08 6.90L168.08 6.90ZM153.29 0L175.57 0L175.57 0Q181.31 0 184.06-2.32L184.06-2.32L184.06-2.32Q186.82-4.64 186.82-9.51L186.82-9.51L186.82-14.85L186.82-14.85Q186.82-19.08 185.02-21.29L185.02-21.29L185.02-21.29Q183.22-23.49 179.51-23.84L179.51-23.84L179.51-23.84Q181.25-24.59 182.09-26.13L182.09-26.13L182.09-26.13Q182.93-27.67 182.93-30.10L182.93-30.10L182.93-32.89L182.93-32.89Q182.93-37.41 180.21-39.59L180.21-39.59L180.21-39.59Q177.48-41.76 171.80-41.76L171.80-41.76L153.29-41.76L153.29-41.76Q152.19-41.76 151.70-41.27L151.70-41.27L151.70-41.27Q151.21-40.77 151.21-39.67L151.21-39.67L151.21-2.09L151.21-2.09Q151.21-0.99 151.70-0.49L151.70-0.49L151.70-0.49Q152.19 0 153.29 0L153.29 0ZM173.25-5.22L173.25-5.22L157.64-5.22L157.64-36.54L169.42-36.54L169.42-36.54Q171.80-36.54 173.30-36.05L173.30-36.05L173.30-36.05Q174.81-35.55 175.62-34.71L175.62-34.71L175.62-34.71Q176.44-33.87 176.73-32.77L176.73-32.77L176.73-32.77Q177.02-31.67 177.02-30.39L177.02-30.39L177.02-26.68L177.02-26.68Q177.02-24.94 176.41-23.49L176.41-23.49L176.41-23.49Q175.80-22.04 173.30-21.40L173.30-21.40L173.30-21.40Q175.68-21.40 177.19-20.91L177.19-20.91L177.19-20.91Q178.70-20.42 179.51-19.52L179.51-19.52L179.51-19.52Q180.32-18.62 180.58-17.40L180.58-17.40L180.58-17.40Q180.84-16.18 180.84-14.73L180.84-14.73L180.84-11.02L180.84-11.02Q180.84-9.74 180.55-8.67L180.55-8.67L180.55-8.67Q180.26-7.60 179.48-6.84L179.48-6.84L179.48-6.84Q178.70-6.09 177.19-5.66L177.19-5.66L177.19-5.66Q175.68-5.22 173.25-5.22ZM169.42-35.96L169.42-35.96L158.22-35.96L158.22-21.40L169.42-21.40L169.42-21.40Q171.80-21.40 173.19-21.84L173.19-21.84L173.19-21.84Q174.58-22.27 175.31-23.00L175.31-23.00L175.31-23.00Q176.03-23.72 176.23-24.68L176.23-24.68L176.23-24.68Q176.44-25.64 176.44-26.68L176.44-26.68L176.44-30.39L176.44-30.39Q176.44-32.71 175.10-34.34L175.10-34.34L175.10-34.34Q173.77-35.96 169.42-35.96ZM164.26-25.64L164.26-31.90L169.19-31.90L169.19-31.90Q170.29-31.90 170.84-31.32L170.84-31.32L170.84-31.32Q171.39-30.74 171.39-29.58L171.39-29.58L171.39-27.96L171.39-27.96Q171.39-26.80 170.84-26.22L170.84-26.22L170.84-26.22Q170.29-25.64 169.19-25.64L169.19-25.64L164.26-25.64ZM173.30-20.82L173.30-20.82L158.22-20.82L158.22-5.80L173.25-5.80L173.25-5.80Q177.60-5.80 178.93-7.22L178.93-7.22L178.93-7.22Q180.26-8.64 180.26-11.02L180.26-11.02L180.26-14.73L180.26-14.73Q180.26-17.34 178.96-19.08L178.96-19.08L178.96-19.08Q177.65-20.82 173.30-20.82ZM164.26-9.86L164.26-16.70L171.80-16.70L171.80-16.70Q172.90-16.70 173.45-16.15L173.45-16.15L173.45-16.15Q174-15.60 174-14.44L174-14.44L174-12.18L174-12.18Q174-11.02 173.45-10.44L173.45-10.44L173.45-10.44Q172.90-9.86 171.80-9.86L171.80-9.86L164.26-9.86ZM217.44 6.90L217.44 6.90L192.73 6.90L192.73 6.90Q191.34 6.90 190.70 6.26L190.70 6.26L190.70 6.26Q190.07 5.63 190.07 4.23L190.07 4.23L190.07-2.67L190.07-2.67Q190.07-3.42 190.27-3.94L190.27-3.94L190.27-3.94Q190.47-4.47 190.88-4.81L190.88-4.81L197.90-10.73L197.90-23.66L192.73-23.66L192.73-23.66Q191.34-23.66 190.70-24.30L190.70-24.30L190.70-24.30Q190.07-24.94 190.07-26.33L190.07-26.33L190.07-33.35L190.07-33.35Q190.07-34.10 190.27-34.63L190.27-34.63L190.27-34.63Q190.47-35.15 190.88-35.50L190.88-35.50L198.36-41.82L198.36-41.82Q198.65-42.05 199.14-42.20L199.14-42.20L199.14-42.20Q199.64-42.34 200.22-42.34L200.22-42.34L224.92-42.34L224.92-42.34Q226.32-42.34 226.95-41.70L226.95-41.70L226.95-41.70Q227.59-41.06 227.59-39.67L227.59-39.67L227.59-32.65L227.59-32.65Q227.59-31.90 227.39-31.38L227.39-31.38L227.39-31.38Q227.19-30.86 226.78-30.51L226.78-30.51L219.88-24.71L219.88-11.66L224.92-11.66L224.92-11.66Q226.32-11.66 226.95-11.02L226.95-11.02L226.95-11.02Q227.59-10.38 227.59-8.99L227.59-8.99L227.59-2.09L227.59-2.09Q227.59-1.33 227.39-0.81L227.39-0.81L227.39-0.81Q227.19-0.29 226.78 0.06L226.78 0.06L219.24 6.32L219.24 6.32Q219.01 6.55 218.51 6.73L218.51 6.73L218.51 6.73Q218.02 6.90 217.44 6.90ZM200.22 0L200.22 0L224.92 0L224.92 0Q226.03 0 226.52-0.49L226.52-0.49L226.52-0.49Q227.01-0.99 227.01-2.09L227.01-2.09L227.01-8.99L227.01-8.99Q227.01-10.09 226.52-10.59L226.52-10.59L226.52-10.59Q226.03-11.08 224.92-11.08L224.92-11.08L219.30-11.08L219.30-30.57L224.92-30.57L224.92-30.57Q226.03-30.57 226.52-31.06L226.52-31.06L226.52-31.06Q227.01-31.55 227.01-32.65L227.01-32.65L227.01-39.67L227.01-39.67Q227.01-40.77 226.52-41.27L226.52-41.27L226.52-41.27Q226.03-41.76 224.92-41.76L224.92-41.76L200.22-41.76L200.22-41.76Q199.11-41.76 198.62-41.27L198.62-41.27L198.62-41.27Q198.13-40.77 198.13-39.67L198.13-39.67L198.13-32.65L198.13-32.65Q198.13-31.55 198.62-31.06L198.62-31.06L198.62-31.06Q199.11-30.57 200.22-30.57L200.22-30.57L205.96-30.57L205.96-11.08L200.22-11.08L200.22-11.08Q199.11-11.08 198.62-10.59L198.62-10.59L198.62-10.59Q198.13-10.09 198.13-8.99L198.13-8.99L198.13-2.09L198.13-2.09Q198.13-0.99 198.62-0.49L198.62-0.49L198.62-0.49Q199.11 0 200.22 0ZM221.79-5.80L221.79-5.22L203.35-5.22L203.35-5.80L212.34-5.80L212.34-35.96L203.35-35.96L203.35-36.54L221.79-36.54L221.79-35.96L212.92-35.96L212.92-5.80L221.79-5.80ZM259.43-35.96L259.43-35.96L246.79-35.96L246.79-19.20L259.43-19.20L259.43-19.20Q263.03-19.20 264.25-20.94L264.25-20.94L264.25-20.94Q265.47-22.68 265.47-25.87L265.47-25.87L265.47-29.93L265.47-29.93Q265.47-32.60 263.99-34.28L263.99-34.28L263.99-34.28Q262.51-35.96 259.43-35.96ZM253.05-23.90L253.05-31.32L257.40-31.32L257.40-31.32Q258.91-31.32 259.43-30.54L259.43-30.54L259.43-30.54Q259.96-29.75 259.96-28.59L259.96-28.59L259.96-26.62L259.96-26.62Q259.96-25.46 259.43-24.68L259.43-24.68L259.43-24.68Q258.91-23.90 257.40-23.90L257.40-23.90L253.05-23.90ZM246.79-18.68L246.79-5.22L246.21-5.22L246.21-36.54L259.43-36.54L259.43-36.54Q262.80-36.54 264.42-34.66L264.42-34.66L264.42-34.66Q266.05-32.77 266.05-29.93L266.05-29.93L266.05-25.93L266.05-25.93Q266.05-23.26 265.35-21.55L265.35-21.55L265.35-21.55Q264.65-19.84 262.57-19.20L262.57-19.20L263.20-19.20L263.20-19.20Q266.74-19.20 268.48-17.60L268.48-17.60L268.48-17.60Q270.22-16.01 270.22-12.99L270.22-12.99L270.22-5.22L269.64-5.22L269.64-12.99L269.64-12.99Q269.64-15.83 268.08-17.26L268.08-17.26L268.08-17.26Q266.51-18.68 263.20-18.68L263.20-18.68L246.79-18.68ZM242.03 0L250.97 0L250.97 0Q252.07 0 252.56-0.49L252.56-0.49L252.56-0.49Q253.05-0.99 253.05-2.09L253.05-2.09L253.05-13.46L261.17-13.46L261.17-13.46Q262.39-13.46 262.88-12.85L262.88-12.85L262.88-12.85Q263.38-12.24 263.38-10.96L263.38-10.96L263.38-2.09L263.38-2.09Q263.38-0.99 263.87-0.49L263.87-0.49L263.87-0.49Q264.36 0 265.47 0L265.47 0L274.46 0L274.46 0Q275.56 0 276.05-0.49L276.05-0.49L276.05-0.49Q276.54-0.99 276.54-2.09L276.54-2.09L276.54-14.38L276.54-14.38Q276.54-18.04 274.60-20.24L274.60-20.24L274.60-20.24Q272.66-22.45 269.53-22.79L269.53-22.79L269.53-22.79Q271.32-23.55 272.05-25.26L272.05-25.26L272.05-25.26Q272.77-26.97 272.77-29.41L272.77-29.41L272.77-32.07L272.77-32.07Q272.77-36.37 270.31-39.06L270.31-39.06L270.31-39.06Q267.84-41.76 261.35-41.76L261.35-41.76L242.03-41.76L242.03-41.76Q240.93-41.76 240.44-41.27L240.44-41.27L240.44-41.27Q239.95-40.77 239.95-39.67L239.95-39.67L239.95-2.09L239.95-2.09Q239.95-0.99 240.44-0.49L240.44-0.49L240.44-0.49Q240.93 0 242.03 0L242.03 0ZM252.82 0.06L252.82 0.06L245.28 6.32L245.28 6.32Q245.05 6.55 244.56 6.73L244.56 6.73L244.56 6.73Q244.06 6.90 243.48 6.90L243.48 6.90L234.55 6.90L234.55 6.90Q233.16 6.90 232.52 6.26L232.52 6.26L232.52 6.26Q231.88 5.63 231.88 4.23L231.88 4.23L231.88-33.35L231.88-33.35Q231.88-34.10 232.09-34.63L232.09-34.63L232.09-34.63Q232.29-35.15 232.70-35.50L232.70-35.50L240.18-41.82L240.18-41.82Q240.47-42.05 240.96-42.20L240.96-42.20L240.96-42.20Q241.45-42.34 242.03-42.34L242.03-42.34L261.35-42.34L261.35-42.34Q268.25-42.34 270.80-39.47L270.80-39.47L270.80-39.47Q273.35-36.60 273.35-32.07L273.35-32.07L273.35-29.41L273.35-29.41Q273.35-27.26 272.83-25.67L272.83-25.67L272.83-25.67Q272.31-24.07 271.15-23.08L271.15-23.08L271.09-23.08L271.09-23.08Q273.82-22.33 275.47-20.07L275.47-20.07L275.47-20.07Q277.12-17.81 277.12-14.38L277.12-14.38L277.12-2.09L277.12-2.09Q277.12-1.33 276.92-0.81L276.92-0.81L276.92-0.81Q276.72-0.29 276.31 0.06L276.31 0.06L268.77 6.32L268.77 6.32Q268.54 6.55 268.05 6.73L268.05 6.73L268.05 6.73Q267.55 6.90 266.97 6.90L266.97 6.90L257.98 6.90L257.98 6.90Q256.59 6.90 255.95 6.26L255.95 6.26L255.95 6.26Q255.32 5.63 255.32 4.23L255.32 4.23L255.32-4.64L255.32-4.64Q255.32-5.57 254.97-6.06L254.97-6.06L254.97-6.06Q254.62-6.55 253.69-6.55L253.69-6.55L253.63-6.55L253.63-2.09L253.63-2.09Q253.63-1.33 253.43-0.81L253.43-0.81L253.43-0.81Q253.23-0.29 252.82 0.06ZM321.67-2.44L314.13 3.83L314.13 3.83Q312.33 5.34 309.55 6.12L309.55 6.12L309.55 6.12Q306.76 6.90 302.99 6.90L302.99 6.90L283.45 6.90L283.45 6.90Q282.05 6.90 281.42 6.26L281.42 6.26L281.42 6.26Q280.78 5.63 280.78 4.23L280.78 4.23L280.78-33.35L280.78-33.35Q280.78-34.10 280.98-34.63L280.98-34.63L280.98-34.63Q281.18-35.15 281.59-35.50L281.59-35.50L289.07-41.82L289.07-41.82Q289.36-42.05 289.86-42.20L289.86-42.20L289.86-42.20Q290.35-42.34 290.93-42.34L290.93-42.34L310.47-42.34L310.47-42.34Q318.07-42.34 321.70-39.27L321.70-39.27L321.70-39.27Q325.32-36.19 325.32-29.93L325.32-29.93L325.32-11.83L325.32-11.83Q325.32-8.70 324.39-6.35L324.39-6.35L324.39-6.35Q323.47-4.00 321.67-2.44L321.67-2.44ZM290.93 0L310.47 0L310.47 0Q317.72 0 321.23-2.90L321.23-2.90L321.23-2.90Q324.74-5.80 324.74-11.83L324.74-11.83L324.74-29.93L324.74-29.93Q324.74-35.96 321.23-38.86L321.23-38.86L321.23-38.86Q317.72-41.76 310.47-41.76L310.47-41.76L290.93-41.76L290.93-41.76Q289.83-41.76 289.33-41.27L289.33-41.27L289.33-41.27Q288.84-40.77 288.84-39.67L288.84-39.67L288.84-2.09L288.84-2.09Q288.84-0.99 289.33-0.49L289.33-0.49L289.33-0.49Q289.83 0 290.93 0L290.93 0ZM309.20-5.22L295.16-5.22L295.16-36.54L309.20-36.54L309.20-36.54Q312.16-36.54 313.98-35.90L313.98-35.90L313.98-35.90Q315.81-35.26 316.80-34.19L316.80-34.19L316.80-34.19Q317.78-33.12 318.13-31.64L318.13-31.64L318.13-31.64Q318.48-30.16 318.48-28.48L318.48-28.48L318.48-13.11L318.48-13.11Q318.48-11.43 318.16-9.98L318.16-9.98L318.16-9.98Q317.84-8.53 316.85-7.48L316.85-7.48L316.85-7.48Q315.87-6.44 314.01-5.83L314.01-5.83L314.01-5.83Q312.16-5.22 309.20-5.22L309.20-5.22ZM309.20-35.96L309.20-35.96L295.74-35.96L295.74-5.80L309.20-5.80L309.20-5.80Q311.98-5.80 313.69-6.35L313.69-6.35L313.69-6.35Q315.40-6.90 316.33-7.86L316.33-7.86L316.33-7.86Q317.26-8.82 317.58-10.18L317.58-10.18L317.58-10.18Q317.90-11.54 317.90-13.11L317.90-13.11L317.90-28.48L317.90-28.48Q317.90-30.04 317.55-31.44L317.55-31.44L317.55-31.44Q317.20-32.83 316.27-33.81L316.27-33.81L316.27-33.81Q315.35-34.80 313.63-35.38L313.63-35.38L313.63-35.38Q311.92-35.96 309.20-35.96ZM302.01-10.96L302.01-30.68L308.91-30.68L308.91-30.68Q310.30-30.68 310.97-30.02L310.97-30.02L310.97-30.02Q311.63-29.35 311.63-27.90L311.63-27.90L311.63-13.80L311.63-13.80Q311.63-12.35 310.97-11.66L310.97-11.66L310.97-11.66Q310.30-10.96 308.91-10.96L308.91-10.96L302.01-10.96ZM303.57-11.54L303.57-21.58L303.57-21.58Q303.57-22.33 303.34-22.85L303.34-22.85L303.34-22.85Q303.11-23.37 302.59-23.61L302.59-23.61L302.59-11.54L303.57-11.54ZM345.56-36.08L345.56-36.08L366.91-12.06L366.91-36.54L367.49-36.54L367.49-5.22L366.91-5.22L366.91-11.19L344.98-35.79L344.98-35.79Q344.93-35.84 344.84-35.90L344.84-35.90L344.84-35.90Q344.75-35.96 344.69-35.96L344.69-35.96L344.69-35.96Q344.64-35.96 344.61-35.90L344.61-35.90L344.61-35.90Q344.58-35.84 344.58-35.79L344.58-35.79L344.58-5.22L344.00-5.22L344.00-35.90L344.00-35.90Q344.00-36.25 344.23-36.42L344.23-36.42L344.23-36.42Q344.46-36.60 344.69-36.60L344.69-36.60L344.69-36.60Q344.93-36.60 345.10-36.48L345.10-36.48L345.10-36.48Q345.27-36.37 345.56-36.08ZM340.00 0L348.70 0L348.70 0Q349.80 0 350.29-0.49L350.29-0.49L350.29-0.49Q350.78-0.99 350.78-2.09L350.78-2.09L350.78-21.23L360.70-9.22L360.70-2.09L360.70-2.09Q360.70-0.99 361.19-0.49L361.19-0.49L361.19-0.49Q361.69 0 362.79 0L362.79 0L371.49 0L371.49 0Q372.59 0 373.08-0.49L373.08-0.49L373.08-0.49Q373.58-0.99 373.58-2.09L373.58-2.09L373.58-39.67L373.58-39.67Q373.58-40.77 373.08-41.27L373.08-41.27L373.08-41.27Q372.59-41.76 371.49-41.76L371.49-41.76L362.79-41.76L362.79-41.76Q361.69-41.76 361.19-41.27L361.19-41.27L361.19-41.27Q360.70-40.77 360.70-39.67L360.70-39.67L360.70-27.32L349.45-40.19L349.45-40.19Q348.70-41.06 347.91-41.41L347.91-41.41L347.91-41.41Q347.13-41.76 346.03-41.76L346.03-41.76L340.00-41.76L340.00-41.76Q338.89-41.76 338.40-41.27L338.40-41.27L338.40-41.27Q337.91-40.77 337.91-39.67L337.91-39.67L337.91-2.09L337.91-2.09Q337.91-0.99 338.40-0.49L338.40-0.49L338.40-0.49Q338.89 0 340.00 0L340.00 0ZM350.55 0.06L350.55 0.06L343.01 6.32L343.01 6.32Q342.78 6.55 342.29 6.73L342.29 6.73L342.29 6.73Q341.79 6.90 341.21 6.90L341.21 6.90L332.51 6.90L332.51 6.90Q331.12 6.90 330.48 6.26L330.48 6.26L330.48 6.26Q329.85 5.63 329.85 4.23L329.85 4.23L329.85-33.35L329.85-33.35Q329.85-34.10 330.05-34.63L330.05-34.63L330.05-34.63Q330.25-35.15 330.66-35.50L330.66-35.50L338.14-41.82L338.14-41.82Q338.43-42.05 338.92-42.20L338.92-42.20L338.92-42.20Q339.42-42.34 340.00-42.34L340.00-42.34L346.03-42.34L346.03-42.34Q347.30-42.34 348.17-41.93L348.17-41.93L348.17-41.93Q349.04-41.53 349.91-40.60L349.91-40.60L353.92-35.96L360.93-41.82L360.93-41.82Q361.22-42.05 361.72-42.20L361.72-42.20L361.72-42.20Q362.21-42.34 362.79-42.34L362.79-42.34L371.49-42.34L371.49-42.34Q372.88-42.34 373.52-41.70L373.52-41.70L373.52-41.70Q374.16-41.06 374.16-39.67L374.16-39.67L374.16-2.09L374.16-2.09Q374.16-1.33 373.95-0.81L373.95-0.81L373.95-0.81Q373.75-0.29 373.35 0.06L373.35 0.06L365.81 6.32L365.81 6.32Q365.57 6.55 365.08 6.73L365.08 6.73L365.08 6.73Q364.59 6.90 364.01 6.90L364.01 6.90L355.31 6.90L355.31 6.90Q353.92 6.90 353.28 6.26L353.28 6.26L353.28 6.26Q352.64 5.63 352.64 4.23L352.64 4.23L352.64-2.67L351.36-4.23L351.36-2.09L351.36-2.09Q351.36-1.33 351.16-0.81L351.16-0.81L351.16-0.81Q350.96-0.29 350.55 0.06ZM408.90 6.90L408.90 6.90L381.99 6.90L381.99 6.90Q380.60 6.90 379.96 6.26L379.96 6.26L379.96 6.26Q379.32 5.63 379.32 4.23L379.32 4.23L379.32-33.35L379.32-33.35Q379.32-34.10 379.52-34.63L379.52-34.63L379.52-34.63Q379.73-35.15 380.13-35.50L380.13-35.50L387.61-41.82L387.61-41.82Q387.90-42.05 388.40-42.20L388.40-42.20L388.40-42.20Q388.89-42.34 389.47-42.34L389.47-42.34L416.38-42.34L416.38-42.34Q417.77-42.34 418.41-41.70L418.41-41.70L418.41-41.70Q419.05-41.06 419.05-39.67L419.05-39.67L419.05-32.89L419.05-32.89Q419.05-32.13 418.85-31.61L418.85-31.61L418.85-31.61Q418.64-31.09 418.24-30.74L418.24-30.74L413.25-26.62L413.25-26.62Q413.83-26.33 414.09-25.75L414.09-25.75L414.09-25.75Q414.35-25.17 414.35-24.24L414.35-24.24L414.35-18.04L414.35-18.04Q414.35-17.28 414.15-16.76L414.15-16.76L414.15-16.76Q413.95-16.24 413.54-15.89L413.54-15.89L408.38-11.54L416.38-11.54L416.38-11.54Q417.77-11.54 418.41-10.90L418.41-10.90L418.41-10.90Q419.05-10.27 419.05-8.87L419.05-8.87L419.05-2.09L419.05-2.09Q419.05-1.33 418.85-0.81L418.85-0.81L418.85-0.81Q418.64-0.29 418.24 0.06L418.24 0.06L410.70 6.32L410.70 6.32Q410.47 6.55 409.97 6.73L409.97 6.73L409.97 6.73Q409.48 6.90 408.90 6.90ZM389.47 0L416.38 0L416.38 0Q417.48 0 417.98-0.49L417.98-0.49L417.98-0.49Q418.47-0.99 418.47-2.09L418.47-2.09L418.47-8.87L418.47-8.87Q418.47-9.98 417.98-10.47L417.98-10.47L417.98-10.47Q417.48-10.96 416.38-10.96L416.38-10.96L400.37-10.96L400.37-15.95L411.68-15.95L411.68-15.95Q412.79-15.95 413.28-16.44L413.28-16.44L413.28-16.44Q413.77-16.94 413.77-18.04L413.77-18.04L413.77-24.24L413.77-24.24Q413.77-25.35 413.28-25.84L413.28-25.84L413.28-25.84Q412.79-26.33 411.68-26.33L411.68-26.33L400.37-26.33L400.37-30.80L416.38-30.80L416.38-30.80Q417.48-30.80 417.98-31.29L417.98-31.29L417.98-31.29Q418.47-31.78 418.47-32.89L418.47-32.89L418.47-39.67L418.47-39.67Q418.47-40.77 417.98-41.27L417.98-41.27L417.98-41.27Q417.48-41.76 416.38-41.76L416.38-41.76L389.47-41.76L389.47-41.76Q388.37-41.76 387.88-41.27L387.88-41.27L387.88-41.27Q387.38-40.77 387.38-39.67L387.38-39.67L387.38-2.09L387.38-2.09Q387.38-0.99 387.88-0.49L387.88-0.49L387.88-0.49Q388.37 0 389.47 0L389.47 0ZM394.28-5.80L413.25-5.80L413.25-5.22L393.70-5.22L393.70-36.54L413.25-36.54L413.25-35.96L394.28-35.96L394.28-21.40L408.55-21.40L408.55-20.82L394.28-20.82L394.28-5.80ZM450.60-35.96L450.60-35.96L437.96-35.96L437.96-19.20L450.60-19.20L450.60-19.20Q454.20-19.20 455.42-20.94L455.42-20.94L455.42-20.94Q456.63-22.68 456.63-25.87L456.63-25.87L456.63-29.93L456.63-29.93Q456.63-32.60 455.16-34.28L455.16-34.28L455.16-34.28Q453.68-35.96 450.60-35.96ZM444.22-23.90L444.22-31.32L448.57-31.32L448.57-31.32Q450.08-31.32 450.60-30.54L450.60-30.54L450.60-30.54Q451.12-29.75 451.12-28.59L451.12-28.59L451.12-26.62L451.12-26.62Q451.12-25.46 450.60-24.68L450.60-24.68L450.60-24.68Q450.08-23.90 448.57-23.90L448.57-23.90L444.22-23.90ZM437.96-18.68L437.96-5.22L437.38-5.22L437.38-36.54L450.60-36.54L450.60-36.54Q453.97-36.54 455.59-34.66L455.59-34.66L455.59-34.66Q457.21-32.77 457.21-29.93L457.21-29.93L457.21-25.93L457.21-25.93Q457.21-23.26 456.52-21.55L456.52-21.55L456.52-21.55Q455.82-19.84 453.73-19.20L453.73-19.20L454.37-19.20L454.37-19.20Q457.91-19.20 459.65-17.60L459.65-17.60L459.65-17.60Q461.39-16.01 461.39-12.99L461.39-12.99L461.39-5.22L460.81-5.22L460.81-12.99L460.81-12.99Q460.81-15.83 459.24-17.26L459.24-17.26L459.24-17.26Q457.68-18.68 454.37-18.68L454.37-18.68L437.96-18.68ZM433.20 0L442.13 0L442.13 0Q443.24 0 443.73-0.49L443.73-0.49L443.73-0.49Q444.22-0.99 444.22-2.09L444.22-2.09L444.22-13.46L452.34-13.46L452.34-13.46Q453.56-13.46 454.05-12.85L454.05-12.85L454.05-12.85Q454.55-12.24 454.55-10.96L454.55-10.96L454.55-2.09L454.55-2.09Q454.55-0.99 455.04-0.49L455.04-0.49L455.04-0.49Q455.53 0 456.63 0L456.63 0L465.62 0L465.62 0Q466.73 0 467.22-0.49L467.22-0.49L467.22-0.49Q467.71-0.99 467.71-2.09L467.71-2.09L467.71-14.38L467.71-14.38Q467.71-18.04 465.77-20.24L465.77-20.24L465.77-20.24Q463.83-22.45 460.69-22.79L460.69-22.79L460.69-22.79Q462.49-23.55 463.22-25.26L463.22-25.26L463.22-25.26Q463.94-26.97 463.94-29.41L463.94-29.41L463.94-32.07L463.94-32.07Q463.94-36.37 461.48-39.06L461.48-39.06L461.48-39.06Q459.01-41.76 452.52-41.76L452.52-41.76L433.20-41.76L433.20-41.76Q432.10-41.76 431.61-41.27L431.61-41.27L431.61-41.27Q431.11-40.77 431.11-39.67L431.11-39.67L431.11-2.09L431.11-2.09Q431.11-0.99 431.61-0.49L431.61-0.49L431.61-0.49Q432.10 0 433.20 0L433.20 0ZM443.99 0.06L443.99 0.06L436.45 6.32L436.45 6.32Q436.22 6.55 435.73 6.73L435.73 6.73L435.73 6.73Q435.23 6.90 434.65 6.90L434.65 6.90L425.72 6.90L425.72 6.90Q424.33 6.90 423.69 6.26L423.69 6.26L423.69 6.26Q423.05 5.63 423.05 4.23L423.05 4.23L423.05-33.35L423.05-33.35Q423.05-34.10 423.25-34.63L423.25-34.63L423.25-34.63Q423.46-35.15 423.86-35.50L423.86-35.50L431.35-41.82L431.35-41.82Q431.64-42.05 432.13-42.20L432.13-42.20L432.13-42.20Q432.62-42.34 433.20-42.34L433.20-42.34L452.52-42.34L452.52-42.34Q459.42-42.34 461.97-39.47L461.97-39.47L461.97-39.47Q464.52-36.60 464.52-32.07L464.52-32.07L464.52-29.41L464.52-29.41Q464.52-27.26 464-25.67L464-25.67L464-25.67Q463.48-24.07 462.32-23.08L462.32-23.08L462.26-23.08L462.26-23.08Q464.99-22.33 466.64-20.07L466.64-20.07L466.64-20.07Q468.29-17.81 468.29-14.38L468.29-14.38L468.29-2.09L468.29-2.09Q468.29-1.33 468.09-0.81L468.09-0.81L468.09-0.81Q467.89-0.29 467.48 0.06L467.48 0.06L459.94 6.32L459.94 6.32Q459.71 6.55 459.22 6.73L459.22 6.73L459.22 6.73Q458.72 6.90 458.14 6.90L458.14 6.90L449.15 6.90L449.15 6.90Q447.76 6.90 447.12 6.26L447.12 6.26L447.12 6.26Q446.48 5.63 446.48 4.23L446.48 4.23L446.48-4.64L446.48-4.64Q446.48-5.57 446.14-6.06L446.14-6.06L446.14-6.06Q445.79-6.55 444.86-6.55L444.86-6.55L444.80-6.55L444.80-2.09L444.80-2.09Q444.80-1.33 444.60-0.81L444.60-0.81L444.60-0.81Q444.40-0.29 443.99 0.06ZM512.84-2.44L505.30 3.83L505.30 3.83Q503.50 5.34 500.71 6.12L500.71 6.12L500.71 6.12Q497.93 6.90 494.16 6.90L494.16 6.90L474.61 6.90L474.61 6.90Q473.22 6.90 472.58 6.26L472.58 6.26L472.58 6.26Q471.95 5.63 471.95 4.23L471.95 4.23L471.95-33.35L471.95-33.35Q471.95-34.10 472.15-34.63L472.15-34.63L472.15-34.63Q472.35-35.15 472.76-35.50L472.76-35.50L480.24-41.82L480.24-41.82Q480.53-42.05 481.02-42.20L481.02-42.20L481.02-42.20Q481.52-42.34 482.10-42.34L482.10-42.34L501.64-42.34L501.64-42.34Q509.24-42.34 512.87-39.27L512.87-39.27L512.87-39.27Q516.49-36.19 516.49-29.93L516.49-29.93L516.49-11.83L516.49-11.83Q516.49-8.70 515.56-6.35L515.56-6.35L515.56-6.35Q514.63-4.00 512.84-2.44L512.84-2.44ZM482.10 0L501.64 0L501.64 0Q508.89 0 512.40-2.90L512.40-2.90L512.40-2.90Q515.91-5.80 515.91-11.83L515.91-11.83L515.91-29.93L515.91-29.93Q515.91-35.96 512.40-38.86L512.40-38.86L512.40-38.86Q508.89-41.76 501.64-41.76L501.64-41.76L482.10-41.76L482.10-41.76Q480.99-41.76 480.50-41.27L480.50-41.27L480.50-41.27Q480.01-40.77 480.01-39.67L480.01-39.67L480.01-2.09L480.01-2.09Q480.01-0.99 480.50-0.49L480.50-0.49L480.50-0.49Q480.99 0 482.10 0L482.10 0ZM500.37-5.22L486.33-5.22L486.33-36.54L500.37-36.54L500.37-36.54Q503.32-36.54 505.15-35.90L505.15-35.90L505.15-35.90Q506.98-35.26 507.96-34.19L507.96-34.19L507.96-34.19Q508.95-33.12 509.30-31.64L509.30-31.64L509.30-31.64Q509.65-30.16 509.65-28.48L509.65-28.48L509.65-13.11L509.65-13.11Q509.65-11.43 509.33-9.98L509.33-9.98L509.33-9.98Q509.01-8.53 508.02-7.48L508.02-7.48L508.02-7.48Q507.04-6.44 505.18-5.83L505.18-5.83L505.18-5.83Q503.32-5.22 500.37-5.22L500.37-5.22ZM500.37-35.96L500.37-35.96L486.91-35.96L486.91-5.80L500.37-5.80L500.37-5.80Q503.15-5.80 504.86-6.35L504.86-6.35L504.86-6.35Q506.57-6.90 507.50-7.86L507.50-7.86L507.50-7.86Q508.43-8.82 508.75-10.18L508.75-10.18L508.75-10.18Q509.07-11.54 509.07-13.11L509.07-13.11L509.07-28.48L509.07-28.48Q509.07-30.04 508.72-31.44L508.72-31.44L508.72-31.44Q508.37-32.83 507.44-33.81L507.44-33.81L507.44-33.81Q506.51-34.80 504.80-35.38L504.80-35.38L504.80-35.38Q503.09-35.96 500.37-35.96ZM493.17-10.96L493.17-30.68L500.08-30.68L500.08-30.68Q501.47-30.68 502.13-30.02L502.13-30.02L502.13-30.02Q502.80-29.35 502.80-27.90L502.80-27.90L502.80-13.80L502.80-13.80Q502.80-12.35 502.13-11.66L502.13-11.66L502.13-11.66Q501.47-10.96 500.08-10.96L500.08-10.96L493.17-10.96ZM494.74-11.54L494.74-21.58L494.74-21.58Q494.74-22.33 494.51-22.85L494.51-22.85L494.51-22.85Q494.28-23.37 493.75-23.61L493.75-23.61L493.75-11.54L494.74-11.54Z" fill="none" stroke="#d3ffda" stroke-width="0.8"></path></g></g><style>text {
  font-size: 64px;
  font-family: Arial Black;
  dominant-baseline: central;
  text-anchor: middle;
}</style></svg>