<svg width="705.5px" height="116px" xmlns="http://www.w3.org/2000/svg" viewBox="-102.75 17 705.5 116" style="background: rgba(0, 0, 0, 0);" preserveAspectRatio="xMidYMid"><defs><filter id="editing-offset"><feFlood flood-color="#f00" flood-opacity="0.5" result="c1"></feFlood><feFlood flood-color="#0f0" flood-opacity="0.5" result="c2"></feFlood><feFlood flood-color="#00f" flood-opacity="0.5" result="c3"></feFlood><feComposite operator="in" in="c1" in2="SourceAlpha" result="text-c1"></feComposite><feComposite operator="in" in="c2" in2="SourceAlpha" result="text-c2"></feComposite><feComposite operator="in" in="c3" in2="SourceAlpha" result="text-c3"></feComposite><feOffset in="text-c1" dx="-10" dy="0" result="text1"></feOffset><feOffset in="text-c2" dx="10" dy="0" result="text2"></feOffset><feOffset in="text-c3" dx="0" dy="0" result="text3"></feOffset><feMerge><feMergeNode in="text1"></feMergeNode><feMergeNode in="text2"></feMergeNode><feMergeNode in="text3"></feMergeNode></feMerge></filter></defs><g filter="url(#editing-offset)"><g transform="translate(-1.4400103092193604, 102.94000053405762)"><path d="M23 1.31L23 1.31L23 1.31Q19.75 1.31 16.59 0.56L16.59 0.56L16.59 0.56Q13.44-0.19 10.56-1.66L10.56-1.66L10.56-1.66Q7.69-3.13 5.50-5.56L5.50-5.56L5.50-5.56Q3.31-8 3.13-11.38L3.13-11.38L3.13-14L3.13-14.94L3.13-14.94Q3.13-16.69 4.41-17.84L4.41-17.84L4.41-17.84Q5.69-19 7.44-19L7.44-19L7.44-19Q11.19-18.69 11.50-14.94L11.50-14.94L11.50-13.31L11.50-13.31Q11.63-11.38 12.97-10.09L12.97-10.09L12.97-10.09Q14.31-8.81 15.97-8.06L15.97-8.06L15.97-8.06Q17.63-7.31 19.41-6.94L19.41-6.94L19.41-6.94Q21.19-6.56 23-6.56L23-6.56L23-6.56Q24.81-6.56 26.59-6.94L26.59-6.94L26.59-6.94Q28.38-7.31 30.03-8.06L30.03-8.06L30.03-8.06Q31.69-8.81 33.03-10.09L33.03-10.09L33.03-10.09Q34.38-11.38 34.50-13.31L34.50-13.31L34.50-33.94L34.50-33.94Q34.50-35.69 35.78-36.84L35.78-36.84L35.78-36.84Q37.06-38 38.81-38L38.81-38L38.81-38Q42.56-37.69 42.94-33.94L42.94-33.94L42.94-14L42.94-11.38L42.94-11.38Q42.75-8 40.53-5.56L40.53-5.56L40.53-5.56Q38.31-3.13 35.44-1.66L35.44-1.66L35.44-1.66Q32.56-0.19 29.41 0.56L29.41 0.56L29.41 0.56Q26.25 1.31 23 1.31ZM85.94-3.44L85.94-3.44L85.94-18.50L85.94-18.50Q85.94-20.06 84.31-20.13L84.31-20.13L62.44-20.13L62.44-20.13Q61.25-20.06 60.38-19.09L60.38-19.09L60.38-19.09Q59.50-18.13 59.09-16.84L59.09-16.84L59.09-16.84Q58.69-15.56 58.69-14.25L58.69-14.25L58.69-14.25Q58.69-13 59.09-11.72L59.09-11.72L59.09-11.72Q59.50-10.44 60.38-9.47L60.38-9.47L60.38-9.47Q61.25-8.50 62.44-8.50L62.44-8.50L78.44-8.50L78.44-8.50Q80.19-8.50 81.41-7.28L81.41-7.28L81.41-7.28Q82.63-6.06 82.63-4.31L82.63-4.31L82.63-4.31Q82.63-2.56 81.38-1.38L81.38-1.38L81.38-1.38Q80.19-0.13 78.44-0.13L78.44-0.13L62.69-0.13L62.69-0.13Q58.31-0.19 55.47-2.59L55.47-2.59L55.47-2.59Q52.63-5 51.41-8.03L51.41-8.03L51.41-8.03Q50.19-11.06 50.19-14.31L50.19-14.31L50.19-14.31Q50.19-17.44 51.44-20.47L51.44-20.47L51.44-20.47Q52.69-23.50 55.50-25.91L55.50-25.91L55.50-25.91Q58.31-28.31 63.81-28.50L63.81-28.50L90.06-28.50L90.06-28.50Q91.81-28.50 93.06-27.34L93.06-27.34L93.06-27.34Q94.31-26.19 94.38-24.44L94.38-24.44L94.38-3.44L94.38-3.44Q94.38-1.69 93.09-0.53L93.09-0.53L93.09-0.53Q91.81 0.63 90.06 0.63L90.06 0.63L90.06 0.63Q86.31 0.31 85.94-3.44ZM106.63-29.25L106.63-29.25L106.63-29.25Q108.38-29.25 109.63-28.09L109.63-28.09L109.63-28.09Q110.88-26.94 110.94-25.19L110.94-25.19L110.94-18.88L110.94-18.88Q110.88-16.31 111.28-14.16L111.28-14.16L111.28-14.16Q111.69-12 113.25-10.31L113.25-10.31L113.25-10.31Q114.81-8.63 117.19-8.50L117.19-8.50L133.88-8.50L133.88-25.06L133.88-25.06Q133.88-26.81 135.16-27.97L135.16-27.97L135.16-27.97Q136.44-29.13 138.19-29.13L138.19-29.13L138.19-29.13Q141.94-28.81 142.31-25.06L142.31-25.06L142.31-4.69L142.31-4.69Q142.31 0.31 140.94 4.75L140.94 4.75L140.94 4.75Q139.69 8.69 136.84 11.41L136.84 11.41L136.84 11.41Q134 14.13 129.63 14.38L129.63 14.38L108 14.38L108 14.38Q106.31 14.31 105.16 13.16L105.16 13.16L105.16 13.16Q104 12 103.94 10.31L103.94 10.31L103.94 10.31Q103.94 8.56 105.09 7.31L105.09 7.31L105.09 7.31Q106.25 6.06 108 6L108 6L127.50 6L127.50 6Q129.88 5.88 131.44 4.19L131.44 4.19L131.44 4.19Q133 2.50 133.44 0.25L133.44 0.25L133.44 0.25Q133.50 0.06 133.50-0.13L133.50-0.13L115.06-0.13L115.06-0.13Q110.69-0.38 107.84-3.09L107.84-3.09L107.84-3.09Q105-5.81 103.75-9.75L103.75-9.75L103.75-9.75Q102.56-13.69 102.50-18.13L102.50-18.13L102.50-25.19L102.50-25.19Q102.56-26.88 103.75-28.03L103.75-28.03L103.75-28.03Q104.94-29.19 106.63-29.25ZM158.94-33.94L158.94-33.94L158.94-10.13L158.94-10.13Q158.94-8.56 160.56-8.50L160.56-8.50L182.44-8.50L182.44-8.50Q183.63-8.56 184.50-9.53L184.50-9.53L184.50-9.53Q185.38-10.50 185.78-11.78L185.78-11.78L185.78-11.78Q186.19-13.06 186.19-14.38L186.19-14.38L186.19-14.38Q186.19-15.63 185.78-16.91L185.78-16.91L185.78-16.91Q185.38-18.19 184.50-19.16L184.50-19.16L184.50-19.16Q183.63-20.13 182.44-20.13L182.44-20.13L166.44-20.13L166.44-20.13Q164.69-20.13 163.47-21.34L163.47-21.34L163.47-21.34Q162.25-22.56 162.25-24.31L162.25-24.31L162.25-24.31Q162.25-26.06 163.50-27.25L163.50-27.25L163.50-27.25Q164.69-28.50 166.44-28.50L166.44-28.50L182.19-28.50L182.19-28.50Q186.56-28.44 189.41-26.03L189.41-26.03L189.41-26.03Q192.25-23.63 193.47-20.59L193.47-20.59L193.47-20.59Q194.69-17.56 194.69-14.31L194.69-14.31L194.69-14.31Q194.69-11.19 193.44-8.16L193.44-8.16L193.44-8.16Q192.19-5.13 189.38-2.72L189.38-2.72L189.38-2.72Q186.56-0.31 181.06-0.13L181.06-0.13L154.81-0.13L154.81-0.13Q153.06-0.13 151.81-1.28L151.81-1.28L151.81-1.28Q150.56-2.44 150.50-4.19L150.50-4.19L150.50-33.94L150.50-33.94Q150.50-35.69 151.78-36.84L151.78-36.84L151.78-36.84Q153.06-38 154.81-38L154.81-38L154.81-38Q158.56-37.69 158.94-33.94ZM205.75-29.13L205.75-29.13L205.75-29.13Q207.44-29.06 208.63-27.91L208.63-27.91L208.63-27.91Q209.81-26.75 209.88-25.06L209.88-25.06L209.88-3.44L209.88-3.44Q209.50 0.31 205.75 0.63L205.75 0.63L205.75 0.63Q204 0.63 202.72-0.53L202.72-0.53L202.72-0.53Q201.44-1.69 201.44-3.44L201.44-3.44L201.44-25.06L201.44-25.06Q201.50-26.81 202.75-27.97L202.75-27.97L202.75-27.97Q204-29.13 205.75-29.13ZM200.50-37.25L200.50-37.25L200.50-37.25Q200.50-39 202-40.25L202-40.25L202-40.25Q203.50-41.50 205.63-41.50L205.63-41.50L205.63-41.50Q207.75-41.50 209.25-40.25L209.25-40.25L209.25-40.25Q210.75-39 210.75-37.25L210.75-37.25L210.75-37.25Q210.75-35.44 209.25-34.19L209.25-34.19L209.25-34.19Q207.75-32.94 205.63-32.94L205.63-32.94L205.63-32.94Q203.50-32.94 202-34.19L202-34.19L202-34.19Q200.50-35.44 200.50-37.25ZM218.81-20.63L218.81-20.63L218.81-20.63Q220-23.63 222.84-26.03L222.84-26.03L222.84-26.03Q225.69-28.44 230.06-28.50L230.06-28.50L253.56-28.50L253.56-28.50Q255.31-28.50 256.50-27.25L256.50-27.25L256.50-27.25Q257.75-26.06 257.75-24.31L257.75-24.31L257.75-24.31Q257.75-22.56 256.53-21.34L256.53-21.34L256.53-21.34Q255.31-20.13 253.56-20.13L253.56-20.13L229.81-20.13L229.81-20.13Q228.63-20.13 227.75-19.16L227.75-19.16L227.75-19.16Q226.88-18.19 226.41-16.88L226.41-16.88L226.41-16.88Q225.94-15.56 225.94-14.38L225.94-14.38L225.94-3.44L225.94-3.44Q225.56 0.31 221.81 0.63L221.81 0.63L221.81 0.63Q220.06 0.63 218.78-0.53L218.78-0.53L218.78-0.53Q217.50-1.69 217.50-3.44L217.50-3.44L217.50-14.31L217.56-14.31L217.56-14.31Q217.56-17.56 218.81-20.63ZM298.75-10.13L298.75-33.94L298.75-33.94Q299.13-37.69 302.88-38L302.88-38L302.88-38Q304.63-38 305.91-36.84L305.91-36.84L305.91-36.84Q307.19-35.69 307.19-33.94L307.19-33.94L307.19-4.19L307.19-4.19Q307.13-2.44 305.88-1.28L305.88-1.28L305.88-1.28Q304.63-0.13 302.88-0.13L302.88-0.13L276.63-0.13L276.63-0.13Q271.13-0.31 268.31-2.72L268.31-2.72L268.31-2.72Q265.50-5.13 264.25-8.16L264.25-8.16L264.25-8.16Q263-11.19 263-14.31L263-14.31L263-14.31Q263-17.56 264.22-20.59L264.22-20.59L264.22-20.59Q265.44-23.63 268.28-26.03L268.28-26.03L268.28-26.03Q271.13-28.44 275.50-28.50L275.50-28.50L291.25-28.50L291.25-28.50Q293-28.50 294.19-27.25L294.19-27.25L294.19-27.25Q295.44-26.06 295.44-24.31L295.44-24.31L295.44-24.31Q295.44-22.56 294.22-21.34L294.22-21.34L294.22-21.34Q293-20.13 291.25-20.13L291.25-20.13L275.25-20.13L275.25-20.13Q274.06-20.13 273.19-19.16L273.19-19.16L273.19-19.16Q272.31-18.19 271.91-16.91L271.91-16.91L271.91-16.91Q271.50-15.63 271.50-14.38L271.50-14.38L271.50-14.38Q271.50-13.06 271.91-11.78L271.91-11.78L271.91-11.78Q272.31-10.50 273.19-9.53L273.19-9.53L273.19-9.53Q274.06-8.56 275.25-8.50L275.25-8.50L297.13-8.50L297.13-8.50Q298.75-8.56 298.75-10.13L298.75-10.13ZM335.38-29.44L335.38-29.44L335.38-29.44Q338.63-29.44 341.78-28.69L341.78-28.69L341.78-28.69Q344.94-27.94 347.81-26.47L347.81-26.47L347.81-26.47Q350.69-25 352.91-22.56L352.91-22.56L352.91-22.56Q355.13-20.13 355.31-16.75L355.31-16.75L355.31-14.13L355.31-3.44L355.31-3.44Q354.94 0.31 351.19 0.63L351.19 0.63L351.19 0.63Q349.44 0.63 348.16-0.53L348.16-0.53L348.16-0.53Q346.88-1.69 346.88-3.44L346.88-3.44L346.88-6.19L346.88-14.81L346.88-14.81Q346.75-16.75 345.41-18.03L345.41-18.03L345.41-18.03Q344.06-19.31 342.41-20.06L342.41-20.06L342.41-20.06Q340.75-20.81 338.97-21.19L338.97-21.19L338.97-21.19Q337.19-21.56 335.38-21.56L335.38-21.56L335.38-21.56Q333.56-21.56 331.78-21.19L331.78-21.19L331.78-21.19Q330-20.81 328.34-20.06L328.34-20.06L328.34-20.06Q326.69-19.31 325.34-18.03L325.34-18.03L325.34-18.03Q324-16.75 323.88-14.81L323.88-14.81L323.88-6.19L323.88-3.44L323.88-3.44Q323.56 0.31 319.81 0.63L319.81 0.63L319.81 0.63Q318.06 0.63 316.78-0.53L316.78-0.53L316.78-0.53Q315.50-1.69 315.50-3.44L315.50-3.44L315.50-14.13L315.50-16.75L315.50-16.75Q315.69-20.13 317.88-22.56L317.88-22.56L317.88-22.56Q320.06-25 322.94-26.47L322.94-26.47L322.94-26.47Q325.81-27.94 328.97-28.69L328.97-28.69L328.97-28.69Q332.13-29.44 335.38-29.44ZM398.69-0.13L376.06-0.13L376.06-0.13Q370.56-0.31 367.75-2.72L367.75-2.72L367.75-2.72Q364.94-5.13 363.69-8.16L363.69-8.16L363.69-8.16Q362.44-11.19 362.44-14.31L362.44-14.31L362.44-14.31Q362.44-17.56 363.66-20.59L363.66-20.59L363.66-20.59Q364.88-23.63 367.72-26.03L367.72-26.03L367.72-26.03Q370.56-28.44 374.94-28.50L374.94-28.50L398.69-28.50L398.69-28.50Q400.44-28.50 401.63-27.31L401.63-27.31L401.63-27.31Q402.88-26.19 402.88-24.56L402.88-24.56L402.88-24.56Q402.88-22.88 401.66-21.72L401.66-21.72L401.66-21.72Q400.44-20.56 398.69-20.56L398.69-20.56L375.31-20.56L375.31-20.56Q373.94-20.56 372.91-19.63L372.91-19.63L372.91-19.63Q371.88-18.69 371.41-17.19L371.41-17.19L371.41-17.19Q370.94-15.69 370.94-14.25L370.94-14.25L370.94-14.25Q370.94-12.69 371.41-11.19L371.41-11.19L371.41-11.19Q371.88-9.69 372.91-8.78L372.91-8.78L372.91-8.78Q373.94-7.88 375.31-7.81L375.31-7.81L398.69-7.81L398.69-7.81Q400.44-7.81 401.66-6.69L401.66-6.69L401.66-6.69Q402.88-5.56 402.88-4L402.88-4L402.88-4Q402.88-2.38 401.63-1.25L401.63-1.25L401.63-1.25Q400.44-0.13 398.69-0.13L398.69-0.13ZM402.13-14.44L402.13-14.44L402.13-14.44Q402.13-13.25 401.06-12.38L401.06-12.38L401.06-12.38Q400.13-11.56 398.69-11.56L398.69-11.56L378.25-11.56L378.25-11.56Q376.81-11.56 375.81-12.41L375.81-12.41L375.81-12.41Q374.81-13.25 374.81-14.44L374.81-14.44L374.81-14.44Q374.81-15.56 375.81-16.44L375.81-16.44L375.81-16.44Q376.81-17.25 378.25-17.25L378.25-17.25L398.69-17.25L398.69-17.25Q400.13-17.25 401.13-16.41L401.13-16.41L401.13-16.41Q402.13-15.56 402.13-14.44ZM411.38-20.63L411.38-20.63L411.38-20.63Q412.56-23.63 415.41-26.03L415.41-26.03L415.41-26.03Q418.25-28.44 422.63-28.50L422.63-28.50L446.13-28.50L446.13-28.50Q447.88-28.50 449.06-27.25L449.06-27.25L449.06-27.25Q450.31-26.06 450.31-24.31L450.31-24.31L450.31-24.31Q450.31-22.56 449.09-21.34L449.09-21.34L449.09-21.34Q447.88-20.13 446.13-20.13L446.13-20.13L422.38-20.13L422.38-20.13Q421.19-20.13 420.31-19.16L420.31-19.16L420.31-19.16Q419.44-18.19 418.97-16.88L418.97-16.88L418.97-16.88Q418.50-15.56 418.50-14.38L418.50-14.38L418.50-3.44L418.50-3.44Q418.13 0.31 414.38 0.63L414.38 0.63L414.38 0.63Q412.63 0.63 411.34-0.53L411.34-0.53L411.34-0.53Q410.06-1.69 410.06-3.44L410.06-3.44L410.06-14.31L410.13-14.31L410.13-14.31Q410.13-17.56 411.38-20.63ZM491.31-10.13L491.31-33.94L491.31-33.94Q491.69-37.69 495.44-38L495.44-38L495.44-38Q497.19-38 498.47-36.84L498.47-36.84L498.47-36.84Q499.75-35.69 499.75-33.94L499.75-33.94L499.75-4.19L499.75-4.19Q499.69-2.44 498.44-1.28L498.44-1.28L498.44-1.28Q497.19-0.13 495.44-0.13L495.44-0.13L469.19-0.13L469.19-0.13Q463.69-0.31 460.88-2.72L460.88-2.72L460.88-2.72Q458.06-5.13 456.81-8.16L456.81-8.16L456.81-8.16Q455.56-11.19 455.56-14.31L455.56-14.31L455.56-14.31Q455.56-17.56 456.78-20.59L456.78-20.59L456.78-20.59Q458-23.63 460.84-26.03L460.84-26.03L460.84-26.03Q463.69-28.44 468.06-28.50L468.06-28.50L483.81-28.50L483.81-28.50Q485.56-28.50 486.75-27.25L486.75-27.25L486.75-27.25Q488-26.06 488-24.31L488-24.31L488-24.31Q488-22.56 486.78-21.34L486.78-21.34L486.78-21.34Q485.56-20.13 483.81-20.13L483.81-20.13L467.81-20.13L467.81-20.13Q466.63-20.13 465.75-19.16L465.75-19.16L465.75-19.16Q464.88-18.19 464.47-16.91L464.47-16.91L464.47-16.91Q464.06-15.63 464.06-14.38L464.06-14.38L464.06-14.38Q464.06-13.06 464.47-11.78L464.47-11.78L464.47-11.78Q464.88-10.50 465.75-9.53L465.75-9.53L465.75-9.53Q466.63-8.56 467.81-8.50L467.81-8.50L489.69-8.50L489.69-8.50Q491.31-8.56 491.31-10.13L491.31-10.13Z"></path></g></g><style>text {
  font-size: 64px;
  font-family: Arial Black;
  dominant-baseline: central;
  text-anchor: middle;
}</style></svg>