<?xml version="1.0" standalone="no"?>
<!DOCTYPE svg PUBLIC "-//W3C//DTD SVG 20010904//EN"
 "http://www.w3.org/TR/2001/REC-SVG-20010904/DTD/svg10.dtd">
<svg version="1.0" xmlns="http://www.w3.org/2000/svg"
 width="900.000000pt" height="636.000000pt" viewBox="0 0 900.000000 636.000000"
 preserveAspectRatio="xMidYMid meet">

<g transform="translate(0.000000,636.000000) scale(0.100000,-0.100000)"
fill="#000000" stroke="none">
<path d="M0 6320 l0 -30 4500 0 4500 0 0 30 0 30 -4500 0 -4500 0 0 -30z"/>
<path d="M0 6245 l0 -35 4500 0 4500 0 0 35 0 35 -4500 0 -4500 0 0 -35z"/>
<path d="M0 6170 l0 -30 4500 0 4500 0 0 30 0 30 -4500 0 -4500 0 0 -30z"/>
<path d="M0 6090 l0 -30 4500 0 4500 0 0 30 0 30 -4500 0 -4500 0 0 -30z"/>
<path d="M0 6015 l0 -35 4500 0 4500 0 0 35 0 35 -4500 0 -4500 0 0 -35z"/>
<path d="M0 5940 l0 -30 4500 0 4500 0 0 30 0 30 -4500 0 -4500 0 0 -30z"/>
<path d="M0 5860 l0 -30 4500 0 4500 0 0 30 0 30 -4500 0 -4500 0 0 -30z"/>
<path d="M0 5785 l0 -35 4500 0 4500 0 0 35 0 35 -4500 0 -4500 0 0 -35z"/>
<path d="M0 5705 l0 -35 4500 0 4500 0 0 35 0 35 -4500 0 -4500 0 0 -35z"/>
<path d="M0 5630 l0 -30 4500 0 4500 0 0 30 0 30 -4500 0 -4500 0 0 -30z"/>
<path d="M0 5550 l0 -30 4500 0 4500 0 0 30 0 30 -4500 0 -4500 0 0 -30z"/>
<path d="M0 5475 l0 -35 4500 0 4500 0 0 35 0 35 -4500 0 -4500 0 0 -35z"/>
<path d="M0 5400 l0 -30 4500 0 4500 0 0 30 0 30 -4500 0 -4500 0 0 -30z"/>
<path d="M0 5320 l0 -30 4500 0 4500 0 0 30 0 30 -4500 0 -4500 0 0 -30z"/>
<path d="M0 5245 l0 -35 4500 0 4500 0 0 35 0 35 -4500 0 -4500 0 0 -35z"/>
<path d="M0 5170 l0 -30 4500 0 4500 0 0 30 0 30 -4500 0 -4500 0 0 -30z"/>
<path d="M0 5090 l0 -30 4500 0 4500 0 0 30 0 30 -4500 0 -4500 0 0 -30z"/>
<path d="M0 5015 l0 -35 4500 0 4500 0 0 35 0 35 -4500 0 -4500 0 0 -35z"/>
<path d="M0 4935 l0 -35 4500 0 4500 0 0 35 0 35 -4500 0 -4500 0 0 -35z"/>
<path d="M0 4860 l0 -30 4500 0 4500 0 0 30 0 30 -4500 0 -4500 0 0 -30z"/>
<path d="M0 4780 l0 -30 4500 0 4500 0 0 30 0 30 -4500 0 -4500 0 0 -30z"/>
<path d="M0 4705 l0 -35 4500 0 4500 0 0 35 0 35 -4500 0 -4500 0 0 -35z"/>
<path d="M0 4630 l0 -30 4500 0 4500 0 0 30 0 30 -4500 0 -4500 0 0 -30z"/>
<path d="M0 4550 l0 -30 4500 0 4500 0 0 30 0 30 -4500 0 -4500 0 0 -30z"/>
<path d="M0 4475 l0 -35 4500 0 4500 0 0 35 0 35 -4500 0 -4500 0 0 -35z"/>
<path d="M0 4400 l0 -30 4500 0 4500 0 0 30 0 30 -4500 0 -4500 0 0 -30z"/>
<path d="M0 4320 l0 -30 4500 0 4500 0 0 30 0 30 -4500 0 -4500 0 0 -30z"/>
<path d="M0 4245 l0 -35 4500 0 4500 0 0 35 0 35 -4500 0 -4500 0 0 -35z"/>
<path d="M0 4170 l0 -30 4500 0 4500 0 0 30 0 30 -4500 0 -4500 0 0 -30z"/>
<path d="M0 4090 l0 -30 4500 0 4500 0 0 30 0 30 -4500 0 -4500 0 0 -30z"/>
<path d="M0 4010 l0 -30 4500 0 4500 0 0 30 0 30 -4500 0 -4500 0 0 -30z"/>
<path d="M0 3935 l0 -35 4500 0 4500 0 0 35 0 35 -4500 0 -4500 0 0 -35z"/>
<path d="M0 3860 l0 -30 4500 0 4500 0 0 30 0 30 -4500 0 -4500 0 0 -30z"/>
<path d="M0 3780 l0 -30 4500 0 4500 0 0 30 0 30 -4500 0 -4500 0 0 -30z"/>
<path d="M0 3705 l0 -35 4500 0 4500 0 0 35 0 35 -4500 0 -4500 0 0 -35z"/>
<path d="M0 3630 l0 -30 4500 0 4500 0 0 30 0 30 -4500 0 -4500 0 0 -30z"/>
<path d="M0 3550 l0 -30 4500 0 4500 0 0 30 0 30 -4500 0 -4500 0 0 -30z"/>
<path d="M0 3475 l0 -35 4500 0 4500 0 0 35 0 35 -4500 0 -4500 0 0 -35z"/>
<path d="M0 3400 l0 -30 4500 0 4500 0 0 30 0 30 -4500 0 -4500 0 0 -30z"/>
<path d="M0 3320 l0 -30 4500 0 4500 0 0 30 0 30 -4500 0 -4500 0 0 -30z"/>
<path d="M0 3243 l0 -33 4500 0 4500 0 0 33 0 32 -4500 0 -4500 0 0 -32z"/>
<path d="M0 3170 l0 -30 4500 0 4500 0 0 30 0 30 -4500 0 -4500 0 0 -30z"/>
<path d="M0 3090 l0 -30 4500 0 4500 0 0 30 0 30 -4500 0 -4500 0 0 -30z"/>
<path d="M0 3010 l0 -30 4500 0 4500 0 0 30 0 30 -4500 0 -4500 0 0 -30z"/>
<path d="M0 2935 l0 -35 4500 0 4500 0 0 35 0 35 -4500 0 -4500 0 0 -35z"/>
<path d="M0 2860 l0 -30 4500 0 4500 0 0 30 0 30 -4500 0 -4500 0 0 -30z"/>
<path d="M0 2780 l0 -30 4500 0 4500 0 0 30 0 30 -4500 0 -4500 0 0 -30z"/>
<path d="M0 2705 l0 -35 4500 0 4500 0 0 35 0 35 -4500 0 -4500 0 0 -35z"/>
<path d="M0 2630 l0 -30 4500 0 4500 0 0 30 0 30 -4500 0 -4500 0 0 -30z"/>
<path d="M0 2550 l0 -30 4500 0 4500 0 0 30 0 30 -4500 0 -4500 0 0 -30z"/>
<path d="M0 2475 l0 -35 4500 0 4500 0 0 35 0 35 -4500 0 -4500 0 0 -35z"/>
<path d="M0 2400 l0 -30 4500 0 4500 0 0 30 0 30 -4500 0 -4500 0 0 -30z"/>
<path d="M0 2320 l0 -30 4500 0 4500 0 0 30 0 30 -4500 0 -4500 0 0 -30z"/>
<path d="M0 2245 l0 -35 4500 0 4500 0 0 35 0 35 -4500 0 -4500 0 0 -35z"/>
<path d="M0 2170 l0 -30 4500 0 4500 0 0 30 0 30 -4500 0 -4500 0 0 -30z"/>
<path d="M0 2090 l0 -30 4500 0 4500 0 0 30 0 30 -4500 0 -4500 0 0 -30z"/>
<path d="M0 2010 l0 -30 4500 0 4500 0 0 30 0 30 -4500 0 -4500 0 0 -30z"/>
<path d="M0 1935 l0 -35 4500 0 4500 0 0 35 0 35 -4500 0 -4500 0 0 -35z"/>
<path d="M0 1860 l0 -30 4500 0 4500 0 0 30 0 30 -4500 0 -4500 0 0 -30z"/>
<path d="M0 1780 l0 -30 4500 0 4500 0 0 30 0 30 -4500 0 -4500 0 0 -30z"/>
<path d="M0 1705 l0 -35 4500 0 4500 0 0 35 0 35 -4500 0 -4500 0 0 -35z"/>
<path d="M0 1630 l0 -30 4500 0 4500 0 0 30 0 30 -4500 0 -4500 0 0 -30z"/>
<path d="M0 1550 l0 -30 4500 0 4500 0 0 30 0 30 -4500 0 -4500 0 0 -30z"/>
<path d="M0 1475 l0 -35 4500 0 4500 0 0 35 0 35 -4500 0 -4500 0 0 -35z"/>
<path d="M0 1400 l0 -30 4500 0 4500 0 0 30 0 30 -4500 0 -4500 0 0 -30z"/>
<path d="M0 1320 l0 -30 4500 0 4500 0 0 30 0 30 -4500 0 -4500 0 0 -30z"/>
<path d="M0 1245 l0 -35 4500 0 4500 0 0 35 0 35 -4500 0 -4500 0 0 -35z"/>
<path d="M0 1170 l0 -30 4500 0 4500 0 0 30 0 30 -4500 0 -4500 0 0 -30z"/>
<path d="M0 1090 l0 -30 4500 0 4500 0 0 30 0 30 -4500 0 -4500 0 0 -30z"/>
<path d="M0 1010 l0 -30 4500 0 4500 0 0 30 0 30 -4500 0 -4500 0 0 -30z"/>
<path d="M0 935 l0 -35 4500 0 4500 0 0 35 0 35 -4500 0 -4500 0 0 -35z"/>
<path d="M0 860 l0 -30 4500 0 4500 0 0 30 0 30 -4500 0 -4500 0 0 -30z"/>
<path d="M0 780 l0 -30 4500 0 4500 0 0 30 0 30 -4500 0 -4500 0 0 -30z"/>
<path d="M0 705 l0 -35 4500 0 4500 0 0 35 0 35 -4500 0 -4500 0 0 -35z"/>
<path d="M0 630 l0 -30 4500 0 4500 0 0 30 0 30 -4500 0 -4500 0 0 -30z"/>
<path d="M0 550 l0 -30 4500 0 4500 0 0 30 0 30 -4500 0 -4500 0 0 -30z"/>
<path d="M0 475 l0 -35 4500 0 4500 0 0 35 0 35 -4500 0 -4500 0 0 -35z"/>
<path d="M0 400 l0 -30 4500 0 4500 0 0 30 0 30 -4500 0 -4500 0 0 -30z"/>
<path d="M0 320 l0 -30 4500 0 4500 0 0 30 0 30 -4500 0 -4500 0 0 -30z"/>
<path d="M0 240 l0 -30 4500 0 4500 0 0 30 0 30 -4500 0 -4500 0 0 -30z"/>
<path d="M0 165 l0 -35 4500 0 4500 0 0 35 0 35 -4500 0 -4500 0 0 -35z"/>
<path d="M0 90 l0 -30 4500 0 4500 0 0 30 0 30 -4500 0 -4500 0 0 -30z"/>
<path d="M0 20 c0 -20 7 -20 4500 -20 4493 0 4500 0 4500 20 0 20 -7 20 -4500
20 -4493 0 -4500 0 -4500 -20z"/>
</g>
</svg>
